<svg version="1.1" xmlns="http://www.w3.org/2000/svg" width="263px" height="263px" transform="rotate(0) scale(1, 1)">
<path d="M0 0 C3.66580917 3.12212822 6.03696228 6.50016976 8.5625 10.5625 C12.39136352 15.92290893 15.48553861 17.41780609 21.734375 19.07421875 C34.08254366 22.57483594 47.59316531 31.13756496 56 41 C56 41.66 56 42.32 56 43 C56.66 43 57.32 43 58 43 C59.40112305 44.55371094 59.40112305 44.55371094 61.01171875 46.734375 C61.60154541 47.53012939 62.19137207 48.32588379 62.79907227 49.14575195 C63.42225342 50.00515381 64.04543457 50.86455566 64.6875 51.75 C65.32163818 52.62164795 65.95577637 53.4932959 66.60913086 54.39135742 C83.03720184 77.19885162 90.21085048 102.0561071 86.53125 130.17578125 C85.8664592 133.85983029 85.01517659 137.39689217 84 141 C83.80664062 141.69367676 83.61328125 142.38735352 83.4140625 143.10205078 C78.78537058 159.29890096 71.45769932 173.76864762 61 187 C60.27167969 187.95390625 59.54335937 188.9078125 58.79296875 189.890625 C54.7509535 195.10518882 54.7509535 195.10518882 53 197 C52.34 197 51.68 197 51 197 C50.34 198.32 49.68 199.64 49 201 C47.35 200.34 45.7 199.68 44 199 C44 198.34 44 197.68 44 197 C39.63997453 197 39.53691786 197.01548523 36.6875 199.8125 C9.06626531 225.0851639 -27.39766607 239.37871694 -64.875 237.8125 C-88.26924193 236.19105987 -113.43667644 227.17030845 -129.4375 209.375 C-134.14612608 203.73117336 -138.61207849 197.89478138 -143 192 C-143.77859375 190.95585937 -144.5571875 189.91171875 -145.359375 188.8359375 C-157.85587423 171.47011271 -165.24548227 153.37005918 -165.0625 131.75 C-165.05798828 130.74453125 -165.05347656 129.7390625 -165.04882812 128.703125 C-165.03674861 126.13536625 -165.01894024 123.56771436 -165 121 C-165 119.13641123 -165.04885964 117.27299965 -165.1015625 115.41015625 C-165.09550784 110.93071418 -164.37239027 106.79318565 -163.375 102.4375 C-163.19678711 101.65592529 -163.01857422 100.87435059 -162.83496094 100.0690918 C-160.98800581 92.37266415 -158.35130698 85.1797231 -155 78 C-154.57509277 77.08637695 -154.57509277 77.08637695 -154.14160156 76.15429688 C-147.33169181 61.84219925 -137.34060808 46.77579049 -125.125 36.5 C-122.13942009 33.97538759 -122.13942009 33.97538759 -119.23828125 31.35546875 C-91.17362943 5.3606611 -37.4301167 -15.1897842 0 0 Z " fill="#07869c" transform="translate(171,15)"/>
<path d="M0 0 C3.33094301 3.15058738 5.77090509 6.10873491 8.0625 10.0625 C11.60052183 15.23228189 14.78754179 16.43414895 20.69921875 18.0390625 C33.07378112 21.64159782 46.55094875 30.08803882 55 40 C55 40.66 55 41.32 55 42 C55.66 42 56.32 42 57 42 C58.40112305 43.55371094 58.40112305 43.55371094 60.01171875 45.734375 C60.60154541 46.53012939 61.19137207 47.32588379 61.79907227 48.14575195 C62.42225342 49.00515381 63.04543457 49.86455566 63.6875 50.75 C64.32163818 51.62164795 64.95577637 52.4932959 65.60913086 53.39135742 C82.03720184 76.19885162 89.21085048 101.0561071 85.53125 129.17578125 C84.8664592 132.85983029 84.01517659 136.39689217 83 140 C82.80664062 140.69367676 82.61328125 141.38735352 82.4140625 142.10205078 C77.78537058 158.29890096 70.45769932 172.76864762 60 186 C59.27167969 186.95390625 58.54335937 187.9078125 57.79296875 188.890625 C53.7509535 194.10518882 53.7509535 194.10518882 52 196 C51.34 196 50.68 196 50 196 C49.34 197.32 48.68 198.64 48 200 C46.35 199.34 44.7 198.68 43 198 C43 197.34 43 196.68 43 196 C38.63997453 196 38.53691786 196.01548523 35.6875 198.8125 C19.7001249 213.44050494 -1.46116756 226.96981903 -22.875 231.625 C-27.22623735 230.75475253 -28.96108082 228.35320628 -31.9296875 225.17578125 C-37.46785804 219.35547749 -41.880755 216.28997304 -50 216 C-46.98509443 213.99006295 -44.7850073 213.27376659 -41.3125 212.375 C-40.31863281 212.11460937 -39.32476562 211.85421875 -38.30078125 211.5859375 C-37.54152344 211.39257812 -36.78226563 211.19921875 -36 211 C-36 210.34 -36 209.68 -36 209 C-35.36610352 208.70867187 -34.73220703 208.41734375 -34.07910156 208.1171875 C-22.49670532 202.76564082 -11.33220107 197.5433468 -1 190 C0.45986328 189.04287109 0.45986328 189.04287109 1.94921875 188.06640625 C5.0301561 185.97957416 7.88174735 183.74408161 10.75 181.375 C11.69359375 180.59898437 12.6371875 179.82296875 13.609375 179.0234375 C15.99071009 177.06455625 15.99071009 177.06455625 18 175 C17.34 173.68 16.68 172.36 16 171 C15.34 171 14.68 171 14 171 C12.80994459 169.84394617 11.62597834 168.68084295 10.4765625 167.484375 C8.38991942 165.38669148 6.14009085 163.50803684 3.8828125 161.59765625 C1.92624268 159.9374134 -0.00777309 158.25384888 -1.9375 156.5625 C-2.60136719 155.98113281 -3.26523438 155.39976562 -3.94921875 154.80078125 C-5.34954668 153.57115996 -6.74789984 152.33928703 -8.14453125 151.10546875 C-8.83933594 150.49316406 -9.53414062 149.88085938 -10.25 149.25 C-10.87390625 148.69828125 -11.4978125 148.1465625 -12.140625 147.578125 C-14.0155897 145.93947553 -14.0155897 145.93947553 -16.234375 144.421875 C-17.10835938 143.71804687 -17.10835938 143.71804687 -18 143 C-18 142.34 -18 141.68 -18 141 C-18.61875 140.690625 -19.2375 140.38125 -19.875 140.0625 C-21.25 139.375 -22.625 138.6875 -24 138 C-24 137.34 -24 136.68 -24 136 C-25.11375 135.6596875 -25.11375 135.6596875 -26.25 135.3125 C-29.54315164 133.74076853 -30.77478157 131.85106111 -33 129 C-34.65661761 127.98343919 -36.32111559 126.97934924 -38 126 C-38 125.34 -38 124.68 -38 124 C-38.598125 123.71125 -39.19625 123.4225 -39.8125 123.125 C-42 122 -42 122 -45 120 C-45 119.34 -45 118.68 -45 118 C-46.2065625 117.5978125 -46.2065625 117.5978125 -47.4375 117.1875 C-48.283125 116.795625 -49.12875 116.40375 -50 116 C-50.33 115.01 -50.66 114.02 -51 113 C-56.97374641 112.94461232 -62.85100522 113.11497827 -68.8046875 113.5859375 C-69.60931427 113.64778229 -70.41394104 113.70962708 -71.24295044 113.77334595 C-72.93212694 113.90439092 -74.62116322 114.03725525 -76.31005859 114.171875 C-78.86118315 114.3739058 -81.41292113 114.56616031 -83.96484375 114.7578125 C-91.58738083 115.3480281 -99.05204907 116.04083495 -106.55712891 117.55371094 C-110.92165088 118.35106714 -115.32956633 118.61432904 -119.75 118.9375 C-128.97805476 119.66637101 -138.12378019 120.71646936 -147.28613281 122.03491211 C-152.5877224 122.77665703 -157.64602525 123.13776309 -163 123 C-161.5234898 139.18277244 -160.11232449 154.17465108 -152.625 168.8125 C-152.08875 169.864375 -151.5525 170.91625 -151 172 C-151.495 172.99 -151.495 172.99 -152 174 C-155.50505383 169.20564223 -157.62275916 164.38784319 -159.625 158.8125 C-160.08338257 157.53850342 -160.08338257 157.53850342 -160.55102539 156.23876953 C-163.7859649 147.0360305 -165.09501589 138.88997537 -165.03515625 129.1640625 C-165.03261841 128.37749268 -165.03008057 127.59092285 -165.02746582 126.78051758 C-165.02088205 124.85366788 -165.01079494 122.9268307 -165 121 C-163.73518799 120.85900879 -162.47037598 120.71801758 -161.16723633 120.57275391 C-156.41627893 120.04242694 -151.66572765 119.50853338 -146.9152832 118.97363281 C-144.87014272 118.74383813 -142.82489734 118.51497488 -140.77954102 118.28710938 C-121.03832407 116.86714499 -121.03832407 116.86714499 -102.25 111.5625 C-88.6307185 105.9486986 -71.60819772 105.21586215 -57 106 C-58.96382007 107.50559539 -60.78263366 108.89131683 -63 110 C-57.06 109.505 -57.06 109.505 -51 109 C-51.66 108.01 -52.32 107.02 -53 106 C-52.63713426 102.92486661 -51.38631674 100.79559536 -49.6875 98.25 C-47.1301187 94.29498008 -45.04485609 90.24118299 -43 86 C-42.34 86 -41.68 86 -41 86 C-40.90203125 85.40832031 -40.8040625 84.81664063 -40.703125 84.20703125 C-39.71771646 78.99965682 -38.53343696 76.05306004 -35 72 C-32.17665837 67.45857839 -30.58421814 62.75035298 -29.125 57.625 C-27.56896059 52.31109467 -25.52814167 48.0130721 -22.46484375 43.4140625 C-20.99689723 40.99488663 -19.93687136 38.52834369 -18.85522461 35.91894531 C-17.25765641 32.33433611 -15.25507419 28.96852479 -13.3125 25.5625 C-8.58564383 17.1772705 -4.21898131 8.65009017 0 0 Z " fill="#2c93a6" transform="translate(172,16)"/>
<path d="M0 0 C0.33 0.66 0.66 1.32 1 2 C-0.04188565 4.61385347 -1.14919854 7.09803586 -2.375 9.625 C-2.73787109 10.38482178 -3.10074219 11.14464355 -3.47460938 11.92749023 C-6.3026998 17.76314604 -9.40263266 23.41055476 -12.63110352 29.03198242 C-22.25685785 45.63958187 -22.25685785 45.63958187 -28.9375 63.5 C-30.3228678 68.06356452 -32.5734673 71.91564535 -35 76 C-35.66 76 -36.32 76 -37 76 C-37.4640625 77.8871875 -37.4640625 77.8871875 -37.9375 79.8125 C-38.53978048 82.26177394 -39.20088641 84.60265923 -40 87 C-40.66 87 -41.32 87 -42 87 C-42.226875 87.804375 -42.45375 88.60875 -42.6875 89.4375 C-44.61280738 94.66333431 -47.02651676 100.02651676 -51 104 C-50.73323796 105.98491642 -50.73323796 105.98491642 -50 108 C-49.67 108.99 -49.34 109.98 -49 111 C-53.95 111.33 -58.9 111.66 -64 112 C-60 109 -60 109 -58 108 C-58.66 107.34 -59.32 106.68 -60 106 C-58.02 106 -56.04 106 -54 106 C-54 105.34 -54 104.68 -54 104 C-81.80809275 106.37778687 -109.52016555 109.36420085 -137.22558594 112.71313477 C-138.48616821 112.86414139 -139.74675049 113.01514801 -141.04553223 113.17073059 C-143.41666725 113.45509388 -145.7873866 113.74295366 -148.15759277 114.03495789 C-153.47936718 114.67235816 -158.63967987 115.17056435 -164 115 C-165.91119091 91.30123274 -151.31979146 66.55618672 -136.546875 49.1015625 C-132.84379598 44.92027129 -129.00055945 40.897981 -125 37 C-124.51144531 36.45472656 -124.02289063 35.90945312 -123.51953125 35.34765625 C-95.67628247 5.29169895 -39.64881378 -13.89620805 0 0 Z " fill="#42a0b1" transform="translate(171,15)"/>
<path d="M0 0 C3.33094301 3.15058738 5.77090509 6.10873491 8.0625 10.0625 C11.60052183 15.23228189 14.78754179 16.43414895 20.69921875 18.0390625 C33.07378112 21.64159782 46.55094875 30.08803882 55 40 C55 40.66 55 41.32 55 42 C55.66 42 56.32 42 57 42 C58.40112305 43.55371094 58.40112305 43.55371094 60.01171875 45.734375 C60.60154541 46.53012939 61.19137207 47.32588379 61.79907227 48.14575195 C62.42225342 49.00515381 63.04543457 49.86455566 63.6875 50.75 C64.32163818 51.62164795 64.95577637 52.4932959 65.60913086 53.39135742 C82.03720184 76.19885162 89.21085048 101.0561071 85.53125 129.17578125 C84.8664592 132.85983029 84.01517659 136.39689217 83 140 C82.80664062 140.69367676 82.61328125 141.38735352 82.4140625 142.10205078 C77.78537058 158.29890096 70.45769932 172.76864762 60 186 C59.27167969 186.95390625 58.54335937 187.9078125 57.79296875 188.890625 C53.7509535 194.10518882 53.7509535 194.10518882 52 196 C51.34 196 50.68 196 50 196 C49.34 197.32 48.68 198.64 48 200 C44.06576984 198.68858995 43.49545868 197.00101263 41.375 193.5 C39.43360274 190.06452343 39.43360274 190.06452343 37 187 C36.42127286 182.90671114 36.80439385 181.2937688 39.125 177.80859375 C40.07098558 176.67448129 41.03006807 175.55120187 42 174.4375 C46.7869306 168.69318328 50.72207921 162.83138798 54.44140625 156.3515625 C54.95574219 155.57554687 55.47007812 154.79953125 56 154 C56.66 154 57.32 154 58 154 C59.46939453 149.69677317 60.77443263 145.37702633 62 141 C62.66 141 63.32 141 64 141 C64.103125 140.05125 64.20625 139.1025 64.3125 138.125 C64.87590079 134.13290298 66.03303711 130.41336228 67.23828125 126.57421875 C68.2010552 123.32053652 68.90407869 120.04016862 69.5703125 116.71484375 C70 115 70 115 71 114 C71.21973262 109.69176352 71.18578803 105.37773368 71.18530273 101.06445312 C71.18747015 98.90474173 71.20556555 96.7455571 71.22460938 94.5859375 C71.22754717 93.20052257 71.22952938 91.81510522 71.23046875 90.4296875 C71.23457764 89.17397949 71.23868652 87.91827148 71.24291992 86.62451172 C70.98785103 82.81873 70.17067785 79.62106059 69 76 C68.66742188 74.90300781 68.33484375 73.80601563 67.9921875 72.67578125 C62.8045715 57.0585177 53.16033046 44.69531671 40.43359375 34.375 C39.96050781 33.92125 39.48742187 33.4675 39 33 C39 32.34 39 31.68 39 31 C38.01 31 37.02 31 36 31 C36 30.34 36 29.68 36 29 C35.14664063 28.73574219 34.29328125 28.47148438 33.4140625 28.19921875 C28.75517024 26.56274286 24.43950834 24.3422728 20.0234375 22.14453125 C17.23341096 20.88593786 17.23341096 20.88593786 15.04077148 20.99438477 C11.74532943 22.61825434 10.7829319 25.74548645 9.32421875 28.9453125 C8.62024484 30.42020176 7.91495637 31.89446414 7.20849609 33.36816406 C6.84544373 34.1350354 6.48239136 34.90190674 6.1083374 35.6920166 C4.34092881 39.3724389 2.46134107 42.99298406 0.58203125 46.6171875 C-0.19608577 48.12635738 -0.97382838 49.63572036 -1.7512207 51.14526367 C-2.14830231 51.91566986 -2.54538391 52.68607605 -2.95449829 53.47982788 C-6.50616371 60.37912893 -10.03622712 67.28953122 -13.56774902 74.19915771 C-14.53875951 76.09801991 -15.51054532 77.9964858 -16.48303223 79.89459229 C-19.46536814 85.71557348 -22.43523326 91.54260626 -25.3878479 97.37872314 C-26.335079 99.24623928 -27.28653823 101.11161704 -28.24227905 102.97479248 C-29.5752201 105.57527278 -30.89287755 108.18295573 -32.20703125 110.79296875 C-32.60806061 111.56723709 -33.00908997 112.34150543 -33.42227173 113.13923645 C-35.45189656 116.93549722 -35.45189656 116.93549722 -35.72367859 121.1073761 C-34.61877031 123.99702331 -32.62204325 125.19915145 -30.1875 127.0625 C-25.95740329 130.39513764 -21.93209002 133.82217314 -18 137.5 C-13.39121816 141.79083235 -8.62205171 145.80420228 -3.71484375 149.75390625 C0.06148208 152.8782046 3.63748155 156.20392377 7.23828125 159.52734375 C9.97994635 161.98204532 12.80472155 164.27615847 15.6875 166.5625 C20.71215321 170.63923991 24.93270565 174.97756803 29 180 C29.83402344 181.00933594 30.66804687 182.01867187 31.52734375 183.05859375 C32.37482915 184.12045833 33.21991492 185.18424286 34.0625 186.25 C34.83722656 187.22453125 35.61195313 188.1990625 36.41015625 189.203125 C38 192 38 192 38.18359375 194.421875 C35.09417318 201.15130595 28.17113925 205.67171042 22.25 209.8125 C21.52192139 210.32240479 20.79384277 210.83230957 20.04370117 211.35766602 C-11.25851877 232.77462428 -11.25851877 232.77462428 -26 231 C-28.0546875 229.4609375 -28.0546875 229.4609375 -29.875 227.375 C-36.04744522 220.76837137 -40.69681727 216.33225653 -50 216 C-46.98509443 213.99006295 -44.7850073 213.27376659 -41.3125 212.375 C-40.31863281 212.11460937 -39.32476562 211.85421875 -38.30078125 211.5859375 C-37.54152344 211.39257812 -36.78226563 211.19921875 -36 211 C-36 210.34 -36 209.68 -36 209 C-35.36610352 208.70867187 -34.73220703 208.41734375 -34.07910156 208.1171875 C-22.49670532 202.76564082 -11.33220107 197.5433468 -1 190 C0.45986328 189.04287109 0.45986328 189.04287109 1.94921875 188.06640625 C5.0301561 185.97957416 7.88174735 183.74408161 10.75 181.375 C11.69359375 180.59898437 12.6371875 179.82296875 13.609375 179.0234375 C15.99071009 177.06455625 15.99071009 177.06455625 18 175 C17.34 173.68 16.68 172.36 16 171 C15.34 171 14.68 171 14 171 C12.80994459 169.84394617 11.62597834 168.68084295 10.4765625 167.484375 C8.38991942 165.38669148 6.14009085 163.50803684 3.8828125 161.59765625 C1.92624268 159.9374134 -0.00777309 158.25384888 -1.9375 156.5625 C-2.60136719 155.98113281 -3.26523438 155.39976562 -3.94921875 154.80078125 C-5.34954668 153.57115996 -6.74789984 152.33928703 -8.14453125 151.10546875 C-8.83933594 150.49316406 -9.53414062 149.88085938 -10.25 149.25 C-10.87390625 148.69828125 -11.4978125 148.1465625 -12.140625 147.578125 C-14.0155897 145.93947553 -14.0155897 145.93947553 -16.234375 144.421875 C-17.10835938 143.71804687 -17.10835938 143.71804687 -18 143 C-18 142.34 -18 141.68 -18 141 C-18.61875 140.690625 -19.2375 140.38125 -19.875 140.0625 C-21.25 139.375 -22.625 138.6875 -24 138 C-24 137.34 -24 136.68 -24 136 C-25.11375 135.6596875 -25.11375 135.6596875 -26.25 135.3125 C-29.54315164 133.74076853 -30.77478157 131.85106111 -33 129 C-34.65661761 127.98343919 -36.32111559 126.97934924 -38 126 C-38 125.34 -38 124.68 -38 124 C-38.598125 123.71125 -39.19625 123.4225 -39.8125 123.125 C-42 122 -42 122 -45 120 C-45 119.34 -45 118.68 -45 118 C-46.2065625 117.5978125 -46.2065625 117.5978125 -47.4375 117.1875 C-48.283125 116.795625 -49.12875 116.40375 -50 116 C-50.33 115.01 -50.66 114.02 -51 113 C-56.97374641 112.94461232 -62.85100522 113.11497827 -68.8046875 113.5859375 C-69.60931427 113.64778229 -70.41394104 113.70962708 -71.24295044 113.77334595 C-72.93212694 113.90439092 -74.62116322 114.03725525 -76.31005859 114.171875 C-78.86118315 114.3739058 -81.41292113 114.56616031 -83.96484375 114.7578125 C-91.58738083 115.3480281 -99.05204907 116.04083495 -106.55712891 117.55371094 C-110.92165088 118.35106714 -115.32956633 118.61432904 -119.75 118.9375 C-128.97805476 119.66637101 -138.12378019 120.71646936 -147.28613281 122.03491211 C-152.5877224 122.77665703 -157.64602525 123.13776309 -163 123 C-161.5234898 139.18277244 -160.11232449 154.17465108 -152.625 168.8125 C-152.08875 169.864375 -151.5525 170.91625 -151 172 C-151.495 172.99 -151.495 172.99 -152 174 C-155.50505383 169.20564223 -157.62275916 164.38784319 -159.625 158.8125 C-160.08338257 157.53850342 -160.08338257 157.53850342 -160.55102539 156.23876953 C-163.7859649 147.0360305 -165.09501589 138.88997537 -165.03515625 129.1640625 C-165.03261841 128.37749268 -165.03008057 127.59092285 -165.02746582 126.78051758 C-165.02088205 124.85366788 -165.01079494 122.9268307 -165 121 C-163.73518799 120.85900879 -162.47037598 120.71801758 -161.16723633 120.57275391 C-156.41627893 120.04242694 -151.66572765 119.50853338 -146.9152832 118.97363281 C-144.87014272 118.74383813 -142.82489734 118.51497488 -140.77954102 118.28710938 C-121.03832407 116.86714499 -121.03832407 116.86714499 -102.25 111.5625 C-88.6307185 105.9486986 -71.60819772 105.21586215 -57 106 C-58.96382007 107.50559539 -60.78263366 108.89131683 -63 110 C-57.06 109.505 -57.06 109.505 -51 109 C-51.66 108.01 -52.32 107.02 -53 106 C-52.63713426 102.92486661 -51.38631674 100.79559536 -49.6875 98.25 C-47.1301187 94.29498008 -45.04485609 90.24118299 -43 86 C-42.34 86 -41.68 86 -41 86 C-40.90203125 85.40832031 -40.8040625 84.81664063 -40.703125 84.20703125 C-39.71771646 78.99965682 -38.53343696 76.05306004 -35 72 C-32.17665837 67.45857839 -30.58421814 62.75035298 -29.125 57.625 C-27.56896059 52.31109467 -25.52814167 48.0130721 -22.46484375 43.4140625 C-20.99689723 40.99488663 -19.93687136 38.52834369 -18.85522461 35.91894531 C-17.25765641 32.33433611 -15.25507419 28.96852479 -13.3125 25.5625 C-8.58564383 17.1772705 -4.21898131 8.65009017 0 0 Z " fill="#55adbb" transform="translate(172,16)"/>
<path d="M0 0 C3.30429508 3.17895975 6.14348721 6.35362972 8.75 10.125 C9.34296875 10.97320312 9.9359375 11.82140625 10.546875 12.6953125 C12 15 12 15 13 18 C11.89677429 20.81445312 11.89677429 20.81445312 10.15112305 24.28125 C9.67800438 25.23099197 9.67800438 25.23099197 9.19532776 26.19992065 C8.14365926 28.30487927 7.07784405 30.40233126 6.01171875 32.5 C5.27113895 33.97436131 4.53139085 35.44914065 3.79243469 36.92431641 C1.83403315 40.82766609 -0.13662575 44.72470701 -2.10955811 48.62072754 C-3.6885112 51.74370433 -5.25886169 54.87096303 -6.828722 57.99851799 C-14.14041147 72.56478105 -21.47871471 87.11479131 -29.14135742 101.50048828 C-32.36424931 107.56865226 -35.50102279 113.59637089 -38 120 C-38.33 119.34 -38.66 118.68 -39 118 C-39.66 118 -40.32 118 -41 118 C-41.99 115.03 -41.99 115.03 -43 112 C-43.66 112 -44.32 112 -45 112 C-45.68206723 110.80029246 -46.34490897 109.58964795 -47 108.375 C-47.37125 107.70210938 -47.7425 107.02921875 -48.125 106.3359375 C-49.7248775 102.06483595 -49.40161003 98.98251025 -47.6875 94.7890625 C-46.8521875 93.22285156 -46.8521875 93.22285156 -46 91.625 C-45.443125 90.56539063 -44.88625 89.50578125 -44.3125 88.4140625 C-43.879375 87.61742188 -43.44625 86.82078125 -43 86 C-42.34 86 -41.68 86 -41 86 C-40.90203125 85.40832031 -40.8040625 84.81664063 -40.703125 84.20703125 C-39.71771646 78.99965682 -38.53343696 76.05306004 -35 72 C-32.17665837 67.45857839 -30.58421814 62.75035298 -29.125 57.625 C-27.56896059 52.31109467 -25.52814167 48.0130721 -22.46484375 43.4140625 C-20.99689723 40.99488663 -19.93687136 38.52834369 -18.85522461 35.91894531 C-17.25765641 32.33433611 -15.25507419 28.96852479 -13.3125 25.5625 C-8.58564383 17.1772705 -4.21898131 8.65009017 0 0 Z " fill="#9ce3e8" transform="translate(172,16)"/>
<path d="M0 0 C3.30497432 1.04018165 4.11152061 2.1766469 6 5.16796875 C6.68353934 6.49928377 7.34929764 7.83983084 8 9.1875 C8.52219116 10.25085571 8.52219116 10.25085571 9.05493164 11.33569336 C18.65480464 31.62107238 20.06320665 56.48020974 14 78 C13.70996094 79.04051514 13.70996094 79.04051514 13.4140625 80.10205078 C8.78537058 96.29890096 1.45769932 110.76864762 -9 124 C-9.72832031 124.95390625 -10.45664063 125.9078125 -11.20703125 126.890625 C-15.2490465 132.10518882 -15.2490465 132.10518882 -17 134 C-17.66 134 -18.32 134 -19 134 C-19.99 135.98 -19.99 135.98 -21 138 C-24.86804053 136.71065316 -25.48143909 135.16145439 -27.625 131.75 C-28.23601562 130.79609375 -28.84703125 129.8421875 -29.4765625 128.859375 C-32.071586 123.98871551 -32.071586 123.98871551 -32 121 C-30.43137499 118.23978553 -28.43665259 115.9044678 -26.375 113.5 C-25.84003906 112.84902344 -25.30507812 112.19804687 -24.75390625 111.52734375 C-22.37420087 108.66127523 -19.97227644 105.9730777 -17.296875 103.375 C-14.8908106 100.88709668 -13.45251533 98.56882764 -11.875 95.5 C-10.43645945 92.73178143 -9.00337191 90.00560343 -7.39453125 87.33203125 C-5.97321998 84.95521661 -4.96279197 82.59213222 -4 80 C-3.34 80 -2.68 80 -2 80 C-1.87625 78.948125 -1.7525 77.89625 -1.625 76.8125 C-1.07600033 73.46360201 -0.25612966 71.10337915 1 68 C2.82925206 61.49988009 3.37947095 55.17229538 3.5546875 48.4453125 C3.58354034 47.46311737 3.61239319 46.48092224 3.64212036 45.46896362 C3.69885225 43.40342676 3.75068917 41.33775017 3.79785156 39.27197266 C3.8746349 36.13989266 3.98362943 33.00996831 4.09375 29.87890625 C4.37835348 19.7804174 4.55563675 11.26557325 0 2 C0 1.34 0 0.68 0 0 Z " fill="#adf1f3" transform="translate(241,78)"/>
<path d="M0 0 C16.14896532 1.79887209 32.09785956 12.25273239 43 24 C43 24.66 43 25.32 43 26 C43.66 26 44.32 26 45 26 C46.51220703 27.74414062 46.51220703 27.74414062 48.2578125 30.15625 C48.88300781 31.01347656 49.50820312 31.87070312 50.15234375 32.75390625 C50.80332031 33.66011719 51.45429688 34.56632812 52.125 35.5 C52.78371094 36.40621094 53.44242188 37.31242187 54.12109375 38.24609375 C55.75324326 40.49325613 57.37920016 42.74464472 59 45 C58.01 45.495 58.01 45.495 57 46 C57.3609375 46.67160156 57.721875 47.34320313 58.09375 48.03515625 C62.85765448 58.29078395 62.5346364 67.81497498 62.11474609 78.91992188 C62.00024467 81.99343238 61.92852745 85.06571389 61.86328125 88.140625 C61.5152257 101.36419582 60.41858587 113.74928413 55 126 C54.01 126.495 54.01 126.495 53 127 C52.28887384 128.62543123 51.58446003 130.25420014 50.91796875 131.8984375 C49.23442461 135.75267898 47.09039552 139.35556044 45 143 C44.2575 144.36125 44.2575 144.36125 43.5 145.75 C42 148 42 148 39.76953125 150.18359375 C36.62802852 153.37826718 33.92024729 156.76977955 31.1875 160.3125 C30.68541016 160.95767578 30.18332031 161.60285156 29.66601562 162.26757812 C28.44094319 163.84267125 27.2200368 165.42100316 26 167 C26 162.95497068 28.0510582 161.11396713 30.5 158.125 C35.01460735 152.47770415 38.79301288 146.64324615 42.40625 140.38671875 C42.9321875 139.59910156 43.458125 138.81148437 44 138 C44.66 138 45.32 138 46 138 C47.46939453 133.69677317 48.77443263 129.37702633 50 125 C50.66 125 51.32 125 52 125 C52.1546875 123.576875 52.1546875 123.576875 52.3125 122.125 C52.87590079 118.13290298 54.03303711 114.41336228 55.23828125 110.57421875 C56.2010552 107.32053652 56.90407869 104.04016862 57.5703125 100.71484375 C58 99 58 99 59 98 C59.21973262 93.69176352 59.18578803 89.37773368 59.18530273 85.06445312 C59.18747015 82.90474173 59.20556555 80.7455571 59.22460938 78.5859375 C59.22754717 77.20052257 59.22952938 75.81510522 59.23046875 74.4296875 C59.23457764 73.17397949 59.23868652 71.91827148 59.24291992 70.62451172 C58.98785103 66.81873 58.17067785 63.62106059 57 60 C56.50113281 58.35451172 56.50113281 58.35451172 55.9921875 56.67578125 C50.8045715 41.0585177 41.16033046 28.69531671 28.43359375 18.375 C27.96050781 17.92125 27.48742187 17.4675 27 17 C27 16.34 27 15.68 27 15 C26.01 15 25.02 15 24 15 C24 14.34 24 13.68 24 13 C22.71996094 12.60361328 22.71996094 12.60361328 21.4140625 12.19921875 C16.75517024 10.56274286 12.43950834 8.3422728 8.0234375 6.14453125 C5.23341096 4.88593786 5.23341096 4.88593786 3.04077148 4.99438477 C-0.25467057 6.61825434 -1.2170681 9.74548645 -2.67578125 12.9453125 C-3.37975516 14.42020176 -4.08504363 15.89446414 -4.79150391 17.36816406 C-5.15455627 18.1350354 -5.51760864 18.90190674 -5.8916626 19.6920166 C-7.65907119 23.3724389 -9.53865893 26.99298406 -11.41796875 30.6171875 C-12.19608577 32.12635738 -12.97382838 33.63572036 -13.7512207 35.14526367 C-14.14830231 35.91566986 -14.54538391 36.68607605 -14.95449829 37.47982788 C-18.50616371 44.37912893 -22.03622712 51.28953122 -25.56774902 58.19915771 C-26.53875951 60.09801991 -27.51054532 61.9964858 -28.48303223 63.89459229 C-31.46536814 69.71557348 -34.43523326 75.54260626 -37.3878479 81.37872314 C-38.335079 83.24623928 -39.28653823 85.11161704 -40.24227905 86.97479248 C-41.5752201 89.57527278 -42.89287755 92.18295573 -44.20703125 94.79296875 C-44.60806061 95.56723709 -45.00908997 96.34150543 -45.42227173 97.13923645 C-47.45189656 100.93549722 -47.45189656 100.93549722 -47.72367859 105.1073761 C-46.61877031 107.99702331 -44.62204325 109.19915145 -42.1875 111.0625 C-37.95740329 114.39513764 -33.93209002 117.82217314 -30 121.5 C-25.40481048 125.77817773 -20.65108429 129.78130681 -15.7578125 133.71875 C-11.01650467 137.64073834 -6.51298603 141.81872281 -2 146 C-5.72037796 146 -6.7759866 144.97835759 -9.75 142.8125 C-10.63429687 142.173125 -11.51859375 141.53375 -12.4296875 140.875 C-13.70199219 139.946875 -13.70199219 139.946875 -15 139 C-16.29118806 138.10347697 -17.5827843 137.20754118 -18.875 136.3125 C-21.53260455 134.34587264 -23.71327261 132.36558005 -26 130 C-26.7425 129.46375 -27.485 128.9275 -28.25 128.375 C-28.8275 127.92125 -29.405 127.4675 -30 127 C-30 126.34 -30 125.68 -30 125 C-30.61875 124.690625 -31.2375 124.38125 -31.875 124.0625 C-33.25 123.375 -34.625 122.6875 -36 122 C-36 121.34 -36 120.68 -36 120 C-36.7425 119.773125 -37.485 119.54625 -38.25 119.3125 C-41.54315164 117.74076853 -42.77478157 115.85106111 -45 113 C-46.65661761 111.98343919 -48.32111559 110.97934924 -50 110 C-50 109.34 -50 108.68 -50 108 C-50.598125 107.71125 -51.19625 107.4225 -51.8125 107.125 C-54 106 -54 106 -57 104 C-57 103.34 -57 102.68 -57 102 C-58.2065625 101.5978125 -58.2065625 101.5978125 -59.4375 101.1875 C-60.283125 100.795625 -61.12875 100.40375 -62 100 C-62.33 99.01 -62.66 98.02 -63 97 C-68.97374641 96.94461232 -74.85100522 97.11497827 -80.8046875 97.5859375 C-81.60931427 97.64778229 -82.41394104 97.70962708 -83.24295044 97.77334595 C-84.93212694 97.90439092 -86.62116322 98.03725525 -88.31005859 98.171875 C-90.86118315 98.3739058 -93.41292113 98.56616031 -95.96484375 98.7578125 C-103.58738083 99.3480281 -111.05204907 100.04083495 -118.55712891 101.55371094 C-122.92165088 102.35106714 -127.32956633 102.61432904 -131.75 102.9375 C-140.97805476 103.66637101 -150.12378019 104.71646936 -159.28613281 106.03491211 C-164.5877224 106.77665703 -169.64602525 107.13776309 -175 107 C-173.5234898 123.18277244 -172.11232449 138.17465108 -164.625 152.8125 C-164.08875 153.864375 -163.5525 154.91625 -163 156 C-163.495 156.99 -163.495 156.99 -164 158 C-167.50505383 153.20564223 -169.62275916 148.38784319 -171.625 142.8125 C-172.08338257 141.53850342 -172.08338257 141.53850342 -172.55102539 140.23876953 C-175.7859649 131.0360305 -177.09501589 122.88997537 -177.03515625 113.1640625 C-177.03261841 112.37749268 -177.03008057 111.59092285 -177.02746582 110.78051758 C-177.02088205 108.85366788 -177.01079494 106.9268307 -177 105 C-175.73518799 104.85900879 -174.47037598 104.71801758 -173.16723633 104.57275391 C-168.41627893 104.04242694 -163.66572765 103.50853338 -158.9152832 102.97363281 C-156.87014272 102.74383813 -154.82489734 102.51497488 -152.77954102 102.28710938 C-133.03832407 100.86714499 -133.03832407 100.86714499 -114.25 95.5625 C-100.6307185 89.9486986 -83.60819772 89.21586215 -69 90 C-70.96382007 91.50559539 -72.78263366 92.89131683 -75 94 C-69.06 93.505 -69.06 93.505 -63 93 C-63.66 92.01 -64.32 91.02 -65 90 C-64.8125 87.9375 -64.8125 87.9375 -64 86 C-63.01 85.34 -62.02 84.68 -61 84 C-59.18757677 88.0188515 -57.66498383 91.61110675 -57 96 C-56.34 96 -55.68 96 -55 96 C-53 99 -53 99 -53 102 C-52.01 102 -51.02 102 -50 102 C-49.525625 100.865625 -49.05125 99.73125 -48.5625 98.5625 C-46.19921118 93.23466159 -43.46990738 88.12143099 -40.70141602 82.99633789 C-37.53105173 77.09859562 -34.54031988 71.11524813 -31.55566406 65.12231445 C-28.97963389 59.95221008 -26.38486013 54.79156545 -23.79022217 49.63078308 C-21.52419715 45.12335587 -19.2620162 40.61400241 -17.00037766 36.10437298 C-15.31921856 32.75261771 -13.63651595 29.4016536 -11.95068359 26.05224609 C-10.29756705 22.76766629 -8.64831411 19.4811737 -7.00177002 16.19329453 C-6.37798294 14.94941154 -5.75278957 13.70623274 -5.12615967 12.46377945 C-4.25880438 10.74349498 -3.39683978 9.02049571 -2.53515625 7.29736328 C-2.044104 6.31970001 -1.55305176 5.34203674 -1.04711914 4.33474731 C0.1364071 2.12232311 0.1364071 2.12232311 0 0 Z " fill="#68bac6" transform="translate(184,32)"/>
<path d="M0 0 C1.4540625 1.2375 1.4540625 1.2375 2.9375 2.5 C3.5871875 3.05042969 4.236875 3.60085937 4.90625 4.16796875 C6.27234507 5.36330194 7.60814611 6.5944379 8.90625 7.86328125 C19.53415495 18.06198235 32.88659517 24.24330039 47 28 C48.79050781 28.47759766 48.79050781 28.47759766 50.6171875 28.96484375 C62.96961742 31.75120268 75.40797548 31.29371349 88 31 C87.67 31.66 87.34 32.32 87 33 C84.93359375 33.4140625 84.93359375 33.4140625 82.4375 33.625 C81.61121094 33.69976562 80.78492187 33.77453125 79.93359375 33.8515625 C79.29550781 33.90054688 78.65742187 33.94953125 78 34 C78 34.66 78 35.32 78 36 C81.3 36 84.6 36 88 36 C88 36.33 88 36.66 88 37 C86.35 37.33 84.7 37.66 83 38 C84.37798126 41.87644224 86.19239726 44.87896006 88.625 48.1875 C92 52.78163265 92 52.78163265 92 55 C93.98 55 95.96 55 98 55 C97.71601983 48.32646591 94.92194468 44.28922815 91 39 C91.99 39 92.98 39 94 39 C96.1875 42 96.1875 42 98 45 C98.66 44.01 99.32 43.02 100 42 C100.4021875 43.0828125 100.4021875 43.0828125 100.8125 44.1875 C102.52432636 48.31385071 102.52432636 48.31385071 105 52 C108.42360738 52.60624398 108.42360738 52.60624398 112.1875 52.3125 C114.09595703 52.24482422 114.09595703 52.24482422 116.04296875 52.17578125 C117.01878906 52.11777344 117.99460937 52.05976563 119 52 C100.78128307 61.98686548 73.0525939 57.10509341 54 52 C52.31861279 51.37138305 50.64313633 50.72272071 49 50 C49.495 49.01 49.495 49.01 50 48 C48.93448909 45.95607717 47.7722442 43.96200229 46.5625 42 C43 36.19960861 43 36.19960861 43 34 C43.92941406 34.144375 44.85882813 34.28875 45.81640625 34.4375 C47.05261719 34.623125 48.28882813 34.80875 49.5625 35 C51.38974609 35.2784375 51.38974609 35.2784375 53.25390625 35.5625 C56.87627848 35.98555077 60.35712046 36.07501425 64 36 C62.42025391 35.76216797 62.42025391 35.76216797 60.80859375 35.51953125 C40.64872186 32.32747307 23.40287199 25.83315255 8 12 C7.27296875 11.35546875 6.5459375 10.7109375 5.796875 10.046875 C2.99655031 7.42868525 1.24222405 5.7589687 0.0625 2.0625 C0.041875 1.381875 0.02125 0.70125 0 0 Z " fill="#79c8d1" transform="translate(26,196)"/>
<path d="M0 0 C1.78428569 2.19398856 3.43428717 4.38220857 5.0625 6.6875 C5.52205078 7.31333984 5.98160156 7.93917969 6.45507812 8.58398438 C11.04080435 15.01477519 11.04080435 15.01477519 11 19 C8.85909639 22.16560961 5.87894748 24.50588645 3 27 C2.35160156 27.598125 1.70320313 28.19625 1.03515625 28.8125 C-4.02217637 33.11485249 -8.43018258 33.97307452 -15 34 C-15 33.34 -15 32.68 -15 32 C-17.71224618 33.61268692 -20.37352812 35.24901874 -23 37 C-23.99 37 -24.98 37 -26 37 C-26 37.66 -26 38.32 -26 39 C-27.65 38.67 -29.3 38.34 -31 38 C-31 37.34 -31 36.68 -31 36 C-31.66 36 -32.32 36 -33 36 C-34.32421875 34.35546875 -34.32421875 34.35546875 -35.6875 32.1875 C-36.14511719 31.47980469 -36.60273438 30.77210938 -37.07421875 30.04296875 C-38 28 -38 28 -37 25 C-34.83984375 23.59765625 -34.83984375 23.59765625 -31.9375 22.0625 C-26.55144659 19.03445562 -21.61784317 15.65958946 -16.6875 11.9375 C-16.03064209 11.4432251 -15.37378418 10.9489502 -14.69702148 10.43969727 C-10.80660835 7.47489523 -7.08629596 4.3830934 -3.45629883 1.10375977 C-2 0 -2 0 0 0 Z " fill="#beffff" transform="translate(199,193)"/>
<path d="M0 0 C0 0.66 0 1.32 0 2 C-1.68403931 2.18006592 -1.68403931 2.18006592 -3.40209961 2.36376953 C-7.65584653 2.82416643 -11.90614832 3.31173 -16.15600586 3.80664062 C-17.97909312 4.01530435 -19.80298792 4.2170548 -21.62768555 4.41113281 C-31.9991515 5.51940293 -41.4344223 7.13736084 -51.19500732 10.87875366 C-56.9773283 13.08396143 -62.51662495 14.17835124 -68.6875 14.75 C-69.68644287 14.85868408 -70.68538574 14.96736816 -71.71459961 15.0793457 C-74.80792675 15.40883696 -77.90301239 15.707121 -81 16 C-83.05992219 16.20676882 -85.11981838 16.41379691 -87.1796875 16.62109375 C-102.66275503 18.12942223 -102.66275503 18.12942223 -110 18 C-109.51586331 31.78954857 -107.83963019 44.46369587 -103.0625 57.5 C-102.70152222 58.48818726 -102.70152222 58.48818726 -102.33325195 59.49633789 C-101.10013415 62.69802411 -99.73427174 65.39787679 -97.82421875 68.2578125 C-95.69705227 71.45539467 -95.64161383 73.23694523 -96 77 C-110.32589499 60.53778734 -111.66352567 37.66372049 -111 17 C-111 16.34 -111 15.68 -111 15 C-111 12.33333333 -111 9.66666667 -111 7 C-110.67 8.32 -110.34 9.64 -110 11 C-108.79730469 10.84442627 -107.59460938 10.68885254 -106.35546875 10.52856445 C-83.91960456 7.63580218 -61.47464866 4.84026576 -38.97851562 2.45443726 C-36.9304012 2.23703052 -34.88254117 2.01721197 -32.83496094 1.79483032 C-21.84609727 0.60642666 -11.0670162 -0.3604968 0 0 Z " fill="#8ad6dc" transform="translate(117,119)"/>
<path d="M0 0 C4.31035211 0.47208618 6.77138396 3.25603787 9.75 6.125 C10.82488086 7.13609744 11.90040175 8.14651491 12.9765625 9.15625 C13.49637695 9.64738281 14.01619141 10.13851562 14.55175781 10.64453125 C16.37246646 12.3486065 18.23931631 13.99330636 20.125 15.625 C24.00544225 18.9869698 27.80734397 22.43220461 31.60546875 25.88671875 C33.28423586 27.36830604 35.02301655 28.78331393 36.80078125 30.14453125 C37.52652344 30.75683594 38.25226563 31.36914062 39 32 C39 32.66 39 33.32 39 34 C39.556875 34.226875 40.11375 34.45375 40.6875 34.6875 C43.67204749 36.38143236 45.62654045 38.51614698 48 41 C53.60611862 46.75726397 59.50308854 52.06793474 65.66015625 57.23046875 C66.55605469 58.00003906 67.45195312 58.76960938 68.375 59.5625 C69.62410156 60.61630859 69.62410156 60.61630859 70.8984375 61.69140625 C73.33879952 64.37217569 73.96887108 66.55549605 75 70 C76.46470715 72.55501998 76.46470715 72.55501998 78.125 74.875 C78.66382813 75.65617187 79.20265625 76.43734375 79.7578125 77.2421875 C80.16773438 77.82226562 80.57765625 78.40234375 81 79 C80.01 79.495 80.01 79.495 79 80 C79 79.34 79 78.68 79 78 C77.68 78 76.36 78 75 78 C74.76667969 77.46890625 74.53335938 76.9378125 74.29296875 76.390625 C72.60487486 73.2694363 70.48868512 70.53899562 68.3125 67.75 C67.8597168 67.16935791 67.40693359 66.58871582 66.94042969 65.99047852 C65.63247857 64.32253872 64.31695662 62.66083156 63 61 C62.43152344 60.27167969 61.86304688 59.54335937 61.27734375 58.79296875 C56.20248196 52.62785533 49.98043357 47.68345076 43.88037109 42.57763672 C40.81952589 40.00957885 37.78417161 37.41197058 34.75 34.8125 C34.16492676 34.31226318 33.57985352 33.81202637 32.97705078 33.29663086 C29.54200023 30.35140205 26.1594686 27.3580828 22.8125 24.3125 C18.54070158 20.43351063 14.11330495 16.78196375 9.62890625 13.15234375 C6.00849313 10.18823137 2.4929259 7.11260732 -1 4 C-0.67 2.68 -0.34 1.36 0 0 Z " fill="#8ad6dc" transform="translate(136,134)"/>
<path d="M0 0 C3.44279374 0.5688094 4.98516806 1.61913461 7.25 4.25 C7.77078125 4.83265625 8.2915625 5.4153125 8.828125 6.015625 C10.38736985 8.65594628 10.51330522 9.96969813 10 13 C8.1015625 15.89453125 8.1015625 15.89453125 5.625 18.8125 C4.81289062 19.78832031 4.00078125 20.76414063 3.1640625 21.76953125 C2.44992188 22.50558594 1.73578125 23.24164063 1 24 C0.34 24 -0.32 24 -1 24 C-1.66 25.32 -2.32 26.64 -3 28 C-6.94875582 26.68374806 -7.54992713 24.94634602 -9.6875 21.4375 C-10.62142578 19.91962891 -10.62142578 19.91962891 -11.57421875 18.37109375 C-12.04472656 17.58863281 -12.51523438 16.80617187 -13 16 C-8.93866463 10.40636594 -4.6208599 5.14036486 0 0 Z " fill="#8ad6dc" transform="translate(223,188)"/>
<path d="M0 0 C4.12417063 1.6616804 7.06554039 4.62338018 10.25 7.625 C11.08144531 8.3984375 11.08144531 8.3984375 11.9296875 9.1875 C13.2902712 10.45425035 14.64565837 11.72657815 16 13 C5.41252569 23.62392 -6.37654205 33.44781073 -20 40 C-18.8905928 43.48670834 -17.73662334 46.77484237 -16 50 C-15.34 50 -14.68 50 -14 50 C-14 50.66 -14 51.32 -14 52 C-12.35 52.33 -10.7 52.66 -9 53 C-9 52.34 -9 51.68 -9 51 C-7.576875 50.319375 -7.576875 50.319375 -6.125 49.625 C-2.99686321 48.19761746 -2.99686321 48.19761746 -1 46 C-0.01 46 0.98 46 2 46 C2 46.66 2 47.32 2 48 C4.64 47.67 7.28 47.34 10 47 C5.22718417 52.12635774 0.7655334 54.27786423 -6 56 C-6.70125 56.2475 -7.4025 56.495 -8.125 56.75 C-10.97803924 57.13040523 -12.47288186 56.35842086 -15 55 C-16.99045033 51.95528572 -18.53344643 48.80794938 -20.15625 45.5546875 C-20.7646875 44.71164063 -21.373125 43.86859375 -22 43 C-24.64895853 42.50860811 -24.64895853 42.50860811 -27 43 C-23.57053229 39.35619056 -19.95660976 36.42799474 -15.91796875 33.48046875 C-13.78409881 31.89848056 -13.78409881 31.89848056 -11.3125 29.3125 C-9 27 -9 27 -6.703125 25.6328125 C-3.71708715 23.82910756 -1.12802845 21.78153111 1.5625 19.5625 C2.49191406 18.80066406 3.42132813 18.03882813 4.37890625 17.25390625 C6.70066458 15.2574017 8.87127498 13.19884772 11 11 C10.2059375 10.37351563 9.411875 9.74703125 8.59375 9.1015625 C7.5728125 8.28429687 6.551875 7.46703125 5.5 6.625 C4.4790625 5.81289062 3.458125 5.00078125 2.40625 4.1640625 C1.6121875 3.44992188 0.818125 2.73578125 0 2 C0 1.34 0 0.68 0 0 Z " fill="#8ad6dc" transform="translate(182,179)"/>
<path d="M0 0 C1.96301592 3.50538557 2.95902388 7.13351728 4 11 C3.67 11.33 3.34 11.66 3 12 C4.34664973 13.25809453 5.70277696 14.50604637 7.0625 15.75 C7.81660156 16.44609375 8.57070312 17.1421875 9.34765625 17.859375 C11.86311149 19.88952149 14.43350443 21.38219429 17.25756836 22.93701172 C20.09021739 24.66509829 22.36022251 26.90004724 24.75 29.1875 C28.57949035 32.79991957 32.45603845 36.26088141 36.5625 39.5625 C41.34363888 43.41359025 45.88797511 47.47026447 50.40625 51.625 C53.885275 54.81061325 57.43311043 57.91346518 61 61 C57.27962204 61 56.2240134 59.97835759 53.25 57.8125 C52.36570312 57.173125 51.48140625 56.53375 50.5703125 55.875 C49.72210938 55.25625 48.87390625 54.6375 48 54 C46.70881194 53.10347697 45.4172157 52.20754118 44.125 51.3125 C41.46739545 49.34587264 39.28672739 47.36558005 37 45 C36.2575 44.46375 35.515 43.9275 34.75 43.375 C34.1725 42.92125 33.595 42.4675 33 42 C33 41.34 33 40.68 33 40 C32.38125 39.690625 31.7625 39.38125 31.125 39.0625 C29.75 38.375 28.375 37.6875 27 37 C27 36.34 27 35.68 27 35 C26.2575 34.773125 25.515 34.54625 24.75 34.3125 C21.45684836 32.74076853 20.22521843 30.85106111 18 28 C16.34338239 26.98343919 14.67888441 25.97934924 13 25 C13 24.34 13 23.68 13 23 C12.401875 22.71125 11.80375 22.4225 11.1875 22.125 C9 21 9 21 6 19 C6 18.34 6 17.68 6 17 C5.195625 16.731875 4.39125 16.46375 3.5625 16.1875 C2.716875 15.795625 1.87125 15.40375 1 15 C0.67 14.01 0.34 13.02 0 12 C-6.21208953 11.95025354 -12.36273111 12.12240091 -18.5625 12.5 C-19.38041016 12.54769531 -20.19832031 12.59539062 -21.04101562 12.64453125 C-23.0274809 12.76069881 -25.01376186 12.8800115 -27 13 C-24.41541204 10.41541204 -22.93635461 10.54848385 -19.3359375 10.1484375 C-17.65371094 9.95507812 -17.65371094 9.95507812 -15.9375 9.7578125 C-14.761875 9.63148437 -13.58625 9.50515625 -12.375 9.375 C-11.19164063 9.2409375 -10.00828125 9.106875 -8.7890625 8.96875 C-5.86015366 8.63806674 -2.9305765 8.31550327 0 8 C-0.66 7.01 -1.32 6.02 -2 5 C-1.48275862 1.48275862 -1.48275862 1.48275862 0 0 Z " fill="#8ad6dc" transform="translate(121,117)"/>
<path d="M0 0 C1.4540625 1.2375 1.4540625 1.2375 2.9375 2.5 C3.5871875 3.05042969 4.236875 3.60085937 4.90625 4.16796875 C6.27234507 5.36330194 7.60814611 6.5944379 8.90625 7.86328125 C22.97333707 21.36227442 41.05995179 27.30694627 59.9296875 30.421875 C63 31 63 31 64 32 C65.34747084 32.23075082 66.70377565 32.41153063 68.0625 32.5625 C69.361875 32.706875 70.66125 32.85125 72 33 C72 33.33 72 33.66 72 34 C46.8323184 35.10708277 26.87670164 29.17470395 8 12 C7.27554688 11.35675781 6.55109375 10.71351563 5.8046875 10.05078125 C2.99920061 7.43270542 1.24324547 5.76216914 0.0625 2.0625 C0.041875 1.381875 0.02125 0.70125 0 0 Z " fill="#8ad6dc" transform="translate(26,196)"/>
<path d="M0 0 C3.30497432 1.04018165 4.11152061 2.1766469 6 5.16796875 C6.68353577 6.4992856 7.34930204 7.83982872 8 9.1875 C8.34740234 9.89495361 8.69480469 10.60240723 9.05273438 11.33129883 C12.93728966 19.5404282 16.41549179 28.80724413 16 38 C15.2575 37.236875 14.515 36.47375 13.75 35.6875 C11.56609138 33.55322567 9.4535172 31.78771232 7 30 C6.93941406 31.22976562 6.87882813 32.45953125 6.81640625 33.7265625 C6.73194995 35.35938427 6.64730453 36.99219627 6.5625 38.625 C6.50352539 39.83736328 6.50352539 39.83736328 6.44335938 41.07421875 C6.21203918 45.45150865 5.83079083 49.68547281 5 54 C4.67 54 4.34 54 4 54 C4.02094727 52.81559326 4.04189453 51.63118652 4.06347656 50.41088867 C4.1364867 45.96977069 4.18201923 41.52870451 4.21972656 37.0871582 C4.23970419 35.17365566 4.26689599 33.26021308 4.30175781 31.34692383 C4.48990553 20.74701359 4.56836773 11.79211855 0 2 C0 1.34 0 0.68 0 0 Z " fill="#8ad6dc" transform="translate(241,78)"/>
<path d="M0 0 C0.66 0.99 1.32 1.98 2 3 C2.721875 3.4125 3.44375 3.825 4.1875 4.25 C9.26943356 7.41209199 13.54297961 11.49288534 16 17 C13.25 17.375 13.25 17.375 10 17 C7.39200988 13.89860634 5.62099566 11.03647181 5 7 C4.01 8.485 4.01 8.485 3 10 C1.35 7.69 -0.3 5.38 -2 3 C-1.332145 6.98817772 -1.332145 6.98817772 1.0625 9.3125 C3.52276046 12.72511935 3.32259365 14.88693102 3 19 C0.23046875 19.328125 0.23046875 19.328125 -3 19 C-5.01171875 16.734375 -5.01171875 16.734375 -6.6875 13.75 C-9.01448839 9.64292853 -9.01448839 9.64292853 -11.76953125 5.828125 C-12.17558594 5.22484375 -12.58164063 4.6215625 -13 4 C-12.67 3.01 -12.34 2.02 -12 1 C-7.95232429 0.22901415 -4.11983282 -0.37453026 0 0 Z " fill="#8ad6dc" transform="translate(121,232)"/>
<path d="M0 0 C2.52947236 0.11053157 4.04001762 0.23875881 6.3125 1.375 C6.3125 2.035 6.3125 2.695 6.3125 3.375 C9.6296411 4.7966319 12.75469804 5.76509109 16.3125 6.375 C15.9825 7.035 15.6525 7.695 15.3125 8.375 C13.02734375 8.7890625 13.02734375 8.7890625 10.25 9 C9.33089844 9.07476562 8.41179687 9.14953125 7.46484375 9.2265625 C6.39943359 9.30003906 6.39943359 9.30003906 5.3125 9.375 C5.3125 8.715 5.3125 8.055 5.3125 7.375 C2.60025382 8.98768692 -0.06102812 10.62401874 -2.6875 12.375 C-3.6775 12.375 -4.6675 12.375 -5.6875 12.375 C-5.6875 13.035 -5.6875 13.695 -5.6875 14.375 C-7.3375 14.045 -8.9875 13.715 -10.6875 13.375 C-10.6875 12.715 -10.6875 12.055 -10.6875 11.375 C-11.3475 11.375 -12.0075 11.375 -12.6875 11.375 C-15.6875 7.91346154 -15.6875 7.91346154 -15.6875 5.375 C-14.800625 5.478125 -13.91375 5.58125 -13 5.6875 C-9.49897247 5.72877416 -9.49897247 5.72877416 -7.375 2.875 C-4.39851572 0.10617741 -3.85286355 0.01230947 0 0 Z " fill="#8ad6dc" transform="translate(178.6875,217.625)"/>
<path d="M0 0 C0.99 0.33 1.98 0.66 3 1 C3.70814891 2.64946881 4.36789155 4.31992228 5 6 C6.16528109 7.75846717 7.37538787 9.48792466 8.625 11.1875 C12 15.78163265 12 15.78163265 12 18 C13.98 18 15.96 18 18 18 C17.71601983 11.32646591 14.92194468 7.28922815 11 2 C11.99 2 12.98 2 14 2 C16.1875 5 16.1875 5 18 8 C18.66 7.01 19.32 6.02 20 5 C20.268125 5.721875 20.53625 6.44375 20.8125 7.1875 C22.52432636 11.31385071 22.52432636 11.31385071 25 15 C28.42360738 15.60624398 28.42360738 15.60624398 32.1875 15.3125 C33.45980469 15.26738281 34.73210937 15.22226563 36.04296875 15.17578125 C37.01878906 15.11777344 37.99460938 15.05976563 39 15 C27.74436201 21.16994835 10.39916074 20.93736887 -2 19 C-2 18.67 -2 18.34 -2 18 C0.64 18 3.28 18 6 18 C5.37720331 16.41579871 4.75166599 14.83267469 4.125 13.25 C3.77695313 12.36828125 3.42890625 11.4865625 3.0703125 10.578125 C2.07142668 8.04417218 2.07142668 8.04417218 0.8671875 5.921875 C0 4 0 4 0 0 Z " fill="#8ad6dc" transform="translate(106,233)"/>
<path d="M0 0 C3.90428212 3.52644836 3.90428212 3.52644836 4.37109375 5.8359375 C6.17343319 12.03777632 13.17913259 17.45291187 18.0625 21.4375 C19.031875 22.283125 20.00125 23.12875 21 24 C21 24.99 21 25.98 21 27 C22.39997777 29.15181768 23.8164778 31.15807462 25.375 33.1875 C25.7875 33.74630859 26.2 34.30511719 26.625 34.88085938 C27.69639211 36.29613379 28.84342325 37.65344404 30 39 C30.66 39 31.32 39 32 39 C32 40.32 32 41.64 32 43 C28.15588253 41.43387807 25.84049791 38.97905879 23 36 C22.20980469 35.22269531 21.41960938 34.44539063 20.60546875 33.64453125 C-0.11223249 12.6162198 -0.11223249 12.6162198 -1 2 C-0.67 1.34 -0.34 0.68 0 0 Z " fill="#8ad6dc" transform="translate(21,190)"/>
<path d="M0 0 C-8.11643764 5.41095843 -17.51962227 6.55133155 -27 7.75 C-27.99604248 7.87753662 -28.99208496 8.00507324 -30.01831055 8.13647461 C-37.0352711 8.95520619 -43.93942174 9.140836 -51 9 C-43.32804613 2.52795189 -31.41837584 2.34351189 -21.8125 1.3125 C-20.14670898 1.11817383 -20.14670898 1.11817383 -18.44726562 0.91992188 C-12.25556286 0.2278865 -6.22915985 -0.13813343 0 0 Z " fill="#8ad6dc" transform="translate(75,126)"/>
<path d="M0 0 C0 0.66 0 1.32 0 2 C-5.42122777 2.69957543 -10.84319236 3.39304517 -16.26586914 4.08129883 C-18.10363926 4.31537186 -19.94121186 4.55100193 -21.77856445 4.78833008 C-32.84572931 6.21664358 -43.85176207 7.4364392 -55 8 C-55 7.67 -55 7.34 -55 7 C-57.31 6.67 -59.62 6.34 -62 6 C-62 5.67 -62 5.34 -62 5 C-55.42152599 4.2773844 -48.84183854 3.56668291 -42.26123047 2.86376953 C-40.02852105 2.62391827 -37.79608944 2.38146463 -35.56396484 2.13623047 C-11.78065054 -0.47322408 -11.78065054 -0.47322408 0 0 Z " fill="#8ad6dc" transform="translate(117,119)"/>
<path d="M0 0 C16.14896532 1.79887209 32.09785956 12.25273239 43 24 C43 24.66 43 25.32 43 26 C43.66 26 44.32 26 45 26 C45 26.66 45 27.32 45 28 C40.98452853 27.47545643 39.39773313 25.56798395 36.75 22.625 C32.69731332 18.39757061 29.61481857 16.53131416 24 15 C24 14.34 24 13.68 24 13 C23.15695313 12.74476562 22.31390625 12.48953125 21.4453125 12.2265625 C17.0884331 10.67547392 13.10106848 8.56601753 9.03515625 6.390625 C5.66169876 4.64142482 3.89721985 4 0 4 C0 2.68 0 1.36 0 0 Z " fill="#8ad6dc" transform="translate(184,32)"/>
<path d="M0 0 C8.85420042 3.96700896 16.12306879 11.9552746 23.13989258 18.53857422 C27.50938172 22.6148485 32.05202247 26.37606508 36.7578125 30.0625 C38.8792398 31.89564972 40.42406203 33.69274441 42 36 C33.82461081 32.16535317 26.33298136 26.64952884 19.71875 20.54296875 C17.97655823 18.91986228 17.97655823 18.91986228 15.78125 17.42578125 C15.1934375 16.95527344 14.605625 16.48476562 14 16 C14 15.34 14 14.68 14 14 C13.38125 13.690625 12.7625 13.38125 12.125 13.0625 C10.75 12.375 9.375 11.6875 8 11 C8 10.34 8 9.68 8 9 C7.01 8.67 6.02 8.34 5 8 C3.61328125 6.15234375 3.61328125 6.15234375 2.3125 3.9375 C1.87550781 3.20402344 1.43851563 2.47054687 0.98828125 1.71484375 C0.49908203 0.86599609 0.49908203 0.86599609 0 0 Z " fill="#8ad6dc" transform="translate(140,143)"/>
<path d="M0 0 C1.16858091 2.81675282 1.04472316 3.88520517 -0.08203125 6.77734375 C-4.68920369 15.19089342 -9.94278424 22.58564858 -16 30 C-16.62777344 30.78246094 -17.25554687 31.56492188 -17.90234375 32.37109375 C-19.21177079 33.9622557 -20.59646381 35.49119859 -22 37 C-22.66 37 -23.32 37 -24 37 C-23.56984727 31.83816728 -20.90828969 28.85921561 -17.75 25 C-17.27175781 24.39671875 -16.79351562 23.7934375 -16.30078125 23.171875 C-14.09132924 20.41754458 -11.88090213 17.88422987 -9.34375 15.41796875 C-6.87007146 12.86595706 -5.38106256 10.45873384 -3.75 7.3125 C-3.24984375 6.35988281 -2.7496875 5.40726563 -2.234375 4.42578125 C-1.48488949 2.95289992 -0.73906805 1.4781361 0 0 Z " fill="#8ad6dc" transform="translate(233,166)"/>
<path d="M0 0 C3.25826731 0.58507861 4.92604769 1.54369872 7.28515625 3.84375 C7.89343262 4.42672852 8.50170898 5.00970703 9.12841797 5.61035156 C9.76666504 6.23393555 10.40491211 6.85751953 11.0625 7.5 C16.52662921 12.73562197 22.06696687 17.65431618 28.0234375 22.328125 C30 24 30 24 31 26 C25.06582931 24.75501695 21.98380599 22.68975108 17.75 18.4375 C16.62905263 17.35132086 15.50530633 16.26802347 14.37890625 15.1875 C13.53996826 14.38119141 13.53996826 14.38119141 12.68408203 13.55859375 C9.29448251 10.42156804 5.61357408 7.64691766 1.94921875 4.83984375 C1.30597656 4.23269531 0.66273438 3.62554687 0 3 C0 2.01 0 1.02 0 0 Z " fill="#8ad6dc" transform="translate(135,135)"/>
<path d="M0 0 C0.33 0 0.66 0 1 0 C1.03738281 1.13695312 1.07476562 2.27390625 1.11328125 3.4453125 C1.6256155 16.41033283 3.45946228 28.26724307 7.9375 40.5 C8.17815186 41.15887207 8.41880371 41.81774414 8.66674805 42.49658203 C9.89996856 45.69812562 11.26577869 48.39795229 13.17578125 51.2578125 C15.30294773 54.45539467 15.35838617 56.23694523 15 60 C0.71633209 43.58631144 -0.74816251 20.62338727 0 0 Z " fill="#8ad6dc" transform="translate(6,136)"/>
<path d="M0 0 C-0.33 0.99 -0.66 1.98 -1 3 C-12.01250217 5.00571345 -22.80826494 6.52129747 -34 7 C-25.74989927 -1.25010073 -10.73427164 -0.18366624 0 0 Z " fill="#8ad6dc" transform="translate(98,124)"/>
<path d="M0 0 C-6.625 2 -6.625 2 -10 2 C-10 2.66 -10 3.32 -10 4 C-6.7 4 -3.4 4 0 4 C0 4.33 0 4.66 0 5 C-0.92232422 5.09087891 -0.92232422 5.09087891 -1.86328125 5.18359375 C-2.67152344 5.26738281 -3.47976562 5.35117188 -4.3125 5.4375 C-5.11300781 5.51871094 -5.91351563 5.59992188 -6.73828125 5.68359375 C-9.16087179 5.95265693 -9.16087179 5.95265693 -12 7 C-14.06587115 6.91426773 -16.12946525 6.76166465 -18.1875 6.5625 C-19.81751953 6.40974609 -19.81751953 6.40974609 -21.48046875 6.25390625 C-22.31191406 6.17011719 -23.14335938 6.08632812 -24 6 C-24 5.34 -24 4.68 -24 4 C-26.31 3.67 -28.62 3.34 -31 3 C-31 2.67 -31 2.34 -31 2 C-27.535 1.505 -27.535 1.505 -24 1 C-24 0.67 -24 0.34 -24 0 C-20.75052139 -0.19738568 -17.50041127 -0.3811754 -14.25 -0.5625 C-13.32960938 -0.61857422 -12.40921875 -0.67464844 -11.4609375 -0.73242188 C-10.57148437 -0.78076172 -9.68203125 -0.82910156 -8.765625 -0.87890625 C-7.94868164 -0.9260376 -7.13173828 -0.97316895 -6.29003906 -1.02172852 C-4.02117925 -1.00020095 -2.16679079 -0.64612135 0 0 Z " fill="#8ad6dc" transform="translate(114,228)"/>
<path d="M0 0 C0.66 0.33 1.32 0.66 2 1 C1.67201416 1.65073486 1.34402832 2.30146973 1.00610352 2.97192383 C-0.4771886 5.91773513 -1.95737799 8.8650947 -3.4375 11.8125 C-3.95376953 12.83666016 -4.47003906 13.86082031 -5.00195312 14.91601562 C-5.49501953 15.89892578 -5.98808594 16.88183594 -6.49609375 17.89453125 C-6.95169678 18.80050049 -7.4072998 19.70646973 -7.87670898 20.63989258 C-9.08874251 23.06261762 -9.08874251 23.06261762 -10 26 C-13.47775179 24.48446596 -15.9557984 22.4226544 -18.75 19.875 C-19.54921875 19.15054688 -20.3484375 18.42609375 -21.171875 17.6796875 C-21.77515625 17.12539062 -22.3784375 16.57109375 -23 16 C-22.34 15.34 -21.68 14.68 -21 14 C-21.495 12.9171875 -21.495 12.9171875 -22 11.8125 C-23.00603529 8.98302573 -23.16977402 6.97104534 -23 4 C-22.731875 4.556875 -22.46375 5.11375 -22.1875 5.6875 C-21.00101623 8.0839757 -21.00101623 8.0839757 -19.375 10.5625 C-18 13 -18 13 -18 16 C-17.34 16 -16.68 16 -16 16 C-14 19 -14 19 -14 22 C-13.01 22 -12.02 22 -11 22 C-10.68869141 21.25169922 -10.68869141 21.25169922 -10.37109375 20.48828125 C-7.34009126 13.42439678 -3.70222674 6.72848512 0 0 Z " fill="#8ad6dc" transform="translate(145,112)"/>
<path d="M0 0 C3.4249763 1.03903775 4.16818095 2.26990078 6.10546875 5.37890625 C6.81591238 6.76513773 7.50926816 8.16022705 8.1875 9.5625 C8.54263672 10.28179687 8.89777344 11.00109375 9.26367188 11.7421875 C11.70743985 16.88940277 13 21.24532555 13 27 C11.5 25.625 11.5 25.625 10 24 C10 23.34 10 22.68 10 22 C9.34 22 8.68 22 8 22 C0 4.76595745 0 4.76595745 0 0 Z " fill="#8ad6dc" transform="translate(241,78)"/>
<path d="M0 0 C1.4540625 1.2375 1.4540625 1.2375 2.9375 2.5 C3.5871875 3.05042969 4.236875 3.60085937 4.90625 4.16796875 C6.27234507 5.36330194 7.60814611 6.5944379 8.90625 7.86328125 C16.75741042 15.39737558 26.77922223 21.23653532 37 25 C37 25.33 37 25.66 37 26 C32.27266659 26.30633677 29.53120023 25.60256742 25.4375 23.25 C24.48488281 22.7034375 23.53226563 22.156875 22.55078125 21.59375 C19.85839055 19.9115212 17.44854379 18.01644783 15 16 C14.22914062 15.72285156 13.45828125 15.44570312 12.6640625 15.16015625 C9.52201072 13.79184338 7.66992013 12.10335987 5.25 9.6875 C4.08210938 8.54861328 4.08210938 8.54861328 2.890625 7.38671875 C0.86682254 4.83187722 0.34014275 3.20301087 0 0 Z " fill="#8ad6dc" transform="translate(26,196)"/>
<path d="M0 0 C-3.31230194 1.79416355 -6.75558998 3.04977526 -10.29296875 4.31640625 C-12.00210258 4.87091702 -12.00210258 4.87091702 -13 6 C-15.69235776 6.23678716 -18.36498156 6.42198025 -21.0625 6.5625 C-22.20041992 6.62727539 -22.20041992 6.62727539 -23.36132812 6.69335938 C-25.24065438 6.79973633 -27.12030244 6.90039934 -29 7 C-29.33 5.35 -29.66 3.7 -30 2 C-26.3129484 1.6615815 -22.62529741 1.33018392 -18.9375 1 C-17.89916016 0.90460938 -16.86082031 0.80921875 -15.79101562 0.7109375 C-10.50422394 0.24100046 -5.30765619 -0.12045745 0 0 Z " fill="#8ad6dc" transform="translate(36,130)"/>
<path d="M0 0 C0.99 0.33 1.98 0.66 3 1 C2.34 1 1.68 1 1 1 C2.4765102 17.18277244 3.88767551 32.17465108 11.375 46.8125 C11.91125 47.864375 12.4475 48.91625 13 50 C12.67 50.66 12.34 51.32 12 52 C8.39547119 47.1064344 6.3389193 42.14590993 4.3125 36.4375 C4.00505859 35.60025391 3.69761719 34.76300781 3.38085938 33.90039062 C1.27811255 28.08907938 -0.13408901 22.9292208 -0.09765625 16.69921875 C-0.09443359 15.72275391 -0.09121094 14.74628906 -0.08789062 13.74023438 C-0.07951172 12.73283203 -0.07113281 11.72542969 -0.0625 10.6875 C-0.05798828 9.66076172 -0.05347656 8.63402344 -0.04882812 7.57617188 C-0.03708184 5.05072118 -0.02065565 2.52539095 0 0 Z " fill="#8ad6dc" transform="translate(8,138)"/>
<path d="M0 0 C0.99 0 1.98 0 3 0 C2.93234465 6.31343474 2.84229397 12.62628171 2.73754883 18.93920898 C2.70454265 21.08139024 2.6764373 23.22365338 2.65356445 25.3659668 C2.37903742 50.40633712 2.37903742 50.40633712 -1 59 C-1.99 59.495 -1.99 59.495 -3 60 C-2.85675293 59.14607666 -2.71350586 58.29215332 -2.56591797 57.41235352 C-2.37916504 56.28627686 -2.19241211 55.1602002 -2 54 C-1.82484863 52.96093506 -1.64969727 51.92187012 -1.46923828 50.85131836 C0.16972306 40.06212595 0.23166566 29.45749139 0.125 18.5625 C0.11493873 16.75195814 0.10581851 14.94141079 0.09765625 13.13085938 C0.07591823 8.75376742 0.04156645 4.3769467 0 0 Z " fill="#8ad6dc" transform="translate(243,91)"/>
<path d="M0 0 C0 0.33 0 0.66 0 1 C-3.96318397 1.60260061 -7.92832405 2.18990314 -11.89575195 2.76391602 C-13.24140388 2.96070333 -14.58648263 3.16145693 -15.9309082 3.36645508 C-23.55148423 4.52555348 -30.37646349 5.33056236 -38 4 C-38 9.28 -38 14.56 -38 20 C-38.33 20 -38.66 20 -39 20 C-39 14.39 -39 8.78 -39 3 C-35.05352232 2.56779123 -31.10687998 2.13898087 -27.15917969 1.71826172 C-25.16822355 1.50463776 -23.17785262 1.28558198 -21.1875 1.06640625 C-14.09398156 0.31406338 -7.13454176 -0.22722811 0 0 Z " fill="#8ad6dc" transform="translate(46,134)"/>
<path d="M0 0 C3.71045247 1.57780923 6.29906384 3.90703248 9.25 6.625 C10.14203125 7.44226563 11.0340625 8.25953125 11.953125 9.1015625 C12.96632812 10.04128906 12.96632812 10.04128906 14 11 C12.33333333 12.66666667 10.66666667 14.33333333 9 16 C8.278125 16.763125 7.55625 17.52625 6.8125 18.3125 C5 20 5 20 3 20 C3 20.66 3 21.32 3 22 C0.95287216 23.77792461 -1.09242561 25.42930397 -3.25 27.0625 C-3.83652344 27.52205078 -4.42304688 27.98160156 -5.02734375 28.45507812 C-7.98833837 30.72073806 -10.35227071 32.2663923 -14 33 C-12.82868725 29.48606174 -12.17964509 29.23387655 -9.125 27.375 C-1.82157645 22.70080893 4.95840605 17.22467256 11 11 C10.2059375 10.37351563 9.411875 9.74703125 8.59375 9.1015625 C7.06234375 7.87566406 7.06234375 7.87566406 5.5 6.625 C4.4790625 5.81289062 3.458125 5.00078125 2.40625 4.1640625 C1.6121875 3.44992188 0.818125 2.73578125 0 2 C0 1.34 0 0.68 0 0 Z " fill="#8ad6dc" transform="translate(182,179)"/>
<path d="M0 0 C0.99 0.33 1.98 0.66 3 1 C3.70814891 2.64946881 4.36789155 4.31992228 5 6 C6.16528109 7.75846717 7.37538787 9.48792466 8.625 11.1875 C12 15.78163265 12 15.78163265 12 18 C8.84493858 18.93619813 6.03413498 19.1057123 2.75 19.0625 C1.85796875 19.05347656 0.9659375 19.04445312 0.046875 19.03515625 C-0.62859375 19.02355469 -1.3040625 19.01195312 -2 19 C-2 18.67 -2 18.34 -2 18 C0.64 18 3.28 18 6 18 C5.37720331 16.41579871 4.75166599 14.83267469 4.125 13.25 C3.77695313 12.36828125 3.42890625 11.4865625 3.0703125 10.578125 C2.07142668 8.04417218 2.07142668 8.04417218 0.8671875 5.921875 C0 4 0 4 0 0 Z " fill="#8ad6dc" transform="translate(106,233)"/>
<path d="M0 0 C0.99 0.33 1.98 0.66 3 1 C-4.62600055 8.87200057 -12.57374878 15.36186843 -22 21 C-20.5611898 17.612801 -18.77880501 15.6405896 -16 13.25 C-14.948125 12.32960937 -14.948125 12.32960937 -13.875 11.390625 C-12 10 -12 10 -10 10 C-10 9.34 -10 8.68 -10 8 C-7.91796875 6.01953125 -7.91796875 6.01953125 -5.1875 3.8125 C-4.29417969 3.07644531 -3.40085938 2.34039062 -2.48046875 1.58203125 C-1.66191406 1.05996094 -0.84335938 0.53789062 0 0 Z " fill="#8ad6dc" transform="translate(195,191)"/>
<path d="M0 0 C4.31035211 0.47208618 6.77138396 3.25603787 9.75 6.125 C10.82488086 7.13609744 11.90040175 8.14651491 12.9765625 9.15625 C13.49637695 9.64738281 14.01619141 10.13851562 14.55175781 10.64453125 C16.37246646 12.3486065 18.23931631 13.99330636 20.125 15.625 C24.00544225 18.9869698 27.80734397 22.43220461 31.60546875 25.88671875 C34.00988609 28.00872492 36.48011097 30.01720988 39 32 C38.505 32.99 38.505 32.99 38 34 C37.44054687 33.48953125 36.88109375 32.9790625 36.3046875 32.453125 C31.31194578 27.92594441 26.25835935 23.49125685 21.125 19.125 C13.89881875 12.97156327 6.71393206 6.71393206 0 0 Z " fill="#8ad6dc" transform="translate(136,134)"/>
<path d="M0 0 C0.53625 0.10957031 1.0725 0.21914062 1.625 0.33203125 C5.80784737 1.17823228 9.99234255 2.00370958 14.19140625 2.765625 C14.91263672 2.89735107 15.63386719 3.02907715 16.37695312 3.16479492 C17.82688359 3.42863951 19.27740608 3.6892524 20.72851562 3.9465332 C25.88891584 4.88891584 25.88891584 4.88891584 27 6 C28.34747084 6.23075082 29.70377565 6.41153063 31.0625 6.5625 C32.361875 6.706875 33.66125 6.85125 35 7 C35 7.33 35 7.66 35 8 C31.58340509 8.05816623 28.16693795 8.09365195 24.75 8.125 C23.29787109 8.15013672 23.29787109 8.15013672 21.81640625 8.17578125 C20.41455078 8.18544922 20.41455078 8.18544922 18.984375 8.1953125 C18.12553711 8.20578613 17.26669922 8.21625977 16.38183594 8.22705078 C13.82096404 7.98293323 12.20488971 7.28990512 10 6 C10.66 5.67 11.32 5.34 12 5 C8.04 3.68 4.08 2.36 0 1 C0 0.67 0 0.34 0 0 Z " fill="#8ad6dc" transform="translate(63,222)"/>
<path d="M0 0 C-5.45810503 4.33009666 -10.95020423 6.52873468 -18 6 C-17.67 4.68 -17.34 3.36 -17 2 C-18.98 2 -20.96 2 -23 2 C-23 1.67 -23 1.34 -23 1 C-15.31395526 0.02840067 -7.74136601 -0.10920422 0 0 Z " fill="#8ad6dc" transform="translate(115,122)"/>
<path d="M0 0 C8.74941621 -0.44488557 13.17814048 3.77946035 19.375 9.3359375 C22 12 22 12 23 15 C23.66 15 24.32 15 25 15 C25 15.66 25 16.32 25 17 C20.98452853 16.47545643 19.39773313 14.56798395 16.75 11.625 C12.69731332 7.39757061 9.61481857 5.53131416 4 4 C4 3.34 4 2.68 4 2 C2.68 1.34 1.36 0.68 0 0 Z " fill="#8ad6dc" transform="translate(204,43)"/>
<path d="M0 0 C4.04627827 0.68824546 7.70589102 1.92067352 11.5625 3.3125 C20.82192092 6.54412665 30.37120879 8.25019936 40 10 C40 10.33 40 10.66 40 11 C26.45493851 11.84266512 10.75496591 8.6847612 0 0 Z " fill="#8ad6dc" transform="translate(53,222)"/>
<path d="M0 0 C-2.97 0.99 -5.94 1.98 -9 3 C-8.34 3.66 -7.68 4.32 -7 5 C-13.69675136 6.03026944 -20.2314676 6.10152799 -27 6 C-20.51512892 0.45922709 -8.23280327 -2.05820082 0 0 Z " fill="#8ad6dc" transform="translate(51,129)"/>
<path d="M0 0 C8.15558296 5.13499668 12.73614914 12.12579687 18 20 C17.34 20.33 16.68 20.66 16 21 C16 20.34 16 19.68 16 19 C14.68 19 13.36 19 12 19 C11.77570313 18.47664063 11.55140625 17.95328125 11.3203125 17.4140625 C9.16824882 13.47922417 6.25016709 10.09490595 3.45703125 6.6015625 C0 2.20720208 0 2.20720208 0 0 Z " fill="#8ad6dc" transform="translate(199,193)"/>
<path d="M0 0 C0.99 0 1.98 0 3 0 C3 0.66 3 1.32 3 2 C3.99 2.33 4.98 2.66 6 3 C7.5703125 5.3984375 7.5703125 5.3984375 9.125 8.375 C9.64320312 9.35210937 10.16140625 10.32921875 10.6953125 11.3359375 C12 14 12 14 13 17 C11.68 17 10.36 17 9 17 C7.20241464 14.55361728 5.72326105 12.25479497 4.25 9.625 C3.83878906 8.92632812 3.42757812 8.22765625 3.00390625 7.5078125 C0 2.31833991 0 2.31833991 0 0 Z " fill="#8ad6dc" transform="translate(111,234)"/>
<path d="M0 0 C3.66579598 0.58496744 6.50499144 1.57826707 9.75 3.375 C10.52859375 3.79523438 11.3071875 4.21546875 12.109375 4.6484375 C14 6 14 6 15 9 C13.35 8.67 11.7 8.34 10 8 C9.67 9.32 9.34 10.64 9 12 C7.49707257 10.18992669 5.99772829 8.37687764 4.5 6.5625 C3.6646875 5.55316406 2.829375 4.54382813 1.96875 3.50390625 C0 1 0 1 0 0 Z " fill="#8ad6dc" transform="translate(40,215)"/>
<path d="M0 0 C0 0.33 0 0.66 0 1 C-1.65 1 -3.3 1 -5 1 C-5 1.99 -5 2.98 -5 4 C-5.66 4 -6.32 4 -7 4 C-7 3.34 -7 2.68 -7 2 C-7.99 2 -8.98 2 -10 2 C-9.3503125 3.05960938 -8.700625 4.11921875 -8.03125 5.2109375 C-7.18726877 6.59881775 -6.34353136 7.98684629 -5.5 9.375 C-5.07074219 10.07367188 -4.64148438 10.77234375 -4.19921875 11.4921875 C-1 16.7734375 -1 16.7734375 -1 19 C-1.66 19 -2.32 19 -3 19 C-4.62109375 16.734375 -4.62109375 16.734375 -6.4375 13.75 C-8.92838664 9.65961102 -8.92838664 9.65961102 -11.78515625 5.828125 C-12.38650391 4.92320312 -12.38650391 4.92320312 -13 4 C-12.67 3.01 -12.34 2.02 -12 1 C-7.93631321 0.22596442 -4.13574827 -0.0984702 0 0 Z " fill="#8ad6dc" transform="translate(121,232)"/>
<path d="M0 0 C1.98 0 3.96 0 6 0 C6.99 2.64 7.98 5.28 9 8 C4.05 8.33 -0.9 8.66 -6 9 C-2 6 -2 6 0 5 C-0.66 4.34 -1.32 3.68 -2 3 C-0.02 3 1.96 3 4 3 C4 2.34 4 1.68 4 1 C2.68 0.67 1.36 0.34 0 0 Z " fill="#8ad6dc" transform="translate(113,118)"/>
<path d="M0 0 C0.33 0 0.66 0 1 0 C1.40357471 6.21803992 0.80722968 12.08529197 -0.3125 18.1875 C-0.43020752 18.85201172 -0.54791504 19.51652344 -0.66918945 20.20117188 C-1.56635474 24.82533283 -3.03459758 28.75539141 -5 33 C-6.14884795 29.55345614 -5.8054714 28.16837691 -5.0390625 24.66796875 C-4.81476563 23.62189453 -4.59046875 22.57582031 -4.359375 21.49804688 C-4.11703125 20.40556641 -3.8746875 19.31308594 -3.625 18.1875 C-3.15787089 16.03536944 -2.69169577 13.88303155 -2.2265625 11.73046875 C-2.01596191 10.77551514 -1.80536133 9.82056152 -1.58837891 8.83666992 C-0.97952134 5.90126905 -0.47429933 2.95985758 0 0 Z " fill="#8ad6dc" transform="translate(247,120)"/>
<path d="M0 0 C0.7734375 0.433125 0.7734375 0.433125 1.5625 0.875 C4.74876471 2.34558371 7.5283884 3.39094533 11 4 C13.69433317 2.12802546 13.69433317 2.12802546 16 0 C18.14453125 0.37109375 18.14453125 0.37109375 20 1 C18.90241493 1.84198307 17.79664683 2.67330671 16.6875 3.5 C16.07261719 3.9640625 15.45773438 4.428125 14.82421875 4.90625 C13 6 13 6 10 6 C10 6.66 10 7.32 10 8 C8.35 7.67 6.7 7.34 5 7 C5 6.34 5 5.68 5 5 C4.34 5 3.68 5 3 5 C1.375 2.5 1.375 2.5 0 0 Z " fill="#8ad6dc" transform="translate(163,224)"/>
<path d="M0 0 C4.49014624 1.49671541 8.47848764 3.83368341 12 7 C12 7.66 12 8.32 12 9 C12.57234375 9.25523437 13.1446875 9.51046875 13.734375 9.7734375 C16.24173733 11.13087159 18.1330456 12.71974104 20.25 14.625 C20.95640625 15.25664062 21.6628125 15.88828125 22.390625 16.5390625 C22.92171875 17.02117187 23.4528125 17.50328125 24 18 C23.34 18.66 22.68 19.32 22 20 C22 19.34 22 18.68 22 18 C20.68 17.67 19.36 17.34 18 17 C18 16.34 18 15.68 18 15 C17.34 15 16.68 15 16 15 C14.81456799 13.84843748 13.63517019 12.68980052 12.4921875 11.49609375 C10.87827323 9.87795457 9.18434197 8.41069505 7.4375 6.9375 C4.83096668 4.73503626 2.36760204 2.46230613 0 0 Z " fill="#8ad6dc" transform="translate(170,172)"/>
<path d="M0 0 C3.90967634 3.53132057 3.90967634 3.53132057 4.3515625 5.82421875 C5.28797608 8.96628118 7.20352898 10.69270354 9.4375 13.0625 C11.87211376 15.66124502 14.02195026 18.03292539 16 21 C9.58463152 18.18676417 2.7544501 12.57254486 -0.1875 6.125 C-1 3 -1 3 0 0 Z " fill="#8ad6dc" transform="translate(21,190)"/>
<path d="M0 0 C0.66 0.33 1.32 0.66 2 1 C1.236875 1.598125 0.47375 2.19625 -0.3125 2.8125 C-2.87547371 4.77774304 -2.87547371 4.77774304 -4.32421875 6.49609375 C-6.53069898 8.47626832 -8.71831039 9.24799353 -11.5 10.25 C-12.4590625 10.60578125 -13.418125 10.9615625 -14.40625 11.328125 C-17 12 -17 12 -20 11 C-18.89140625 10.45730469 -17.7828125 9.91460937 -16.640625 9.35546875 C-15.17697731 8.63302726 -13.7134415 7.91035908 -12.25 7.1875 C-11.52039063 6.83107422 -10.79078125 6.47464844 -10.0390625 6.10742188 C-6.44089782 4.32469483 -3.10367291 2.58911661 0 0 Z " fill="#8ad6dc" transform="translate(159,216)"/>
<path d="M0 0 C0 4.92745075 -3.68086383 7.60021193 -7 11 C-9.60508221 13.41026736 -12.27081874 15.7315896 -15 18 C-15.66 17.67 -16.32 17.34 -17 17 C-13.63553776 12.68928276 -10.03040929 9.15931397 -5.87109375 5.61328125 C-3.81073837 3.83681618 -1.88376398 1.96225415 0 0 Z " fill="#8ad6dc" transform="translate(54,44)"/>
<path d="M0 0 C0 0.33 0 0.66 0 1 C-4.12354535 1.39233732 -8.24887052 1.76092975 -12.375 2.125 C-14.1384375 2.29322266 -14.1384375 2.29322266 -15.9375 2.46484375 C-17.61972656 2.60986328 -17.61972656 2.60986328 -19.3359375 2.7578125 C-20.37282715 2.8520752 -21.4097168 2.94633789 -22.47802734 3.04345703 C-25 3 -25 3 -27 1 C-17.80685498 -0.39569705 -9.28157192 -1.4551617 0 0 Z " fill="#8ad6dc" transform="translate(71,132)"/>
<path d="M0 0 C0.33 1.32 0.66 2.64 1 4 C2.36125 3.7525 2.36125 3.7525 3.75 3.5 C9.13782475 2.71126689 14.56912556 2.91974077 20 3 C16.91862296 6.08137704 13.92739734 5.97281954 9.66796875 6.09765625 C8.51941406 6.08605469 7.37085938 6.07445312 6.1875 6.0625 C5.02605469 6.05347656 3.86460938 6.04445312 2.66796875 6.03515625 C1.78753906 6.02355469 0.90710938 6.01195312 0 6 C0 4.02 0 2.04 0 0 Z " fill="#8ad6dc" transform="translate(6,126)"/>
<path d="M0 0 C0.99 0.66 1.98 1.32 3 2 C3 2.66 3 3.32 3 4 C5.64 4 8.28 4 11 4 C11 4.33 11 4.66 11 5 C8.06271706 5.33534729 5.12520182 5.66836013 2.1875 6 C1.35412109 6.09539062 0.52074219 6.19078125 -0.33789062 6.2890625 C-1.14033203 6.37929687 -1.94277344 6.46953125 -2.76953125 6.5625 C-3.87711792 6.68818359 -3.87711792 6.68818359 -5.00708008 6.81640625 C-7 7 -7 7 -10 7 C-10 6.34 -10 5.68 -10 5 C-6.7 5 -3.4 5 0 5 C0 3.35 0 1.7 0 0 Z " fill="#8ad6dc" transform="translate(124,246)"/>
<path d="M0 0 C6.2049038 0.2757735 10.10160999 1.10640794 15 5 C10.25769626 6.58076791 5.96561152 4.88452518 1.5 2.875 C1.005 2.58625 0.51 2.2975 0 2 C0 1.34 0 0.68 0 0 Z " fill="#8ad6dc" transform="translate(196,38)"/>
<path d="M0 0 C-0.66 0.66 -1.32 1.32 -2 2 C-1.67 2.66 -1.34 3.32 -1 4 C-5.95 4.33 -10.9 4.66 -16 5 C-13.63746991 2.63746991 -11.68772729 1.962152 -8.5625 0.8125 C-7.59441406 0.44769531 -6.62632813 0.08289063 -5.62890625 -0.29296875 C-3 -1 -3 -1 0 0 Z " fill="#8ad6dc" transform="translate(80,126)"/>
<path d="M0 0 C-0.33 0.66 -0.66 1.32 -1 2 C-6.5429439 3.45866945 -12.31323109 3.09106925 -18 3 C-17.67 2.34 -17.34 1.68 -17 1 C-11.31648386 -0.0149136 -5.76082132 -0.12001711 0 0 Z " fill="#8ad6dc" transform="translate(84,123)"/>
<path d="M0 0 C1.76171875 0.09765625 1.76171875 0.09765625 4 1 C5.46712506 3.1523691 6.64716062 5.13392216 7.8125 7.4375 C8.13669922 8.03626953 8.46089844 8.63503906 8.79492188 9.25195312 C9.60359477 10.79830194 10.31008237 12.39714 11 14 C10.67 14.66 10.34 15.32 10 16 C8.70545435 14.08527667 7.41447056 12.16814482 6.125 10.25 C5.40570313 9.18265625 4.68640625 8.1153125 3.9453125 7.015625 C2.45492743 4.70522886 1.14800599 2.48936036 0 0 Z " fill="#8ad6dc" transform="translate(227,60)"/>
<path d="M0 0 C4.28806873 0.47645208 6.26647487 1.65902484 9 5 C9 5.66 9 6.32 9 7 C9.66 7 10.32 7 11 7 C11 7.66 11 8.32 11 9 C7.40303663 8.42703238 5.74677205 7.10347171 3.25 4.5 C2.63640625 3.8709375 2.0228125 3.241875 1.390625 2.59375 C0 1 0 1 0 0 Z " fill="#8ad6dc" transform="translate(218,51)"/>
<path d="M0 0 C1.29608947 0.93137592 2.58671632 1.8703566 3.875 2.8125 C4.59429687 3.33457031 5.31359375 3.85664063 6.0546875 4.39453125 C8 6 8 6 10 9 C7.25 9.375 7.25 9.375 4 9 C1.36091208 5.87476431 0 4.13534147 0 0 Z " fill="#8ad6dc" transform="translate(127,240)"/>
<path d="M0 0 C3.63960184 5.45940276 5.5073946 11.40387016 5 18 C1.14008237 12.21012355 -0.43328368 6.93253894 0 0 Z " fill="#8ad6dc" transform="translate(9,165)"/>
<path d="M0 0 C4.22916288 1.40972096 5.91060462 4.15324493 8 8 C8.3125 10.9375 8.3125 10.9375 8 13 C5.48158877 10.71053524 3.93135908 8.35992335 2.3125 5.375 C1.87550781 4.57835937 1.43851562 3.78171875 0.98828125 2.9609375 C0 1 0 1 0 0 Z " fill="#8ad6dc" transform="translate(116,236)"/>
<path d="M0 0 C0.99 0 1.98 0 3 0 C3.05410687 1.77049689 3.09284119 3.54146849 3.125 5.3125 C3.14820313 6.29863281 3.17140625 7.28476563 3.1953125 8.30078125 C3 11 3 11 1 14 C0.04738513 9.23692563 -0.08333357 4.8333472 0 0 Z " fill="#8ad6dc" transform="translate(243,91)"/>
<path d="M0 0 C3.71045247 1.57780923 6.29906384 3.90703248 9.25 6.625 C10.14203125 7.44226563 11.0340625 8.25953125 11.953125 9.1015625 C12.96632812 10.04128906 12.96632812 10.04128906 14 11 C8.8318238 11 5.28483264 7.15305493 1.5625 3.8125 C0 2 0 2 0 0 Z " fill="#8ad6dc" transform="translate(168,167)"/>
<path d="M0 0 C0.66 0 1.32 0 2 0 C5.22265625 5.17578125 5.22265625 5.17578125 6 7 C5.67 7.99 5.34 8.98 5 10 C1.7 10 -1.6 10 -5 10 C-5 9.67 -5 9.34 -5 9 C-2.36 9 0.28 9 3 9 C2.01 6.03 1.02 3.06 0 0 Z " fill="#8ad6dc" transform="translate(109,242)"/>
<path d="M0 0 C2.31 0 4.62 0 7 0 C7 0.66 7 1.32 7 2 C9.64 2 12.28 2 15 2 C11.35581659 4.42945561 10.07076636 4.0828781 5.8125 3.625 C4.72582031 3.51414063 3.63914062 3.40328125 2.51953125 3.2890625 C1.68808594 3.19367188 0.85664062 3.09828125 0 3 C0 2.01 0 1.02 0 0 Z " fill="#8ad6dc" transform="translate(90,231)"/>
<path d="M0 0 C1 3 1 3 -0.21484375 5.69921875 C-0.78332031 6.68535156 -1.35179687 7.67148438 -1.9375 8.6875 C-2.50339844 9.68136719 -3.06929687 10.67523438 -3.65234375 11.69921875 C-4.31943359 12.83810547 -4.31943359 12.83810547 -5 14 C-5.68359375 12.328125 -5.68359375 12.328125 -6 10 C-4.78515625 7.421875 -4.78515625 7.421875 -3.0625 4.75 C-2.49660156 3.85796875 -1.93070313 2.9659375 -1.34765625 2.046875 C-0.90292969 1.37140625 -0.45820313 0.6959375 0 0 Z " fill="#8ad6dc" transform="translate(141,77)"/>
<path d="M0 0 C0.65234375 1.734375 0.65234375 1.734375 1 4 C0.00390625 6.140625 0.00390625 6.140625 -1.4375 8.25 C-1.91058594 8.95640625 -2.38367188 9.6628125 -2.87109375 10.390625 C-3.24363281 10.92171875 -3.61617187 11.4528125 -4 12 C-4.65234375 10.265625 -4.65234375 10.265625 -5 8 C-4.00390625 5.859375 -4.00390625 5.859375 -2.5625 3.75 C-2.08941406 3.04359375 -1.61632812 2.3371875 -1.12890625 1.609375 C-0.75636719 1.07828125 -0.38382813 0.5471875 0 0 Z " fill="#8ad6dc" transform="translate(150,59)"/>
<path d="M0 0 C0.33 0.99 0.66 1.98 1 3 C-0.43359375 5.04296875 -0.43359375 5.04296875 -2.4375 7.1875 C-3.09621094 7.90292969 -3.75492188 8.61835938 -4.43359375 9.35546875 C-4.95050781 9.89816406 -5.46742188 10.44085938 -6 11 C-6.33 10.01 -6.66 9.02 -7 8 C-5.56640625 5.95703125 -5.56640625 5.95703125 -3.5625 3.8125 C-2.90378906 3.09707031 -2.24507812 2.38164062 -1.56640625 1.64453125 C-1.04949219 1.10183594 -0.53257812 0.55914062 0 0 Z " fill="#8ad6dc" transform="translate(217,192)"/>
<path d="M0 0 C1.32 0.33 2.64 0.66 4 1 C4 1.66 4 2.32 4 3 C5.65 3 7.3 3 9 3 C9.33 3.66 9.66 4.32 10 5 C9.67 5.66 9.34 6.32 9 7 C7 6 5 5 3 4 C3 3.34 3 2.68 3 2 C2.01 1.67 1.02 1.34 0 1 C0 0.67 0 0.34 0 0 Z " fill="#8ad6dc" transform="translate(145,150)"/>
<path d="M0 0 C1.14926266 0.95421808 2.29430541 1.91352045 3.4375 2.875 C4.07558594 3.40867188 4.71367187 3.94234375 5.37109375 4.4921875 C7 6 7 6 8 8 C4.89347355 7.6641593 3.39585697 7.40950721 1.1875 5.125 C0 3 0 3 0 0 Z " fill="#8ad6dc" transform="translate(26,196)"/>
<path d="M0 0 C-0.33 0.99 -0.66 1.98 -1 3 C-3.64 3.33 -6.28 3.66 -9 4 C-8.34 3.67 -7.68 3.34 -7 3 C-7 2.34 -7 1.68 -7 1 C-4.53721199 -0.231394 -2.7204945 -0.07159196 0 0 Z " fill="#8ad6dc" transform="translate(98,124)"/>
<path d="M0 0 C2.3125 0.125 2.3125 0.125 5 1 C6.8125 4.0625 6.8125 4.0625 8 7 C7.34 7 6.68 7 6 7 C6 6.34 6 5.68 6 5 C4.68 5 3.36 5 2 5 C0 1.125 0 1.125 0 0 Z " fill="#8ad6dc" transform="translate(209,207)"/>
<path d="M0 0 C1.98 0 3.96 0 6 0 C6.33 0.66 6.66 1.32 7 2 C6.06553465 4.03144641 5.06775224 6.03533587 4 8 C3.67 8 3.34 8 3 8 C3.0928125 6.576875 3.0928125 6.576875 3.1875 5.125 C3.125625 4.09375 3.06375 3.0625 3 2 C2.01 1.34 1.02 0.68 0 0 Z " fill="#8ad6dc" transform="translate(165,15)"/>
<path d="M0 0 C2.76276177 0.52268466 5.3260876 1.10869587 8 2 C8 3.32 8 4.64 8 6 C4.63408134 4.55746343 2.48952921 2.66735273 0 0 Z " fill="#8ad6dc" transform="translate(45,227)"/>
<path d="M0 0 C3.96 0 7.92 0 12 0 C10.35 1.32 8.7 2.64 7 4 C6.34 3.67 5.68 3.34 5 3 C5.33 2.34 5.66 1.68 6 1 C4.02 1 2.04 1 0 1 C0 0.67 0 0.34 0 0 Z " fill="#8ad6dc" transform="translate(92,123)"/>
<path d="M0 0 C5.78461538 3.44615385 5.78461538 3.44615385 6.875 6.25 C6.936875 7.11625 6.936875 7.11625 7 8 C6.01 8.495 6.01 8.495 5 9 C4.16094435 7.87926138 3.32892169 6.75325453 2.5 5.625 C2.0359375 4.99851563 1.571875 4.37203125 1.09375 3.7265625 C0 2 0 2 0 0 Z " fill="#8ad6dc" transform="translate(199,193)"/>
<path d="M0 0 C1.0326802 2.78823655 1.04509293 3.8677274 0.0625 6.75 C-0.288125 7.4925 -0.63875 8.235 -1 9 C-1.66 9 -2.32 9 -3 9 C-1.125 2.25 -1.125 2.25 0 0 Z " fill="#8ad6dc" transform="translate(154,50)"/>
</svg>