<svg version="1.1" xmlns="http://www.w3.org/2000/svg" width="225px" height="225px" transform="rotate(0) scale(1, 1)">
<path d="M0 0 C5.35646763 3.57515989 7.89045165 9.9386197 10.7109375 15.51171875 C14.31856509 22.50746219 17.79474328 27.11177826 24.6875 31 C29.19615245 32.09967133 33.53754732 31.92943603 38.0625 31.125 C44.52523419 30.11123777 50.81312806 29.33855899 56.6875 32.6875 C61.93363995 36.53610267 64.19481132 40.8699071 65.1875 47.25 C65.55958029 52.58045453 64.27241523 57.25051915 62.96875 62.38671875 C61.06437843 70.96674066 61.72455864 78.04786298 66.25 85.625 C69.57829667 90.37970953 73.49994889 93.47566709 78.1015625 96.9765625 C83.60358944 101.19811772 86.58265089 104.92995205 88.25 111.625 C88.97483305 117.42366437 87.63328489 121.92330036 84.25 126.625 C80.84591306 129.68926415 77.31707432 131.68533727 73.25 133.75 C67.11379029 137.29419009 64.11513505 140.76544775 62.25 147.625 C61.23956613 153.66739451 62.53520363 159.27753389 63.8125 165.1875 C65.38810582 172.6303618 66.059716 178.07259451 62.5625 184.9375 C57.9853672 190.25687056 52.33427632 192.62229865 45.875 194.875 C45.15828125 195.143125 44.4415625 195.41125 43.703125 195.6875 C35.19219212 198.69858817 29.01447765 198.02261859 20.75 194.625 C20.02296875 194.33882812 19.2959375 194.05265625 18.546875 193.7578125 C16.77643412 193.05895426 15.01248618 192.34368368 13.25 191.625 C12.97800781 192.34558594 12.70601562 193.06617188 12.42578125 193.80859375 C11.26798885 196.58191043 9.95572167 199.09570733 8.4375 201.6875 C7.71626953 202.94240234 7.71626953 202.94240234 6.98046875 204.22265625 C2.82296803 209.99435589 -2.6034406 212.0326485 -9.0625 214.375 C-10.28743164 214.84873047 -10.28743164 214.84873047 -11.53710938 215.33203125 C-17.86885102 217.66291941 -23.29335454 218.80025946 -29.875 216.5625 C-36.26660811 212.25511193 -39.25923678 206.79469467 -42.625 200.125 C-46.13581422 193.19484753 -50.04308946 187.19397018 -57.75 184.625 C-63.5284741 184.28152427 -69.03352706 184.77811512 -74.75 185.625 C-80.15275702 186.09020804 -84.16222671 185.71676026 -88.75 182.625 C-93.510365 178.01268463 -96.45177456 173.9054798 -97.0625 167.1875 C-96.97947265 163.20973507 -96.12408008 159.49829326 -95.25 155.625 C-93.31319034 146.96469394 -92.71857989 139.80261375 -96.75 131.625 C-100.51940845 126.12922291 -105.38641329 122.18784979 -110.66796875 118.2109375 C-115.46599422 114.55615637 -118.4815893 111.62112333 -119.75 105.625 C-120.54089947 99.07878593 -119.63531023 94.06174087 -115.75 88.625 C-113.11392025 86.38796938 -110.25185084 84.702238 -107.25 83 C-101.12186472 79.46253651 -96.4461429 76.55103203 -94.015625 69.4921875 C-92.94326063 61.95409676 -94.30140425 55.37343266 -96.09375 48.0546875 C-97.36867536 41.39168472 -96.97702011 36.633934 -93.75 30.625 C-89.69235417 25.70452144 -85.40153936 23.8936053 -79.5625 21.8125 C-78.76263672 21.50119141 -77.96277344 21.18988281 -77.13867188 20.86914062 C-68.3265324 17.64863985 -60.82503746 17.7132206 -52.125 21.125 C-50.91585937 21.5890625 -49.70671875 22.053125 -48.4609375 22.53125 C-47.56632812 22.8921875 -46.67171875 23.253125 -45.75 23.625 C-44.80640625 21.96210937 -44.80640625 21.96210937 -43.84375 20.265625 C-42.98025637 18.80144014 -42.11561138 17.33793386 -41.25 15.875 C-40.84007813 15.14539063 -40.43015625 14.41578125 -40.0078125 13.6640625 C-36.75038881 8.23502302 -33.61610309 5.87769722 -27.75 3.625 C-26.59757812 3.13515625 -25.44515625 2.6453125 -24.2578125 2.140625 C-15.66686717 -1.0735393 -8.81715346 -3.23295627 0 0 Z M-34.75 77.625 C-40.97326773 87.47047929 -42.08606895 98.34982434 -39.5625 109.5625 C-36.20395788 121.85632627 -30.05683478 131.53015664 -19.15234375 138.37109375 C-13.82207689 141.15323304 -7.82144343 143.27869538 -1.75 142.625 C4.83160485 137.6694387 8.44276531 128.82191257 9.93359375 120.96484375 C11.81710704 107.03614667 7.61805753 95.13984619 -0.0859375 83.62890625 C-6.07329406 75.85918632 -15.22228014 71.01387657 -24.6875 69 C-29.67586682 70.01803405 -31.90905409 73.59514242 -34.75 77.625 Z " fill="#63bfc8" transform="translate(126.75,4.375)"/>
<path d="M0 0 C-3.75 3.875 -3.75 3.875 -6 5 C-6.59070014 6.94603274 -6.59070014 6.94603274 -7 9 C-7.33 9.66 -7.66 10.32 -8 11 C-8.37908879 16.68633192 -7.76629848 21.50153827 -6.5 27.0625 C-4.55209368 35.70749376 -3.98807957 42.83338618 -8 51 C-11.11537053 55.69416264 -14.4839031 58.9320323 -19.5 61.5 C-24.45939137 64.05200242 -28.1778718 67.12700845 -31 72 C-32.40903909 77.52034495 -30.99030074 82.38985154 -28.2890625 87.27734375 C-26.27340396 89.97099652 -23.878063 91.29932641 -21 93 C-21 93.66 -21 94.32 -21 95 C-19.35 95.66 -17.7 96.32 -16 97 C-16 97.66 -16 98.32 -16 99 C-15.4225 99.226875 -14.845 99.45375 -14.25 99.6875 C-9.58478501 102.40887541 -7.23581398 106.73255679 -5.5390625 111.7109375 C-3.69499573 119.54153985 -5.26076709 126.67073936 -7.3203125 134.28125 C-8.9347789 140.73911561 -8.09146648 146.194372 -5 152 C-2.7774268 154.54782781 -1.02132669 156.48933666 2 158 C3.60181003 158.09639211 5.20779951 158.1298117 6.8125 158.125 C7.66457031 158.12757813 8.51664063 158.13015625 9.39453125 158.1328125 C11.98561226 158.06480599 11.98561226 158.06480599 14.42578125 157.51171875 C20.44847985 156.31449035 28.12447248 155.60641763 33.8125 158.3125 C41.9481218 164.0777431 46.38907082 174.2737675 50.5546875 183.03125 C52.48826935 187.32945798 52.48826935 187.32945798 56.1640625 189.94921875 C56.97617188 190.19285156 57.78828125 190.43648437 58.625 190.6875 C59.44226563 190.93886719 60.25953125 191.19023437 61.1015625 191.44921875 C61.72804688 191.63097656 62.35453125 191.81273437 63 192 C55.99922995 196.66718004 46.44878276 200.20696897 38 199 C29.46848071 196.09928344 25.92162819 189.02350927 22.125 181.5 C18.61418578 174.56984753 14.70691054 168.56897018 7 166 C1.2215259 165.65652427 -4.28352706 166.15311512 -10 167 C-15.40275702 167.46520804 -19.41222671 167.09176026 -24 164 C-28.760365 159.38768463 -31.70177456 155.2804798 -32.3125 148.5625 C-32.22947265 144.58473507 -31.37408008 140.87329326 -30.5 137 C-28.56319034 128.33969394 -27.96857989 121.17761375 -32 113 C-35.76940845 107.50422291 -40.63641329 103.56284979 -45.91796875 99.5859375 C-50.71599422 95.93115637 -53.7315893 92.99612333 -55 87 C-55.79089947 80.45378593 -54.88531023 75.43674087 -51 70 C-48.36392025 67.76296938 -45.50185084 66.077238 -42.5 64.375 C-36.37186472 60.83753651 -31.6961429 57.92603203 -29.265625 50.8671875 C-28.19326063 43.32909676 -29.55140425 36.74843266 -31.34375 29.4296875 C-32.61867536 22.76668472 -32.22702011 18.008934 -29 12 C-24.89263333 6.97105783 -20.45159914 5.2518755 -14.5 3.1875 C-13.65824219 2.87619141 -12.81648438 2.56488281 -11.94921875 2.24414062 C-7.76772135 0.7460451 -4.48505566 -0.17109876 0 0 Z " fill="#12a0af" transform="translate(62,23)"/>
<path d="M0 0 C-3.75 3.875 -3.75 3.875 -6 5 C-6.59070014 6.94603274 -6.59070014 6.94603274 -7 9 C-7.33 9.66 -7.66 10.32 -8 11 C-8.37908879 16.68633192 -7.76629848 21.50153827 -6.5 27.0625 C-4.55209368 35.70749376 -3.98807957 42.83338618 -8 51 C-11.11537053 55.69416264 -14.4839031 58.9320323 -19.5 61.5 C-24.44339037 64.04376863 -28.21479008 67.11933435 -31 72 C-31.93425716 76.70268941 -31.19007929 81.38844273 -30 86 C-32.69389457 82.91818462 -33.37639942 80.87669651 -33.5625 76.8125 C-33.64542566 74.22449004 -33.64542566 74.22449004 -34 72 C-34.66 71.67 -35.32 71.34 -36 71 C-36.33 73.64 -36.66 76.28 -37 79 C-45.415 79.495 -45.415 79.495 -54 80 C-52.84868421 71.94078947 -52.84868421 71.94078947 -48 68 C-45.10872284 66.02391049 -42.10877607 64.24502441 -39.08398438 62.48242188 C-34.29812234 59.55916561 -31.14640528 56.32945364 -29.265625 50.8671875 C-28.19326063 43.32909676 -29.55140425 36.74843266 -31.34375 29.4296875 C-32.61867536 22.76668472 -32.22702011 18.008934 -29 12 C-24.89263333 6.97105783 -20.45159914 5.2518755 -14.5 3.1875 C-13.65824219 2.87619141 -12.81648438 2.56488281 -11.94921875 2.24414062 C-7.76772135 0.7460451 -4.48505566 -0.17109876 0 0 Z " fill="#37aab7" transform="translate(62,23)"/>
<path d="M0 0 C0 0.66 0 1.32 0 2 C0.74894531 2.24492188 1.49789063 2.48984375 2.26953125 2.7421875 C5.33159336 4.15275116 6.59225776 5.51617344 8.6875 8.125 C12.31063685 12.40126399 16.21723872 15.73513968 20.703125 19.078125 C23.96782123 21.8098096 26.65538363 24.39179027 27.5625 28.625 C27 31 27 31 24.5 32.8125 C23.675 33.204375 22.85 33.59625 22 34 C22.33 34.99 22.66 35.98 23 37 C21.75336669 37.50833591 20.50250613 38.00631145 19.25 38.5 C18.55390625 38.7784375 17.8578125 39.056875 17.140625 39.34375 C15 40 15 40 11 40 C10.78085937 39.43152344 10.56171875 38.86304688 10.3359375 38.27734375 C6.69236265 29.40538711 1.68752181 24.35899632 -5.87890625 18.6171875 C-12.69773981 13.41829783 -12.69773981 13.41829783 -13.8125 8.1875 C-13.874375 7.135625 -13.93625 6.08375 -14 5 C-12.56328432 4.35242375 -11.12559584 3.70700547 -9.6875 3.0625 C-8.88699219 2.70285156 -8.08648437 2.34320313 -7.26171875 1.97265625 C-2.6746988 0 -2.6746988 0 0 0 Z " fill="#4fb5bf" transform="translate(22,104)"/>
<path d="M0 0 C4.45632248 2.27997894 6.27828056 6.10707071 8.6875 10.375 C9.32558594 11.47972656 9.96367188 12.58445313 10.62109375 13.72265625 C15.6875 22.76471328 15.6875 22.76471328 15.6875 27.375 C13.62987091 28.07694375 11.56613969 28.76101697 9.5 29.4375 C8.35144531 29.82035156 7.20289062 30.20320313 6.01953125 30.59765625 C2.66030631 31.38134413 0.89679794 31.57426397 -2.3125 30.375 C-3.68359375 28.9140625 -3.68359375 28.9140625 -4.75 27 C-5.15734375 26.2884375 -5.5646875 25.576875 -5.984375 24.84375 C-6.42265625 24.0290625 -6.8609375 23.214375 -7.3125 22.375 C-7.83328125 21.4159375 -8.3540625 20.456875 -8.890625 19.46875 C-9.93088436 17.54982498 -10.96153293 15.62564474 -11.98046875 13.6953125 C-13.23188945 11.28148052 -13.23188945 11.28148052 -15.3125 9.375 C-15.26171875 7.42578125 -15.26171875 7.42578125 -14.3125 5.375 C-9.96362928 2.49303968 -5.18020628 0.58643845 0 0 Z " fill="#76cad1" transform="translate(93.3125,185.625)"/>
<path d="M0 0 C4.12766254 3.70066296 6.81473493 7.14218773 7.18359375 12.83203125 C7.18709762 15.56154727 7.13097057 18.27387189 7 21 C7.99 20.67 8.98 20.34 10 20 C10 23.63 10 27.26 10 31 C7 27 7 27 7 25 C2.05 26.98 -2.9 28.96 -8 31 C-8.33 33.97 -8.66 36.94 -9 40 C-9.33 40 -9.66 40 -10 40 C-10.14695313 38.56720703 -10.14695313 38.56720703 -10.296875 37.10546875 C-11.65132104 25.39418105 -14.33871618 15.88049162 -21 6 C-21.33 5.34 -21.66 4.68 -22 4 C-21.195625 4.4640625 -21.195625 4.4640625 -20.375 4.9375 C-16.47232675 6.68343277 -13.65403225 7.54201364 -9.4609375 6.16796875 C-7.68590664 5.44414493 -5.92195201 4.69238764 -4.171875 3.91015625 C-2 3 -2 3 0 3 C0 2.01 0 1.02 0 0 Z " fill="#87d4d9" transform="translate(147,83)"/>
<path d="M0 0 C0.66 0 1.32 0 2 0 C5.23579767 7.39610896 6.33276519 14.01363551 6 22 C5.34 22.33 4.68 22.66 4 23 C4 22.01 4 21.02 4 20 C-1.08521632 21.33184237 -4.0994966 23.52346436 -8 27 C-11.72413793 30 -11.72413793 30 -14 30 C-14.67806317 26.8148163 -15.34035151 23.62654387 -16 20.4375 C-16.28617188 19.09461914 -16.28617188 19.09461914 -16.578125 17.72460938 C-17.60729907 12.70738579 -18.22479032 8.12100455 -18 3 C-16.94039062 3.08378906 -15.88078125 3.16757812 -14.7890625 3.25390625 C-13.40106375 3.35706832 -12.01304165 3.45991663 -10.625 3.5625 C-9.92632812 3.61857422 -9.22765625 3.67464844 -8.5078125 3.73242188 C-4.63471135 4.11499904 -4.63471135 4.11499904 -1 3 C-0.67 2.01 -0.34 1.02 0 0 Z " fill="#a9e9ec" transform="translate(48,39)"/>
<path d="M0 0 C0.21069229 5.98773886 -0.47711176 11.14142624 -1.9375 16.9375 C-2.11990234 17.70384766 -2.30230469 18.47019531 -2.49023438 19.25976562 C-3.85250476 24.85250476 -3.85250476 24.85250476 -5 26 C-7.53049402 26.07313567 -10.03304837 26.09247527 -12.5625 26.0625 C-13.27341797 26.05798828 -13.98433594 26.05347656 -14.71679688 26.04882812 C-16.47790013 26.03700864 -18.23896036 26.01907263 -20 26 C-20.37534452 19.99448774 -20.47661798 14.14974038 -17 9 C-14.18556809 6.64397935 -11.15653694 4.85453383 -8 3 C-7.32839844 2.44957031 -6.65679687 1.89914063 -5.96484375 1.33203125 C-4 0 -4 0 0 0 Z " fill="#98dfe2" transform="translate(52,141)"/>
<path d="M0 0 C2.48856531 3.73284796 2.40894636 6.68152639 2 11 C1.05174785 14.58981172 0.06485754 16.90271369 -2 20 C-3.69580078 20.89135742 -3.69580078 20.89135742 -5.6953125 21.60546875 C-6.76845703 21.99702148 -6.76845703 21.99702148 -7.86328125 22.39648438 C-8.60964844 22.65751953 -9.35601562 22.91855469 -10.125 23.1875 C-10.87910156 23.46013672 -11.63320312 23.73277344 -12.41015625 24.01367188 C-14.27023899 24.68471438 -16.13472068 25.34354065 -18 26 C-18 22.37 -18 18.74 -18 15 C-17.34 15 -16.68 15 -16 15 C-16.05800781 14.38511719 -16.11601562 13.77023438 -16.17578125 13.13671875 C-16.31261536 10.68543334 -16.33403226 8.4336636 -16 6 C-14 4.125 -14 4.125 -11 3 C-10.00613281 2.58814453 -10.00613281 2.58814453 -8.9921875 2.16796875 C-5.7992648 0.87783947 -3.48153433 0 0 0 Z " fill="#baf4f5" transform="translate(154,108)"/>
<path d="M0 0 C6.7688335 4.48662144 11.547587 11.6582617 14.046875 19.3203125 C14.668818 22.17752932 14.668818 22.17752932 16.9765625 23.0390625 C20.07791385 27.2890625 20.07791385 27.2890625 19.6640625 30.3515625 C19.4371875 30.9084375 19.2103125 31.4653125 18.9765625 32.0390625 C19.9665625 31.7090625 20.9565625 31.3790625 21.9765625 31.0390625 C23.53774678 30.97165385 25.1015877 30.95391794 26.6640625 30.9765625 C27.87642578 30.99009766 27.87642578 30.99009766 29.11328125 31.00390625 C29.72816406 31.01550781 30.34304687 31.02710938 30.9765625 31.0390625 C23.97579245 35.70624254 14.42534526 39.24603147 5.9765625 38.0390625 C0.3515625 35.7890625 0.3515625 35.7890625 -1.0234375 33.0390625 C4.2565625 31.3890625 9.5365625 29.7390625 14.9765625 28.0390625 C12.98180958 23.05218019 10.63130712 18.53855025 8.0390625 13.8515625 C7.37487305 12.62276367 7.37487305 12.62276367 6.69726562 11.36914062 C6.26478516 10.58603516 5.83230469 9.80292969 5.38671875 8.99609375 C4.99621338 8.28428955 4.60570801 7.57248535 4.20336914 6.83911133 C2.94021673 4.74388653 2.94021673 4.74388653 -0.0234375 3.0390625 C-5.93927877 3.32076923 -12.79861873 5.81424373 -17.0234375 10.0390625 C-17.7865625 9.4203125 -18.5496875 8.8015625 -19.3359375 8.1640625 C-22.01969559 5.98309198 -22.01969559 5.98309198 -25.0234375 4.0390625 C-23.7034375 4.0390625 -22.3834375 4.0390625 -21.0234375 4.0390625 C-21.0234375 3.3790625 -21.0234375 2.7190625 -21.0234375 2.0390625 C-5.68242468 -2.69860322 -5.68242468 -2.69860322 0 0 Z " fill="#caffff" transform="translate(94.0234375,183.9609375)"/>
<path d="M0 0 C-0.73347656 0.680625 -1.46695313 1.36125 -2.22265625 2.0625 C-5.70252066 5.54113954 -8.02900505 9.61600131 -10.51757812 13.828125 C-13.57267428 18.80279484 -16.84776982 23.19640329 -22.7734375 24.70703125 C-24.06121094 24.75923828 -24.06121094 24.75923828 -25.375 24.8125 C-26.24898438 24.86019531 -27.12296875 24.90789063 -28.0234375 24.95703125 C-28.67570312 24.97121094 -29.32796875 24.98539063 -30 25 C-30 21.02961031 -28.28147927 18.42136984 -26.375 15.0625 C-26.04371094 14.44181641 -25.71242188 13.82113281 -25.37109375 13.18164062 C-21.50035397 6.32385825 -16.07093744 3.76540457 -8.75 1.1875 C-7.52796875 0.74792969 -6.3059375 0.30835938 -5.046875 -0.14453125 C-2 -1 -2 -1 0 0 Z " fill="#caffff" transform="translate(112,5)"/>
<path d="M0 0 C0.33 0.66 0.66 1.32 1 2 C1.50015625 1.84660156 2.0003125 1.69320312 2.515625 1.53515625 C5.90327766 0.80542604 9.29961519 0.63643523 12.75 0.4375 C13.79607422 0.37272461 13.79607422 0.37272461 14.86328125 0.30664062 C16.57531922 0.20110404 18.28763561 0.1001009 20 0 C20.65104167 1.62760417 21.30208333 3.25520833 21.953125 4.8828125 C24.97488399 10.9939818 28.68234339 14.66949545 34.0625 18.625 C40.56947249 23.45990216 44.12335721 26.77164315 46 35 C46.125 37.9375 46.125 37.9375 46 40 C44.453125 40.3403125 44.453125 40.3403125 42.875 40.6875 C39.98279646 41.49801672 38.12383633 42.51469917 35.875 44.5 C33 47 33 47 30.1875 48 C29.1046875 48.495 29.1046875 48.495 28 49 C27.10613836 51.54775306 27.10613836 51.54775306 27 54 C25.28533964 50.57067929 25.94595944 46.78283935 26 43 C29.96 42.01 33.92 41.02 38 40 C38 39.34 38 38.68 38 38 C37.01 37.505 37.01 37.505 36 37 C39.75 34 39.75 34 42 34 C41.00476967 26.20402907 35.81023238 22.79238146 30 18 C28.51603309 16.73477528 27.0363616 15.46448213 25.5625 14.1875 C24.94503906 13.66542969 24.32757812 13.14335938 23.69140625 12.60546875 C22 11 22 11 20.4765625 8.84765625 C19.0430053 6.66394544 19.0430053 6.66394544 15.8125 6.25 C14.884375 6.1675 13.95625 6.085 13 6 C13.66 5.67 14.32 5.34 15 5 C15 4.34 15 3.68 15 3 C12.87453041 3.81127079 10.74963805 4.62405398 8.625 5.4375 C7.44164062 5.88996094 6.25828125 6.34242187 5.0390625 6.80859375 C2.13963807 7.89271912 2.13963807 7.89271912 0 9 C0 6.03 0 3.06 0 0 Z " fill="#caffff" transform="translate(7,101)"/>
<path d="M0 0 C2.5136321 2.5136321 2.29736484 3.39391367 2.3125 6.875 C2.23429713 12.29232589 1.08846246 17.07549109 -0.3203125 22.28125 C-1.9347789 28.73911561 -1.09146648 34.194372 2 40 C4.2225732 42.54782781 5.97867331 44.48933666 9 46 C10.60181003 46.09639211 12.20779951 46.1298117 13.8125 46.125 C14.66457031 46.12757813 15.51664063 46.13015625 16.39453125 46.1328125 C18.98561226 46.06480599 18.98561226 46.06480599 21.42578125 45.51171875 C27.44847985 44.31449035 35.12447248 43.60641763 40.8125 46.3125 C48.9481218 52.0777431 53.38907082 62.2737675 57.5546875 71.03125 C59.64969018 75.52465204 59.64969018 75.52465204 63.625 78.1875 C64.40875 78.455625 65.1925 78.72375 66 79 C66 79.33 66 79.66 66 80 C64.56656 80.53190541 63.12804633 81.05015258 61.6875 81.5625 C60.48673828 81.99755859 60.48673828 81.99755859 59.26171875 82.44140625 C57 83 57 83 54 82 C55.98 81.01 55.98 81.01 58 80 C57.855625 79.4225 57.71125 78.845 57.5625 78.25 C57 76 57 76 56.625 73.8125 C56.41875 73.214375 56.2125 72.61625 56 72 C55.01 71.67 54.02 71.34 53 71 C52.04296875 69.25 52.04296875 69.25 51.1875 67 C48.13709728 59.72774712 44.44518696 52.424786 37 49 C31.550195 48.5604996 26.40007598 49.22856057 21 50 C21.99 49.34 22.98 48.68 24 48 C13.605 48.495 13.605 48.495 3 49 C2.67 47.68 2.34 46.36 2 45 C1.17258405 43.85518187 0.31592381 42.73116332 -0.5625 41.625 C-5.72813081 33.59289198 -3.19435031 22.77678922 -1.51171875 13.91015625 C-0.70148419 9.30233376 -0.34874465 4.66216537 0 0 Z " fill="#caffff" transform="translate(55,135)"/>
<path d="M0 0 C3.39542673 1.55496269 6.70828531 3.23704609 10 5 C9.40960938 5.13664062 8.81921875 5.27328125 8.2109375 5.4140625 C2.86267874 6.83144556 -2.09489546 9.48762938 -7 12 C-1.68969654 11.39176859 -1.68969654 11.39176859 3.5625 10.4375 C6.7282728 9.86928437 9.7914013 9.9370863 13 10 C10.63699651 12.36300349 9.4201502 12.51433444 6.1875 13.125 C4.90939453 13.37636719 4.90939453 13.37636719 3.60546875 13.6328125 C1.03156189 13.995552 -1.40461588 14.06523407 -4 14 C-4.33 14.99 -4.66 15.98 -5 17 C-6.051875 16.18595703 -6.051875 16.18595703 -7.125 15.35546875 C-12.60990262 11.21943484 -17.41026928 7.98935267 -24 6 C-24 5.67 -24 5.34 -24 5 C-23.20335938 4.81824219 -22.40671875 4.63648437 -21.5859375 4.44921875 C-14.91312665 2.89430085 -14.91312665 2.89430085 -8.625 0.25 C-5.11091131 -1.42337557 -3.7211086 -1.14495649 0 0 Z " fill="#caffff" transform="translate(129,69)"/>
<path d="M0 0 C0 0.99 0 1.98 0 3 C1.4096347 3.70180531 2.82807641 4.38593958 4.25 5.0625 C5.03890625 5.44535156 5.8278125 5.82820312 6.640625 6.22265625 C9.36967283 7.12179618 10.30729946 6.81596986 13 6 C14.91561254 5.93311409 16.83335592 5.91468281 18.75 5.9375 C19.73484375 5.94652344 20.7196875 5.95554688 21.734375 5.96484375 C22.85585937 5.98224609 22.85585937 5.98224609 24 6 C17.99746832 10.00168779 8.62274017 13.99491712 1.21875 13.5078125 C-4.35255189 12.23269059 -9.6923612 10.08727369 -15 8 C-15 6.68 -15 5.36 -15 4 C-9.60931587 0.40621058 -6.46326465 -0.45356243 0 0 Z " fill="#caffff" transform="translate(157,189)"/>
<path d="M0 0 C3.33576209 2.99068325 5.3746531 5.80831589 7 10 C6.57421875 12.69140625 6.57421875 12.69140625 6 15 C2.89614789 15.11613204 -0.20714662 15.18722029 -3.3125 15.25 C-4.19357422 15.28351563 -5.07464844 15.31703125 -5.98242188 15.3515625 C-12.48126522 15.45040422 -12.48126522 15.45040422 -15.10546875 13.171875 C-16 11 -16 11 -16 8 C-13.70967689 7.16280617 -11.41789043 6.3301071 -9.125 5.5 C-8.14853516 5.14228516 -8.14853516 5.14228516 -7.15234375 4.77734375 C-2.2265625 3 -2.2265625 3 0 3 C0 2.01 0 1.02 0 0 Z " fill="#caffff" transform="translate(147,83)"/>
<path d="M0 0 C-3.75 3.875 -3.75 3.875 -6 5 C-6.59070014 6.94603274 -6.59070014 6.94603274 -7 9 C-7.33 9.66 -7.66 10.32 -8 11 C-8.22467831 12.53668865 -8.40796805 14.07968054 -8.5625 15.625 C-8.64628906 16.44226563 -8.73007812 17.25953125 -8.81640625 18.1015625 C-8.90728516 19.04128906 -8.90728516 19.04128906 -9 20 C-9.33 20 -9.66 20 -10 20 C-10.33 17.69 -10.66 15.38 -11 13 C-11.66 13 -12.32 13 -13 13 C-13 12.01 -13 11.02 -13 10 C-14.11375 10.598125 -15.2275 11.19625 -16.375 11.8125 C-21.07683136 14.18026812 -25.93161788 15.62904418 -31 17 C-29.58010478 12.48215157 -27.59964898 10.06273635 -24 7 C-20.92313287 5.4560434 -17.74925908 4.31454009 -14.5 3.1875 C-13.65824219 2.87619141 -12.81648438 2.56488281 -11.94921875 2.24414062 C-7.76772135 0.7460451 -4.48505566 -0.17109876 0 0 Z " fill="#caffff" transform="translate(62,23)"/>
<path d="M0 0 C-2.89599934 7.37163469 -11.26171709 10.74479086 -18 14 C-18.66 14 -19.32 14 -20 14 C-20.17273438 14.60328125 -20.34546875 15.2065625 -20.5234375 15.828125 C-22.75483187 19.1102818 -25.98175935 19.68122645 -29.625 20.75 C-30.33140625 20.97042969 -31.0378125 21.19085938 -31.765625 21.41796875 C-33.50623101 21.95896792 -35.25261571 22.48131172 -37 23 C-37 22.01 -37 21.02 -37 20 C-35.50292969 18.74487305 -35.50292969 18.74487305 -33.421875 17.51171875 C-32.67292969 17.05216797 -31.92398437 16.59261719 -31.15234375 16.11914062 C-29.56746387 15.1746553 -27.98154682 14.23190794 -26.39453125 13.29101562 C-21.62323617 10.35891207 -18.71018663 7.93224825 -16 3 C-15.67 3.66 -15.34 4.32 -15 5 C-11.66851716 3.94367617 -8.44392174 2.78782492 -5.25 1.375 C-2 0 -2 0 0 0 Z " fill="#caffff" transform="translate(48,73)"/>
<path d="M0 0 C4 4.10526316 4 4.10526316 4 7 C-1.78357065 9.01167675 -6.90218999 9.22084624 -13 9 C-13 9.66 -13 10.32 -13 11 C-11.68 11.33 -10.36 11.66 -9 12 C-10.32 12.99 -11.64 13.98 -13 15 C-13.86949317 13.92892883 -14.72014205 12.84254056 -15.5625 11.75 C-16.03816406 11.14671875 -16.51382813 10.5434375 -17.00390625 9.921875 C-18 8 -18 8 -17.9765625 5.94140625 C-15.20731071 0.43613368 -5.40322907 -2.37214935 0 0 Z " fill="#caffff" transform="translate(96,187)"/>
<path d="M0 0 C0.66 0.66 1.32 1.32 2 2 C1.70640699 4.0062189 1.36270588 6.00511766 1 8 C-0.12796303 20.38307235 4.07669696 33.036151 11.75 42.75 C17.97533996 49.48353098 25.17870022 52.90056748 34 55 C33.34 55.66 32.68 56.32 32 57 C23.96411481 56.8040028 16.61562689 51.33992332 10.9140625 46.05859375 C1.24691892 35.66148218 -2.51460326 22.94489564 -2.3359375 8.9375 C-1.97068161 5.74363455 -1.11840596 3.00627522 0 0 Z " fill="#caffff" transform="translate(86,91)"/>
<path d="M0 0 C1.16144531 0.00902344 2.32289063 0.01804687 3.51953125 0.02734375 C4.39996094 0.03894531 5.28039062 0.05054687 6.1875 0.0625 C6.1875 2.7025 6.1875 5.3425 6.1875 8.0625 C5.218125 8.18625 4.24875 8.31 3.25 8.4375 C2.239375 8.64375 1.22875 8.85 0.1875 9.0625 C-0.1425 9.7225 -0.4725 10.3825 -0.8125 11.0625 C-3.46110427 11.65605614 -6.10447322 11.80459269 -8.8125 12.0625 C-9.8025 8.4325 -10.7925 4.8025 -11.8125 1.0625 C-7.60316487 0.22063297 -4.24267133 -0.04285527 0 0 Z " fill="#caffff" transform="translate(146.8125,98.9375)"/>
<path d="M0 0 C-5.75 4.875 -5.75 4.875 -8 6 C-8.65213292 8.02463255 -8.65213292 8.02463255 -9 10 C-7.72125 9.71125 -6.4425 9.4225 -5.125 9.125 C-4.40570313 8.96257812 -3.68640625 8.80015625 -2.9453125 8.6328125 C-0.79280036 8.09525572 -0.79280036 8.09525572 1 6 C2.9453125 5.3671875 2.9453125 5.3671875 5.125 4.875 C6.40375 4.58625 7.6825 4.2975 9 4 C12 7.75 12 7.75 12 10 C9.77332235 10.67493341 7.54354023 11.33963044 5.3125 12 C3.45044922 12.556875 3.45044922 12.556875 1.55078125 13.125 C-1.52816965 13.88372937 -3.86725878 14.36427224 -7 14 C-10.91382777 10.41232454 -11.59287177 7.19088499 -12 2 C-10.75579353 1.4654744 -9.50429064 0.94791389 -8.25 0.4375 C-7.55390625 0.14746094 -6.8578125 -0.14257812 -6.140625 -0.44140625 C-3.69987216 -1.07831803 -2.3596345 -0.80248831 0 0 Z " fill="#caffff" transform="translate(43,171)"/>
<path d="M0 0 C2 2 2 2 2.4375 4.4375 C2 7 2 7 -0.5 8.8125 C-1.325 9.204375 -2.15 9.59625 -3 10 C-2.67 10.99 -2.34 11.98 -2 13 C-3.24663331 13.50833591 -4.49749387 14.00631145 -5.75 14.5 C-6.44609375 14.7784375 -7.1421875 15.056875 -7.859375 15.34375 C-10 16 -10 16 -14 16 C-15.32 12.7 -16.64 9.4 -18 6 C-16.865625 5.896875 -15.73125 5.79375 -14.5625 5.6875 C-9.87477516 5.1015344 -5.3078449 3.9701085 -1 2 C-0.67 1.34 -0.34 0.68 0 0 Z " fill="#caffff" transform="translate(47,128)"/>
<path d="M0 0 C0 0.99 0 1.98 0 3 C-1.86639981 3.87279862 -3.74360611 4.72251027 -5.625 5.5625 C-7.19121094 6.27599609 -7.19121094 6.27599609 -8.7890625 7.00390625 C-12.38720152 8.12011726 -14.39347162 7.96310701 -18 7 C-20.375 5.6875 -20.375 5.6875 -22 4 C-22 2.68 -22 1.36 -22 0 C-5.63414634 -3.75609756 -5.63414634 -3.75609756 0 0 Z " fill="#caffff" transform="translate(147,83)"/>
<path d="M0 0 C2.97246802 2.54782974 4.41535288 5.45340883 6 9 C6 9.66 6 10.32 6 11 C6.969375 10.236875 7.93875 9.47375 8.9375 8.6875 C12.99574937 5.76023816 17.21492303 4.33461331 22 3 C24.0625 5.3125 24.0625 5.3125 26 8 C25.67 8.99 25.34 9.98 25 11 C22.234375 12.203125 22.234375 12.203125 18.75 13.25 C17.04070312 13.78367188 17.04070312 13.78367188 15.296875 14.328125 C11.98020201 15.00403466 10.15350048 15.17913496 7 14 C3.42441493 10.12875932 1.38204132 5.02560479 0 0 Z " fill="#caffff" transform="translate(84,202)"/>
<path d="M0 0 C0.763125 0.061875 1.52625 0.12375 2.3125 0.1875 C2.36672947 1.6245809 2.40539723 3.06225462 2.4375 4.5 C2.46070312 5.30050781 2.48390625 6.10101563 2.5078125 6.92578125 C2.3125 9.1875 2.3125 9.1875 0.3125 12.1875 C-1.60009535 12.48428204 -3.51726408 12.76800124 -5.4453125 12.9375 C-8.96056109 13.32944409 -12.27450121 14.2733039 -15.6875 15.1875 C-15.98828125 12.9140625 -15.98828125 12.9140625 -15.6875 10.1875 C-13.60546875 8.2734375 -13.60546875 8.2734375 -10.875 6.5625 C-7.24012423 4.28945368 -7.24012423 4.28945368 -4.03125 1.48828125 C-2.6875 0.1875 -2.6875 0.1875 0 0 Z " fill="#caffff" transform="translate(49.6875,58.8125)"/>
<path d="M0 0 C0.99 0.33 1.98 0.66 3 1 C5.23444478 5.93929899 6.0895201 10.86100426 4.27734375 16.08203125 C0.97473728 23.28893363 -4.59490642 26.51416011 -11.3125 30.25 C-11.95767578 30.61351562 -12.60285156 30.97703125 -13.26757812 31.3515625 C-14.84281416 32.23836205 -16.42109714 33.11974563 -18 34 C-18.66 33.34 -19.32 32.68 -20 32 C-16.00250834 28.2203553 -12.15293992 24.91997545 -7.25 22.375 C-3.52666284 20.37507279 -0.98413014 18.88199376 1 15 C1.56703201 9.95508288 1.31118832 4.91695619 0 0 Z " fill="#caffff" transform="translate(210,109)"/>
<path d="M0 0 C3.20857194 2.09710584 6.11206231 4.48428539 9 7 C8.125 10.875 8.125 10.875 7 12 C2.76366931 12.81121226 0.96643045 12.64194581 -2.6875 10.21484375 C-5.18573554 8.20277052 -7.61757478 6.14753823 -10 4 C-9.67 3.01 -9.34 2.02 -9 1 C-5.47155796 -0.17614735 -3.71065272 -0.54972633 0 0 Z " fill="#caffff" transform="translate(33,115)"/>
<path d="M0 0 C0 0.66 0 1.32 0 2 C0.78375 2.268125 1.5675 2.53625 2.375 2.8125 C5 4 5 4 7 7 C5.16927083 7.45768229 3.33854167 7.91536458 1.5078125 8.37304688 C0.39019531 8.65245117 0.39019531 8.65245117 -0.75 8.9375 C-3.91357422 9.72839355 -3.91357422 9.72839355 -7.07714844 10.51928711 C-7.71168945 10.67792236 -8.34623047 10.83655762 -9 11 C-9.74024414 11.18506104 -10.48048828 11.37012207 -11.24316406 11.56079102 C-12.11279785 11.77819946 -12.11279785 11.77819946 -13 12 C-13.33 9.69 -13.66 7.38 -14 5 C-12.56328432 4.35242375 -11.12559584 3.70700547 -9.6875 3.0625 C-8.88699219 2.70285156 -8.08648437 2.34320313 -7.26171875 1.97265625 C-2.6746988 0 -2.6746988 0 0 0 Z " fill="#caffff" transform="translate(22,104)"/>
<path d="M0 0 C0.99 0.66 1.98 1.32 3 2 C1.49083861 9.33021247 -3.65586787 18.531712 -9.625 22.9375 C-10.800625 23.4634375 -10.800625 23.4634375 -12 24 C-12.66 23.67 -13.32 23.34 -14 23 C-14.625 20.9375 -14.625 20.9375 -15 19 C-14.42378906 18.80148438 -13.84757812 18.60296875 -13.25390625 18.3984375 C-10.13275205 16.46191548 -8.7156521 13.73590965 -6.9375 10.625 C-4.78337557 6.94862764 -2.64872331 3.35009864 0 0 Z " fill="#caffff" transform="translate(109,6)"/>
<path d="M0 0 C0.66 0 1.32 0 2 0 C5.23579767 7.39610896 6.33276519 14.01363551 6 22 C5.34 22.33 4.68 22.66 4 23 C3.67 22.01 3.34 21.02 3 20 C0.98491642 19.26676204 0.98491642 19.26676204 -1 19 C-2.46670113 13.77487721 -3.22577402 9.4185766 -3 4 C-2.34 3.67 -1.68 3.34 -1 3 C-0.67 2.01 -0.34 1.02 0 0 Z " fill="#caffff" transform="translate(48,39)"/>
<path d="M0 0 C0.99 0.33 1.98 0.66 3 1 C3.06058594 1.67546875 3.12117188 2.3509375 3.18359375 3.046875 C3.26738281 3.93890625 3.35117187 4.8309375 3.4375 5.75 C3.55931641 7.07257813 3.55931641 7.07257813 3.68359375 8.421875 C4.07331695 11.77652896 4.07331695 11.77652896 5 15 C5.99 15.33 6.98 15.66 8 16 C9.35432675 17.31200404 10.68733482 18.64631404 12 20 C12.99 20.66 13.98 21.32 15 22 C15 22.66 15 23.32 15 24 C16.65 24.66 18.3 25.32 20 26 C20 26.66 20 27.32 20 28 C20.5775 28.226875 21.155 28.45375 21.75 28.6875 C24.76818146 30.44810585 26.1548117 32.0095224 28 35 C28.60778633 37.99372438 28.86713817 40.95082107 29 44 C27 41 27 41 25.9921875 38.96899414 C22.97091486 32.89409694 19.43814581 29.39570761 14 25.4375 C8.47573152 21.38603004 3.74156333 17.45931433 1 11 C1 9.68 1 8.36 1 7 C0.34 7 -0.32 7 -1 7 C-0.67 4.69 -0.34 2.38 0 0 Z " fill="#caffff" transform="translate(26,94)"/>
<path d="M0 0 C0.33 0.66 0.66 1.32 1 2 C3.58605332 2.4683265 3.58605332 2.4683265 6.5625 2.625 C8.08037109 2.73714844 8.08037109 2.73714844 9.62890625 2.8515625 C10.80259766 2.92503906 10.80259766 2.92503906 12 3 C11.01 3.495 11.01 3.495 10 4 C10.01160156 4.71027344 10.02320313 5.42054687 10.03515625 6.15234375 C10.04869141 7.53099609 10.04869141 7.53099609 10.0625 8.9375 C10.07410156 9.85402344 10.08570313 10.77054688 10.09765625 11.71484375 C10 14 10 14 9 15 C7.00041636 15.04080783 4.99954746 15.04254356 3 15 C3 14.01 3 13.02 3 12 C2.34 12 1.68 12 1 12 C0.01751476 7.9472484 -0.08159574 4.16138263 0 0 Z " fill="#caffff" transform="translate(30,42)"/>
<path d="M0 0 C1 2 1 2 0.44140625 4.1640625 C0.15136719 4.97617187 -0.13867188 5.78828125 -0.4375 6.625 C-0.86869141 7.85089844 -0.86869141 7.85089844 -1.30859375 9.1015625 C-1.53675781 9.72804688 -1.76492187 10.35453125 -2 11 C-7.50016964 12.30267176 -12.47032059 11.71033431 -18 11 C-18 10.01 -18 9.02 -18 8 C-16.78441406 7.50628906 -15.56882813 7.01257812 -14.31640625 6.50390625 C-12.7317169 5.85690291 -11.14708441 5.2097603 -9.5625 4.5625 C-8.76005859 4.23701172 -7.95761719 3.91152344 -7.13085938 3.57617188 C-5.98520508 3.10727539 -5.98520508 3.10727539 -4.81640625 2.62890625 C-4.10943604 2.34088135 -3.40246582 2.05285645 -2.67407227 1.75610352 C-1.00167233 1.11946155 -1.00167233 1.11946155 0 0 Z " fill="#caffff" transform="translate(49,32)"/>
<path d="M0 0 C-2.08578843 4.65291266 -3.8933266 6.57730418 -8.72265625 8.421875 C-10.16623079 8.87439791 -11.61300447 9.31681743 -13.0625 9.75 C-13.79533203 9.98332031 -14.52816406 10.21664062 -15.28320312 10.45703125 C-20.73919501 12.1304025 -20.73919501 12.1304025 -23 11 C-22.04367001 9.70684939 -21.08486149 8.41553147 -20.125 7.125 C-19.59132812 6.40570313 -19.05765625 5.68640625 -18.5078125 4.9453125 C-17 3 -17 3 -15 1 C-15 1.99 -15 2.98 -15 4 C-14.00419922 3.566875 -14.00419922 3.566875 -12.98828125 3.125 C-11.66376953 2.568125 -11.66376953 2.568125 -10.3125 2 C-9.44238281 1.62875 -8.57226562 1.2575 -7.67578125 0.875 C-4.9427998 -0.01870488 -2.85299066 -0.16449676 0 0 Z " fill="#caffff" transform="translate(148,135)"/>
<path d="M0 0 C1 3 1 3 0.3203125 4.7890625 C-2.85717639 9.66951929 -2.85717639 9.66951929 -6.09375 10.60546875 C-7.6281395 10.74471985 -9.16719979 10.83903936 -10.70703125 10.890625 C-14.01654152 11.0484892 -16.85454593 11.99613168 -20 13 C-19.53199289 8.94393835 -19.12046792 5.53411321 -17 2 C-16.67 3.65 -16.34 5.3 -16 7 C-13.51956646 6.02394493 -11.04064915 5.04432337 -8.5625 4.0625 C-7.50192383 3.64581055 -7.50192383 3.64581055 -6.41992188 3.22070312 C-2.95326119 2.03777966 -2.95326119 2.03777966 0 0 Z " fill="#caffff" transform="translate(153,126)"/>
<path d="M0 0 C2 1 2 1 3.14453125 3.5546875 C4.13387398 7.53916369 4.03616683 11.08346404 3.6875 15.125 C3.63916016 15.82753906 3.59082031 16.53007812 3.54101562 17.25390625 C3.29004085 20.61506209 2.81768578 23.74223601 2 27 C1.77882441 29.4138176 1.59427758 31.83114597 1.4375 34.25 C1.31181641 36.14492187 1.31181641 36.14492187 1.18359375 38.078125 C1.12300781 39.04234375 1.06242187 40.0065625 1 41 C0.34 40.34 -0.32 39.68 -1 39 C-1 38.01 -1 37.02 -1 36 C-1.99 35.67 -2.98 35.34 -4 35 C-3.72285156 33.92363281 -3.44570313 32.84726563 -3.16015625 31.73828125 C0.97461712 16.00733192 0.97461712 16.00733192 0 0 Z " fill="#caffff" transform="translate(51,131)"/>
<path d="M0 0 C-2.64738916 1.4606285 -3.89448334 2 -7 2 C-7 2.66 -7 3.32 -7 4 C-7.99 4 -8.98 4 -10 4 C-10 4.66 -10 5.32 -10 6 C-12.72923388 6.0270817 -15.45819637 6.04687847 -18.1875 6.0625 C-18.95642578 6.07087891 -19.72535156 6.07925781 -20.51757812 6.08789062 C-24.48526789 6.10491934 -28.12571234 5.98604115 -32 5 C-24.16925063 -1.67063835 -9.84749682 -0.20096932 0 0 Z " fill="#caffff" transform="translate(83,182)"/>
<path d="M0 0 C0.99 0 1.98 0 3 0 C6.66315731 7.91241978 6.02315708 13.92571246 4 22.25 C2.51548428 28.39855393 2.34031652 34.70414431 2 41 C1.34 40.67 0.68 40.34 0 40 C-0.18708387 32.20483857 -0.22730641 24.90241755 1.546875 17.2734375 C2.75921731 11.19082349 2.361833 5.75696794 0 0 Z " fill="#caffff" transform="translate(186,43)"/>
<path d="M0 0 C1 3 1 3 0 9 C-8.415 9.495 -8.415 9.495 -17 10 C-16.67 8.68 -16.34 7.36 -16 6 C-13.28555039 4.71498368 -10.76555462 3.69671 -7.9375 2.75 C-7.17888672 2.481875 -6.42027344 2.21375 -5.63867188 1.9375 C-3.76411958 1.27728033 -1.88265428 0.63674891 0 0 Z " fill="#caffff" transform="translate(25,93)"/>
<path d="M0 0 C4.47868278 5.37688015 5.36348413 11.87633042 4.875 18.75 C4.1194938 23.89290364 1.63785733 27.36214267 -2 31 C-5.125 30.625 -5.125 30.625 -8 30 C-6.21829434 28.12452035 -4.41702241 26.54194618 -2.375 24.9375 C0.06031981 23.22133095 0.06031981 23.22133095 1 21 C1.41522983 13.96551813 0.84797784 6.98067474 0 0 Z " fill="#caffff" transform="translate(187,163)"/>
<path d="M0 0 C0.33 0.99 0.66 1.98 1 3 C-2.96 4.98 -2.96 4.98 -7 7 C-7 7.33 -7 7.66 -7 8 C-11.455 8.495 -11.455 8.495 -16 9 C-15.875 6.75 -15.875 6.75 -15 4 C-10.55811167 0.36572773 -5.6819711 -2.43513047 0 0 Z " fill="#caffff" transform="translate(50,172)"/>
<path d="M0 0 C0 0.99 0 1.98 0 3 C3.3 4.65 6.6 6.3 10 8 C8.68 8.99 7.36 9.98 6 11 C5.01 10.67 4.02 10.34 3 10 C3.66 9.67 4.32 9.34 5 9 C0.49807763 5.48630449 -2.29008444 4.45096966 -8 5 C-8.99 5.495 -8.99 5.495 -10 6 C-9.67 6.66 -9.34 7.32 -9 8 C-11.31 7.67 -13.62 7.34 -16 7 C-14.97386916 4.02422056 -14.03368909 3.02245939 -11.375 1.25 C-7.25131983 -0.27728895 -4.36676486 -0.22586715 0 0 Z " fill="#caffff" transform="translate(157,189)"/>
<path d="M0 0 C-0.33 0.99 -0.66 1.98 -1 3 C-1.66 3 -2.32 3 -3 3 C-3 3.99 -3 4.98 -3 6 C-3.78375 6.28875 -4.5675 6.5775 -5.375 6.875 C-8.09671632 7.84912254 -8.09671632 7.84912254 -10 10 C-10.763125 9.38125 -11.52625 8.7625 -12.3125 8.125 C-14.99625809 5.94402948 -14.99625809 5.94402948 -18 4 C-16.68 4 -15.36 4 -14 4 C-14 3.34 -14 2.68 -14 2 C-9.126739 0.4087311 -5.19209404 -0.21192221 0 0 Z " fill="#caffff" transform="translate(87,184)"/>
<path d="M0 0 C1.98 0 3.96 0 6 0 C6 0.66 6 1.32 6 2 C6.99 2.33 7.98 2.66 9 3 C7.948125 3.4125 6.89625 3.825 5.8125 4.25 C2.39532881 5.70075075 -0.12043273 7.65087934 -3 10 C-3.9075 10.309375 -4.815 10.61875 -5.75 10.9375 C-6.4925 11.288125 -7.235 11.63875 -8 12 C-8.89386164 14.54775306 -8.89386164 14.54775306 -9 17 C-10.71466036 13.57067929 -10.05404056 9.78283935 -10 6 C-6.04 5.01 -2.08 4.02 2 3 C2 2.34 2 1.68 2 1 C1.34 0.67 0.68 0.34 0 0 Z " fill="#caffff" transform="translate(43,138)"/>
<path d="M0 0 C0.33 0 0.66 0 1 0 C1 1.65 1 3.3 1 5 C5.62 5 10.24 5 15 5 C15 5.99 15 6.98 15 8 C6.69741697 9.900369 6.69741697 9.900369 2.5 10.5 C1.675 10.665 0.85 10.83 0 11 C-0.33 11.66 -0.66 12.32 -1 13 C-1.07654536 8.48382401 -1.10228696 4.40914783 0 0 Z " fill="#caffff" transform="translate(31,162)"/>
<path d="M0 0 C2.5136321 2.5136321 2.29736484 3.39391367 2.3125 6.875 C2.23422487 12.2973319 1.08292714 17.08484204 -0.3203125 22.296875 C-2.23177056 29.89876569 -0.02957097 36.64280524 2 44 C-1.3620751 40.94356809 -2.86413723 38.550434 -3.265625 33.96875 C-3.23473669 27.11154425 -2.79025609 20.64741332 -1.51171875 13.91015625 C-0.70148419 9.30233376 -0.34874465 4.66216537 0 0 Z " fill="#caffff" transform="translate(55,135)"/>
<path d="M0 0 C2.11635213 2.57642867 3.67339287 4.62505968 4 8 C3.01 9.485 3.01 9.485 2 11 C-0.7885289 11.22107787 -3.34653181 11.28107535 -6.125 11.1875 C-6.87910156 11.17396484 -7.63320312 11.16042969 -8.41015625 11.14648438 C-10.27374127 11.11109985 -12.13695978 11.05729167 -14 11 C-11.44197773 8.96482624 -9.54912707 7.82597887 -6.4375 6.625 C-2.70622441 4.86112426 -1.68985281 3.67791493 0 0 Z " fill="#caffff" transform="translate(150,87)"/>
<path d="M0 0 C-1.98 0.99 -3.96 1.98 -6 3 C-5.67 3.99 -5.34 4.98 -5 6 C-11.435 7.98 -11.435 7.98 -18 10 C-18 10.99 -18 11.98 -18 13 C-19.32 13.33 -20.64 13.66 -22 14 C-20.64112459 9.67630553 -18.76991767 6.52879251 -15 4 C-3.07078507 -1.53539254 -3.07078507 -1.53539254 0 0 Z " fill="#caffff" transform="translate(53,26)"/>
<path d="M0 0 C0.33 1.32 0.66 2.64 1 4 C-3.62 6.97 -8.24 9.94 -13 13 C-13.99 12.34 -14.98 11.68 -16 11 C-10.98601602 6.25271729 -6.31506393 2.81922497 0 0 Z " fill="#caffff" transform="translate(206,130)"/>
<path d="M0 0 C1.32 0 2.64 0 4 0 C4.33 1.65 4.66 3.3 5 5 C5.66 5 6.32 5 7 5 C8.2890625 6.609375 8.2890625 6.609375 9.625 8.75 C10.29402344 9.79414063 10.29402344 9.79414063 10.9765625 10.859375 C12 13 12 13 12 17 C8.37 16.67 4.74 16.34 1 16 C5 14 5 14 9 14 C7.2476366 10.76486756 5.46527449 7.74335318 3 5 C-0.75643424 4.24586647 -0.75643424 4.24586647 -4 5 C-2.68 4.34 -1.36 3.68 0 3 C0 2.01 0 1.02 0 0 Z " fill="#caffff" transform="translate(46,167)"/>
<path d="M0 0 C0.52335937 0.24105469 1.04671875 0.48210937 1.5859375 0.73046875 C0.7609375 1.51421875 -0.0640625 2.29796875 -0.9140625 3.10546875 C-3.64394756 5.36768139 -3.64394756 5.36768139 -3.4140625 7.73046875 C-8.0340625 9.05046875 -12.6540625 10.37046875 -17.4140625 11.73046875 C-15.23037246 7.36308868 -13.04716225 5.83253986 -9.0390625 3.41796875 C-8.4615625 3.04607422 -7.8840625 2.67417969 -7.2890625 2.29101562 C-3.00453587 -0.33545789 -3.00453587 -0.33545789 0 0 Z " fill="#caffff" transform="translate(27.4140625,84.26953125)"/>
<path d="M0 0 C-1.33149559 2.97970614 -2.80385601 4.91681566 -5.125 7.1875 C-7.63744035 10.03004201 -8.41851619 11.82191085 -8.4375 15.625 C-8.21472225 18.80365813 -7.79752164 21.90960365 -7 25 C-9.63522856 21.9631457 -10.39596778 19.93350957 -10.625 15.9375 C-10.81156872 12.98349519 -11.05525516 10.83423453 -12 8 C-4.43243243 0 -4.43243243 0 0 0 Z " fill="#caffff" transform="translate(39,84)"/>
<path d="M0 0 C-1.41573821 3.39187279 -3.04230966 5.09697541 -6 7.25 C-7.051875 8.03117187 -7.051875 8.03117187 -8.125 8.828125 C-10 10 -10 10 -12 10 C-12.33 7.69 -12.66 5.38 -13 3 C-4.57142857 -0.42857143 -4.57142857 -0.42857143 0 0 Z " fill="#caffff" transform="translate(46,59)"/>
<path d="M0 0 C1.65 0.66 3.3 1.32 5 2 C5 2.33 5 2.66 5 3 C3.71416016 3.14695313 3.71416016 3.14695313 2.40234375 3.296875 C-8.48294561 4.69123253 -8.48294561 4.69123253 -16.9375 11.25 C-17.288125 11.8275 -17.63875 12.405 -18 13 C-17.76284882 8.88937957 -17.63415913 6.66939019 -14.75 3.625 C-10.12095346 0.88965431 -6.27491306 1 -1 1 C-0.67 0.67 -0.34 0.34 0 0 Z " fill="#caffff" transform="translate(157,185)"/>
<path d="M0 0 C0.99 0.66 1.98 1.32 3 2 C2.90234375 3.859375 2.90234375 3.859375 2 6 C-0.87109375 7.265625 -0.87109375 7.265625 -4.4375 8.25 C-5.61183594 8.58515625 -6.78617188 8.9203125 -7.99609375 9.265625 C-11 10 -11 10 -13 10 C-11.78116567 6.34349701 -10.9451769 6.151313 -7.625 4.4375 C-4.96348656 3.04605731 -2.50623345 1.6708223 0 0 Z " fill="#caffff" transform="translate(44,125)"/>
<path d="M0 0 C-4.953441 4.79365259 -10.36225393 5.85152057 -17.0625 6.125 C-17.701875 6.08375 -18.34125 6.0425 -19 6 C-15.80054133 2.23593098 -11.38494763 -0.01796274 -6.875 -1.875 C-4.22682362 -2.05154509 -2.36629572 -1.11741742 0 0 Z " fill="#caffff" transform="translate(140,76)"/>
<path d="M0 0 C-7.26299426 4.84199617 -16.26257571 7.87374243 -25 7 C-25 6.67 -25 6.34 -25 6 C-24.11248047 5.72736328 -24.11248047 5.72736328 -23.20703125 5.44921875 C-18.17277728 3.89464981 -18.17277728 3.89464981 -13.625 1.3125 C-9.31460191 -0.84269905 -4.7320049 -0.22375505 0 0 Z " fill="#caffff" transform="translate(181,195)"/>
<path d="M0 0 C-0.58984375 1.8359375 -0.58984375 1.8359375 -2 4 C-5.00390625 5.4140625 -5.00390625 5.4140625 -8.5625 6.625 C-13.11419992 7.80390157 -13.11419992 7.80390157 -16 11 C-17.65 11 -19.3 11 -21 11 C-19.35 8.36 -17.7 5.72 -16 3 C-15.67 3.66 -15.34 4.32 -15 5 C-11.66851716 3.94367617 -8.44392174 2.78782492 -5.25 1.375 C-2 0 -2 0 0 0 Z " fill="#caffff" transform="translate(48,73)"/>
<path d="M0 0 C0.33 0 0.66 0 1 0 C2.01399293 6.42195525 -1.43936274 10.96659307 -5 16 C-6.5 17.7890625 -6.5 17.7890625 -8 19 C-11.1875 19.1875 -11.1875 19.1875 -14 19 C-13.071875 18.87625 -13.071875 18.87625 -12.125 18.75 C-9.85973865 18.20746992 -9.85973865 18.20746992 -8.9375 16.1875 C-8.628125 15.465625 -8.31875 14.74375 -8 14 C-7.54109375 13.40316406 -7.0821875 12.80632812 -6.609375 12.19140625 C-4.86063935 9.8102395 -3.60474816 7.40434758 -2.3125 4.75 C-1.87550781 3.85796875 -1.43851563 2.9659375 -0.98828125 2.046875 C-0.66214844 1.37140625 -0.33601562 0.6959375 0 0 Z " fill="#caffff" transform="translate(137,195)"/>
<path d="M0 0 C0.99 0 1.98 0 3 0 C3.53293835 1.74635165 4.05090663 3.49727652 4.5625 5.25 C4.85253906 6.22453125 5.14257812 7.1990625 5.44140625 8.203125 C5.99249836 10.96243932 5.93789609 12.3912824 5 15 C4.01 15 3.02 15 2 15 C0.53329887 9.77487721 -0.22577402 5.4185766 0 0 Z " fill="#caffff" transform="translate(45,43)"/>
<path d="M0 0 C5.54955043 0.57610313 10.26029497 2.02098548 15.4375 4.0625 C16.16904297 4.34416016 16.90058594 4.62582031 17.65429688 4.91601562 C19.43873546 5.60413247 21.21973905 6.30114606 23 7 C22.67 7.66 22.34 8.32 22 9 C14.877637 8.51438434 6.52924006 6.15852156 1.140625 1.3359375 C0.76421875 0.89507813 0.3878125 0.45421875 0 0 Z " fill="#caffff" transform="translate(63,23)"/>
<path d="M0 0 C-7.26299426 4.84199617 -16.26257571 7.87374243 -25 7 C-25 6.67 -25 6.34 -25 6 C-24.43152344 5.81824219 -23.86304687 5.63648438 -23.27734375 5.44921875 C-19.55086351 4.23609079 -16.03903092 3.01881848 -12.5 1.3125 C-8.17962538 -0.30764048 -4.55338295 -0.27877855 0 0 Z " fill="#caffff" transform="translate(125,215)"/>
<path d="M0 0 C0 0.66 0 1.32 0 2 C-6.95764769 6.02265983 -6.95764769 6.02265983 -10.875 5.9375 C-13 5 -13 5 -15 2 C-9.87080814 -0.10428384 -5.4389165 -0.21755666 0 0 Z " fill="#caffff" transform="translate(108,215)"/>
<path d="M0 0 C2.0078125 0.1328125 2.0078125 0.1328125 5.0078125 1.1328125 C5.0078125 1.7928125 5.0078125 2.4528125 5.0078125 3.1328125 C3.76117919 3.64114841 2.51031863 4.13912395 1.2578125 4.6328125 C0.56171875 4.91125 -0.134375 5.1896875 -0.8515625 5.4765625 C-2.9921875 6.1328125 -2.9921875 6.1328125 -6.9921875 6.1328125 C-7.0349085 4.46669345 -7.03282582 2.79898365 -6.9921875 1.1328125 C-5.11159717 -0.74777783 -2.49328712 0.00920032 0 0 Z " fill="#caffff" transform="translate(39.9921875,137.8671875)"/>
<path d="M0 0 C0.66 0.33 1.32 0.66 2 1 C2 3.31 2 5.62 2 8 C2.66 8 3.32 8 4 8 C4.81434143 10.85160391 5.11881242 13.36626131 5.09765625 16.328125 C5.09443359 17.12734375 5.09121094 17.9265625 5.08789062 18.75 C5.07951172 19.575 5.07113281 20.4 5.0625 21.25 C5.05798828 22.09046875 5.05347656 22.9309375 5.04882812 23.796875 C5.03707961 25.86461401 5.01914522 27.93231624 5 30 C4.67 30 4.34 30 4 30 C3.94392578 28.81857422 3.94392578 28.81857422 3.88671875 27.61328125 C3.39582877 19.47990808 2.0507265 11.88046474 0 4 C-0.66 4 -1.32 4 -2 4 C-1.34 2.68 -0.68 1.36 0 0 Z " fill="#caffff" transform="translate(50,35)"/>
<path d="M0 0 C0.33 0 0.66 0 1 0 C1 1.65 1 3.3 1 5 C1.99 4.67 2.98 4.34 4 4 C4 7.63 4 11.26 4 15 C1 11 1 11 1 9 C-3.455 10.485 -3.455 10.485 -8 12 C-7.34 10.68 -6.68 9.36 -6 8 C-3.375 7.25 -3.375 7.25 -1 7 C-0.67 4.69 -0.34 2.38 0 0 Z " fill="#caffff" transform="translate(153,99)"/>
<path d="M0 0 C0 0.66 0 1.32 0 2 C-1.74411301 3.23662862 -3.54706485 4.39102135 -5.375 5.5 C-9.42943147 7.94216507 -9.42943147 7.94216507 -13 11 C-13.33 9.02 -13.66 7.04 -14 5 C-12.56328432 4.35242375 -11.12559584 3.70700547 -9.6875 3.0625 C-8.88699219 2.70285156 -8.08648437 2.34320313 -7.26171875 1.97265625 C-2.6746988 0 -2.6746988 0 0 0 Z " fill="#caffff" transform="translate(22,104)"/>
<path d="M0 0 C0 0.66 0 1.32 0 2 C-8.261959 6.59225513 -8.261959 6.59225513 -13 6 C-13 4.02 -13 2.04 -13 0 C-12.67 0.66 -12.34 1.32 -12 2 C-11.20335937 1.65775391 -11.20335937 1.65775391 -10.390625 1.30859375 C-9.33101562 0.87740234 -9.33101562 0.87740234 -8.25 0.4375 C-7.55390625 0.14746094 -6.8578125 -0.14257812 -6.140625 -0.44140625 C-3.69987216 -1.07831803 -2.3596345 -0.80248831 0 0 Z " fill="#caffff" transform="translate(46,72)"/>
<path d="M0 0 C8.56158924 0.01184176 8.56158924 0.01184176 12.19921875 3.06640625 C12.96234375 3.89140625 13.72546875 4.71640625 14.51171875 5.56640625 C13.52171875 5.89640625 12.53171875 6.22640625 11.51171875 6.56640625 C10.63773438 6.10621094 10.63773438 6.10621094 9.74609375 5.63671875 C6.67724907 4.16667777 4.14354476 4.37376973 0.76171875 4.44140625 C-0.40875 4.45945313 -1.57921875 4.4775 -2.78515625 4.49609375 C-3.6771875 4.51929688 -4.56921875 4.5425 -5.48828125 4.56640625 C-3.87947917 1.85995995 -3.13596637 0.7138385 0 0 Z " fill="#caffff" transform="translate(170.48828125,34.43359375)"/>
<path d="M0 0 C0 0.99 0 1.98 0 3 C-5.38027025 4.19088986 -10.45291384 5.2919519 -16 5 C-11.45736412 0.88323623 -5.64265934 -3.76177289 0 0 Z " fill="#caffff" transform="translate(108,207)"/>
<path d="M0 0 C0.85980469 0.26425781 1.71960938 0.52851563 2.60546875 0.80078125 C4.8125 1.6875 4.8125 1.6875 6.8125 3.6875 C3.5907945 5.44479391 2.29185093 5.82583214 -1.30078125 4.7890625 C-2.35652344 4.30179688 -3.41226563 3.81453125 -4.5 3.3125 C-5.56863281 2.83039063 -6.63726562 2.34828125 -7.73828125 1.8515625 C-8.54652344 1.46742188 -9.35476562 1.08328125 -10.1875 0.6875 C-10.1875 0.3575 -10.1875 0.0275 -10.1875 -0.3125 C-6.29589001 -1.35352314 -3.82578769 -1.22124236 0 0 Z " fill="#caffff" transform="translate(164.1875,191.3125)"/>
<path d="M0 0 C4.73695086 1.49126231 9.00581819 3.72248366 13.375 6.0625 C11.375 7.0625 11.375 7.0625 8.25 6.125 C7.30125 5.774375 6.3525 5.42375 5.375 5.0625 C5.375 4.4025 5.375 3.7425 5.375 3.0625 C2.9 4.5475 2.9 4.5475 0.375 6.0625 C0.375 5.4025 0.375 4.7425 0.375 4.0625 C-1.935 4.0625 -4.245 4.0625 -6.625 4.0625 C-3.48970588 0.08308824 -3.48970588 0.08308824 0 0 Z " fill="#caffff" transform="translate(125.625,67.9375)"/>
<path d="M0 0 C-0.433125 1.051875 -0.433125 1.051875 -0.875 2.125 C-2.02133588 5.05452503 -3.02625654 8.00921653 -4 11 C-5.65 11.33 -7.3 11.66 -9 12 C-8.49289581 7.63890395 -7.63658349 4.54924701 -5 1 C-2 0 -2 0 0 0 Z " fill="#caffff" transform="translate(93,15)"/>
<path d="M0 0 C0.66 1.65 1.32 3.3 2 5 C-2.53701494 6.45184478 -6.18061476 7.23509196 -11 7 C-4.48275862 0 -4.48275862 0 0 0 Z " fill="#caffff" transform="translate(98,189)"/>
<path d="M0 0 C0.66 0.66 1.32 1.32 2 2 C1 5 1 5 -0.8203125 6.0625 C-1.58085937 6.371875 -2.34140625 6.68125 -3.125 7 C-3.93066406 7.33515625 -4.73632812 7.6703125 -5.56640625 8.015625 C-6.36949219 8.34046875 -7.17257813 8.6653125 -8 9 C-9.35537379 9.58052307 -10.70969788 10.1635091 -12.0625 10.75 C-13.5165625 11.36875 -13.5165625 11.36875 -15 12 C-15.33 10.68 -15.66 9.36 -16 8 C-13.70967689 7.16280617 -11.41789043 6.3301071 -9.125 5.5 C-8.14853516 5.14228516 -8.14853516 5.14228516 -7.15234375 4.77734375 C-2.2265625 3 -2.2265625 3 0 3 C0 2.01 0 1.02 0 0 Z " fill="#caffff" transform="translate(147,83)"/>
<path d="M0 0 C-1.65 1.32 -3.3 2.64 -5 4 C-5.66 3.67 -6.32 3.34 -7 3 C-10.07620099 4.20850753 -13.0444357 5.52221785 -16 7 C-16 7.66 -16 8.32 -16 9 C-18.31 9.66 -20.62 10.32 -23 11 C-20.99572834 6.21367963 -17.59037715 4.9230954 -13 3 C-2.50408922 -1.25204461 -2.50408922 -1.25204461 0 0 Z " fill="#caffff" transform="translate(112,5)"/>
<path d="M0 0 C2 2 2 2 2.125 4.625 C2.08375 5.40875 2.0425 6.1925 2 7 C-0.0625 8.1875 -0.0625 8.1875 -3 9 C-5.54812724 8.27873258 -7.62082896 7.21291073 -10 6 C-7.79480277 4.8565644 -5.64455335 3.86774078 -3.3125 3 C-0.84572401 2.22765821 -0.84572401 2.22765821 0 0 Z " fill="#caffff" transform="translate(47,128)"/>
<path d="M0 0 C-0.33 0.99 -0.66 1.98 -1 3 C-2.76586914 3.70776367 -2.76586914 3.70776367 -5.03515625 4.16796875 C-5.84404297 4.33876953 -6.65292969 4.50957031 -7.48632812 4.68554688 C-8.7615332 4.93401367 -8.7615332 4.93401367 -10.0625 5.1875 C-11.34350586 5.45336914 -11.34350586 5.45336914 -12.65039062 5.72460938 C-14.76450895 6.1616059 -16.88197834 6.58233206 -19 7 C-14.14702392 1.90101651 -7.03980022 -0.7410316 0 0 Z " fill="#caffff" transform="translate(119,67)"/>
<path d="M0 0 C0.99 0 1.98 0 3 0 C5.99415978 6.46738512 6.18933594 11.00727785 5 18 C2.99611255 14.99416882 2.73589265 14.10204608 2.5 10.6875 C2.15770682 6.87871042 1.38054769 3.58942399 0 0 Z " fill="#caffff" transform="translate(186,43)"/>
<path d="M0 0 C0.33 0.66 0.66 1.32 1 2 C-5.0605925 5.36561591 -10.03949747 7.61330541 -17 8 C-13.8032695 4.23355515 -10.96624314 3.07054808 -6.25 1.75 C-5.07953125 1.41484375 -3.9090625 1.0796875 -2.703125 0.734375 C-1.81109375 0.49203125 -0.9190625 0.2496875 0 0 Z " fill="#caffff" transform="translate(50,30)"/>
<path d="M0 0 C-6.76923077 5.84615385 -6.76923077 5.84615385 -10 7 C-10.66 6.67 -11.32 6.34 -12 6 C-12 4.68 -12 3.36 -12 2 C-10.75579353 1.4654744 -9.50429064 0.94791389 -8.25 0.4375 C-7.55390625 0.14746094 -6.8578125 -0.14257812 -6.140625 -0.44140625 C-3.69987216 -1.07831803 -2.3596345 -0.80248831 0 0 Z " fill="#caffff" transform="translate(43,171)"/>
<path d="M0 0 C0.33 0.66 0.66 1.32 1 2 C3.58605332 2.4683265 3.58605332 2.4683265 6.5625 2.625 C8.08037109 2.73714844 8.08037109 2.73714844 9.62890625 2.8515625 C10.80259766 2.92503906 10.80259766 2.92503906 12 3 C9.71540242 5.28459758 7.87462656 5.97129748 4.875 7.125 C3.96492187 7.47820312 3.05484375 7.83140625 2.1171875 8.1953125 C1.41851562 8.46085937 0.71984375 8.72640625 0 9 C0 6.03 0 3.06 0 0 Z " fill="#caffff" transform="translate(7,101)"/>
<path d="M0 0 C8.28508165 -0.8248422 14.65746413 1.16608095 22 5 C22.66 5.66 23.32 6.32 24 7 C18.81237194 6.43612739 14.10610793 5.21160269 9.13671875 3.62109375 C7.05077446 2.90695882 7.05077446 2.90695882 5 3 C5 2.34 5 1.68 5 1 C3.35 1 1.7 1 0 1 C0 0.67 0 0.34 0 0 Z " fill="#caffff" transform="translate(152,188)"/>
<path d="M0 0 C0.94101562 0.00322266 1.88203125 0.00644531 2.8515625 0.00976562 C3.83640625 0.01814453 4.82125 0.02652344 5.8359375 0.03515625 C6.82851563 0.03966797 7.82109375 0.04417969 8.84375 0.04882812 C11.2995391 0.0606348 13.75520854 0.07710225 16.2109375 0.09765625 C16.2109375 0.42765625 16.2109375 0.75765625 16.2109375 1.09765625 C0.46606278 3.39378381 0.46606278 3.39378381 -6.7890625 3.09765625 C-6.7890625 2.43765625 -6.7890625 1.77765625 -6.7890625 1.09765625 C-4.33631109 -0.12871945 -2.7384844 -0.01649689 0 0 Z " fill="#caffff" transform="translate(50.7890625,186.90234375)"/>
<path d="M0 0 C-5.61201606 2.24480642 -11.07136283 3.83348574 -17 5 C-16.67 3.68 -16.34 2.36 -16 1 C-14.0852312 0.63571223 -12.16807707 0.28394694 -10.25 -0.0625 C-9.18265625 -0.25972656 -8.1153125 -0.45695313 -7.015625 -0.66015625 C-4.25228095 -0.97156937 -2.59053383 -0.8991416 0 0 Z " fill="#caffff" transform="translate(110,212)"/>
<path d="M0 0 C2.0343459 1.41519715 2.90410393 2.54982123 3.421875 4.98046875 C3.66273952 6.98176954 3.83532741 8.9909944 4 11 C2.68 10.67 1.36 10.34 0 10 C0 9.34 0 8.68 0 8 C-1.65 8 -3.3 8 -5 8 C-3.625 6.5 -3.625 6.5 -2 5 C-1.34 5 -0.68 5 0 5 C0 3.35 0 1.7 0 0 Z " fill="#caffff" transform="translate(49,130)"/>
<path d="M0 0 C0.33 0.66 0.66 1.32 1 2 C3.58605332 2.4683265 3.58605332 2.4683265 6.5625 2.625 C8.08037109 2.73714844 8.08037109 2.73714844 9.62890625 2.8515625 C10.80259766 2.92503906 10.80259766 2.92503906 12 3 C9.79662631 4.13450305 7.73332991 5.08889003 5.375 5.875 C2.60080006 7.18909471 2.03631329 8.17369103 1 11 C-0.17571451 7.32589215 -0.07366746 3.83070817 0 0 Z " fill="#caffff" transform="translate(30,42)"/>
<path d="M0 0 C3.11733407 1.16900028 6.05172018 2.52693759 9 4.0625 C11.98662055 5.58409267 14.64024934 6.58003117 18 7 C17.34 7.66 16.68 8.32 16 9 C10.44565603 8.8645282 5.43059655 6.2273398 1 3 C0.67 2.01 0.34 1.02 0 0 Z " fill="#caffff" transform="translate(102,139)"/>
<path d="M0 0 C-2.36300349 2.36300349 -3.5798498 2.51433444 -6.8125 3.125 C-8.09060547 3.37636719 -8.09060547 3.37636719 -9.39453125 3.6328125 C-11.96843811 3.995552 -14.40461588 4.06523407 -17 4 C-17.33 4.99 -17.66 5.98 -18 7 C-18.66 5.68 -19.32 4.36 -20 3 C-6.3667426 -0.44419134 -6.3667426 -0.44419134 0 0 Z " fill="#caffff" transform="translate(142,79)"/>
<path d="M0 0 C-0.33 2.64 -0.66 5.28 -1 8 C-3.64 7.67 -6.28 7.34 -9 7 C-7.4576387 2.93377477 -4.5679954 0 0 0 Z " fill="#caffff" transform="translate(52,63)"/>
<path d="M0 0 C0.99 0.33 1.98 0.66 3 1 C-0.96 2.98 -0.96 2.98 -5 5 C-5 5.33 -5 5.66 -5 6 C-9.455 6.495 -9.455 6.495 -14 7 C-14 6.01 -14 5.02 -14 4 C-13.15695313 3.79503906 -12.31390625 3.59007812 -11.4453125 3.37890625 C-10.34960938 3.10949219 -9.25390625 2.84007812 -8.125 2.5625 C-7.03445312 2.29566406 -5.94390625 2.02882812 -4.8203125 1.75390625 C-2.07515279 1.1213522 -2.07515279 1.1213522 0 0 Z " fill="#caffff" transform="translate(48,174)"/>
<path d="M0 0 C-1.98 0.99 -1.98 0.99 -4 2 C-4 2.99 -4 3.98 -4 5 C-7.63 3.68 -11.26 2.36 -15 1 C-15 0.67 -15 0.34 -15 0 C-9.38963576 -1.62077189 -5.53754923 -2.55579195 0 0 Z " fill="#caffff" transform="translate(120,74)"/>
<path d="M0 0 C0.99 0.33 1.98 0.66 3 1 C1.56328432 1.64757625 0.12559584 2.29299453 -1.3125 2.9375 C-2.11300781 3.29714844 -2.91351563 3.65679687 -3.73828125 4.02734375 C-7.24079912 5.53360791 -9.90454867 6.11732538 -13.6875 6.0625 C-14.89986328 6.04896484 -14.89986328 6.04896484 -16.13671875 6.03515625 C-17.05904297 6.01775391 -17.05904297 6.01775391 -18 6 C-14.71094419 3.80729612 -12.28126342 3.25778918 -8.4375 2.4375 C-4.09278171 1.57898629 -4.09278171 1.57898629 0 0 Z " fill="#caffff" transform="translate(120,68)"/>
<path d="M0 0 C0.33 0.99 0.66 1.98 1 3 C3.97 3 6.94 3 10 3 C10.33 3.66 10.66 4.32 11 5 C6.05 6.485 6.05 6.485 1 8 C0.67 5.36 0.34 2.72 0 0 Z " fill="#caffff" transform="translate(32,54)"/>
<path d="M0 0 C0.74636719 0.27457031 1.49273437 0.54914063 2.26171875 0.83203125 C3.050625 1.12078125 3.83953125 1.40953125 4.65234375 1.70703125 C7.50244521 2.87033797 10.239238 4.18531085 12.94921875 5.64453125 C11.13671875 7.20703125 11.13671875 7.20703125 8.94921875 8.64453125 C7.95921875 8.31453125 6.96921875 7.98453125 5.94921875 7.64453125 C6.60921875 7.31453125 7.26921875 6.98453125 7.94921875 6.64453125 C3.56409 3.3289461 0.57463716 2.09456472 -5.05078125 1.64453125 C-2.05078125 -0.35546875 -2.05078125 -0.35546875 0 0 Z " fill="#caffff" transform="translate(154.05078125,191.35546875)"/>
<path d="M0 0 C0.99 0.33 1.98 0.66 3 1 C3.33 5.29 3.66 9.58 4 14 C3.01 13.01 2.02 12.02 1 11 C1 9.68 1 8.36 1 7 C0.34 7 -0.32 7 -1 7 C-0.67 4.69 -0.34 2.38 0 0 Z " fill="#caffff" transform="translate(26,94)"/>
<path d="M0 0 C-0.56589844 0.27457031 -1.13179687 0.54914063 -1.71484375 0.83203125 C-4.85387067 2.43642279 -7.85485246 4.26386615 -10.87890625 6.07421875 C-13 7 -13 7 -16 6 C-11.75317247 0.90380696 -6.49499472 -0.39363604 0 0 Z " fill="#caffff" transform="translate(135,74)"/>
<path d="M0 0 C0.66 0.66 1.32 1.32 2 2 C1.61328125 2.4125 1.2265625 2.825 0.828125 3.25 C-3.05737783 7.5586764 -5.59273608 11.7225368 -8 17 C-8.33 17 -8.66 17 -9 17 C-8.69164398 9.59945554 -5.13434535 5.13434535 0 0 Z " fill="#caffff" transform="translate(97,73)"/>
<path d="M0 0 C0.66 0.99 1.32 1.98 2 3 C4.58380177 3.25030977 4.58380177 3.25030977 7 3 C5 5 5 5 2.5 5.9375 C-0.30191747 6.8583474 -0.30191747 6.8583474 -2 10 C-3.65 10.33 -5.3 10.66 -7 11 C-4.69 7.37 -2.38 3.74 0 0 Z " fill="#caffff" transform="translate(132,136)"/>
<path d="M0 0 C0.66 0.33 1.32 0.66 2 1 C1.67 2.32 1.34 3.64 1 5 C-0.32 5.33 -1.64 5.66 -3 6 C-3 6.66 -3 7.32 -3 8 C-6.13498292 9.85776765 -8.37471432 10.20140476 -12 10 C-11.67 9.34 -11.34 8.68 -11 8 C-8.6859378 7.26924352 -6.35171131 6.59861742 -4 6 C-4 5.34 -4 4.68 -4 4 C-2.68 3.34 -1.36 2.68 0 2 C0 1.34 0 0.68 0 0 Z " fill="#caffff" transform="translate(112,211)"/>
<path d="M0 0 C0.66 0.33 1.32 0.66 2 1 C2 1.66 2 2.32 2 3 C-0.01171875 4.4375 -0.01171875 4.4375 -2.6875 6 C-3.55761719 6.515625 -4.42773438 7.03125 -5.32421875 7.5625 C-7.83647195 8.91214843 -10.33203915 10.00011557 -13 11 C-13.99 9.68 -14.98 8.36 -16 7 C-14.515 7.1546875 -14.515 7.1546875 -13 7.3125 C-8.18890207 7.3419557 -4.66189171 4.94737626 -1 2 C-0.67 1.34 -0.34 0.68 0 0 Z " fill="#caffff" transform="translate(42,123)"/>
<path d="M0 0 C1.16144531 0.00902344 2.32289062 0.01804688 3.51953125 0.02734375 C4.39996094 0.03894531 5.28039062 0.05054688 6.1875 0.0625 C6.1875 0.3925 6.1875 0.7225 6.1875 1.0625 C-1.13418224 2.22808465 -8.43596781 3.31234418 -15.8125 4.0625 C-10.90720268 -0.1160866 -6.27264464 -0.06336005 0 0 Z " fill="#caffff" transform="translate(66.8125,182.9375)"/>
<path d="M0 0 C2.08268593 -0.08126087 4.16628658 -0.13930839 6.25 -0.1875 C7.99023438 -0.23970703 7.99023438 -0.23970703 9.765625 -0.29296875 C13 0 13 0 17 3 C13.04 3 9.08 3 5 3 C5 2.67 5 2.34 5 2 C3.35 1.67 1.7 1.34 0 1 C0 0.67 0 0.34 0 0 Z " fill="#caffff" transform="translate(79,180)"/>
<path d="M0 0 C0.33 0 0.66 0 1 0 C0.88660796 2.64680904 0.75987127 5.29177518 0.625 7.9375 C0.5940625 8.69224609 0.563125 9.44699219 0.53125 10.22460938 C0.4273685 12.15507395 0.22104386 14.07942081 0 16 C-0.66 16.33 -1.32 16.66 -2 17 C-2.05441656 15.10448978 -2.09298035 13.2085208 -2.125 11.3125 C-2.14820313 10.25675781 -2.17140625 9.20101562 -2.1953125 8.11328125 C-1.99858729 4.97748141 -1.33057654 2.82354627 0 0 Z " fill="#caffff" transform="translate(188,144)"/>
<path d="M0 0 C1.98 0 3.96 0 6 0 C6 0.66 6 1.32 6 2 C6.99 2.33 7.98 2.66 9 3 C7.4221875 3.61875 7.4221875 3.61875 5.8125 4.25 C2.41295943 5.69411378 -0.21424307 7.55191058 -3 10 C-3.33 9.34 -3.66 8.68 -4 8 C-0.25 4.125 -0.25 4.125 2 3 C2 2.34 2 1.68 2 1 C1.34 0.67 0.68 0.34 0 0 Z " fill="#caffff" transform="translate(43,138)"/>
<path d="M0 0 C0 0.33 0 0.66 0 1 C-2.22771342 1.50643553 -4.45724076 2.0048962 -6.6875 2.5 C-8.54955078 2.91765625 -8.54955078 2.91765625 -10.44921875 3.34375 C-13.42398218 3.89354126 -15.99368602 4.13795705 -19 4 C-16.37412094 1.37412094 -14.22718377 1.14221649 -10.625 0.3125 C-9.48289062 0.04050781 -8.34078125 -0.23148437 -7.1640625 -0.51171875 C-4.27019132 -0.95830381 -2.70183009 -0.99155833 0 0 Z " fill="#caffff" transform="translate(30,112)"/>
<path d="M0 0 C2.11635213 2.57642867 3.67339287 4.62505968 4 8 C3.01 9.485 3.01 9.485 2 11 C1.67 9.35 1.34 7.7 1 6 C-0.65 6.33 -2.3 6.66 -4 7 C-2.68 4.69 -1.36 2.38 0 0 Z M-7 7 C-6.01 7.33 -5.02 7.66 -4 8 C-5 9 -5 9 -7.5625 9.0625 C-8.7690625 9.0315625 -8.7690625 9.0315625 -10 9 C-9.01 8.34 -8.02 7.68 -7 7 Z " fill="#caffff" transform="translate(150,87)"/>
<path d="M0 0 C1.32 0.33 2.64 0.66 4 1 C4.66 3.31 5.32 5.62 6 8 C3.24921116 8.91692961 1.64051087 9.10886083 -1.1875 9.0625 C-3.0746875 9.0315625 -3.0746875 9.0315625 -5 9 C-2.66785852 7.79371992 -0.50357861 6.8345262 2 6 C1.34 4.02 0.68 2.04 0 0 Z " fill="#caffff" transform="translate(107,206)"/>
<path d="M0 0 C0.6875 1.75 0.6875 1.75 1 4 C-0.4375 6.25 -0.4375 6.25 -2 8 C-4.97 7.505 -4.97 7.505 -8 7 C-5.53058944 4.40062046 -2.81939117 2.20979308 0 0 Z " fill="#caffff" transform="translate(187,186)"/>
<path d="M0 0 C3.36179774 1.44077046 5.59156268 3.24750021 8 6 C8 6.66 8 7.32 8 8 C3.69159287 6.92289822 0.36423277 5.96052484 -3 3 C-2.01 2.01 -1.02 1.02 0 0 Z " fill="#caffff" transform="translate(139,75)"/>
<path d="M0 0 C5.60461531 0.42089996 10.72086547 0.91613111 16 3 C16 3.33 16 3.66 16 4 C9.86946489 4.32712342 5.37330889 4.39366878 0 1 C0 0.67 0 0.34 0 0 Z " fill="#caffff" transform="translate(147,36)"/>
<path d="M0 0 C-1.98 0.99 -3.96 1.98 -6 3 C-5.67 3.99 -5.34 4.98 -5 6 C-7.31 6.33 -9.62 6.66 -12 7 C-12 6.01 -12 5.02 -12 4 C-11.01 3.67 -10.02 3.34 -9 3 C-8.67 2.34 -8.34 1.68 -8 1 C-2.47058824 -1.23529412 -2.47058824 -1.23529412 0 0 Z " fill="#caffff" transform="translate(53,26)"/>
<path d="M0 0 C0.66 0.33 1.32 0.66 2 1 C0.03617993 2.50559539 -1.78263366 3.89131683 -4 5 C-4 5.66 -4 6.32 -4 7 C-6.375 7.625 -6.375 7.625 -9 8 C-9.66 7.34 -10.32 6.68 -11 6 C-9.21385682 4.96953278 -7.42089982 3.95086764 -5.625 2.9375 C-4.62726562 2.36902344 -3.62953125 1.80054687 -2.6015625 1.21484375 C-1.74304687 0.81394531 -0.88453125 0.41304687 0 0 Z " fill="#caffff" transform="translate(57,23)"/>
<path d="M0 0 C0.99 0 1.98 0 3 0 C1.7175023 2.86095641 0.54656011 5.11365918 -2 7 C-4.6875 7.1875 -4.6875 7.1875 -7 7 C-5.6875 5 -5.6875 5 -4 3 C-3.01 3 -2.02 3 -1 3 C-0.67 2.01 -0.34 1.02 0 0 Z " fill="#caffff" transform="translate(145,135)"/>
<path d="M0 0 C3.96 0 7.92 0 12 0 C11.67 1.65 11.34 3.3 11 5 C10.01 4.67 9.02 4.34 8 4 C8.66 4 9.32 4 10 4 C10 3.34 10 2.68 10 2 C9.01 2.33 8.02 2.66 7 3 C4.64811553 2.40206327 2.31074405 1.74118205 0 1 C0 0.67 0 0.34 0 0 Z " fill="#caffff" transform="translate(12,102)"/>
<path d="M0 0 C0.33 1.32 0.66 2.64 1 4 C-0.72601379 4.81917642 -2.4559647 5.63006016 -4.1875 6.4375 C-5.15042969 6.88996094 -6.11335937 7.34242187 -7.10546875 7.80859375 C-9.76631586 8.90381422 -12.16784755 9.54954796 -15 10 C-13.55037942 7.10075884 -11.54758474 6.68671126 -8.625 5.375 C-7.64789063 4.92898437 -6.67078125 4.48296875 -5.6640625 4.0234375 C-3 3 -3 3 0 3 C0 2.01 0 1.02 0 0 Z " fill="#caffff" transform="translate(148,85)"/>
<path d="M0 0 C-2 3 -2 3 -3.9453125 3.51171875 C-4.66460937 3.56972656 -5.38390625 3.62773437 -6.125 3.6875 C-8.043125 3.8421875 -8.043125 3.8421875 -10 4 C-9 1 -9 1 -7.25 -0.25 C-4.47275102 -1.17574966 -2.78428335 -0.77341204 0 0 Z " fill="#caffff" transform="translate(95,187)"/>
<path d="M0 0 C1.32 0 2.64 0 4 0 C4.66 2.31 5.32 4.62 6 7 C5.34 7 4.68 7 4 7 C3.67 6.34 3.34 5.68 3 5 C0.69 5 -1.62 5 -4 5 C-2.68 4.34 -1.36 3.68 0 3 C0 2.01 0 1.02 0 0 Z " fill="#caffff" transform="translate(46,167)"/>
<path d="M0 0 C0.99 0.66 1.98 1.32 3 2 C3 2.66 3 3.32 3 4 C-0.50776784 5.60355101 -3.14354879 6.22036864 -7 6 C-2.25 1.125 -2.25 1.125 0 0 Z " fill="#caffff" transform="translate(44,125)"/>
<path d="M0 0 C4.65747018 2.32873509 6.06487928 3.04125317 8 8 C8.66 8.66 9.32 9.32 10 10 C9.34 11.32 8.68 12.64 8 14 C7.59007812 13.24074219 7.18015625 12.48148438 6.7578125 11.69921875 C6.21898437 10.70535156 5.68015625 9.71148437 5.125 8.6875 C4.59132812 7.70136719 4.05765625 6.71523437 3.5078125 5.69921875 C1.99277874 2.90413542 1.99277874 2.90413542 0 0 Z " fill="#caffff" transform="translate(125,87)"/>
<path d="M0 0 C0.8971875 0.309375 0.8971875 0.309375 1.8125 0.625 C-2.07059282 4.27275386 -4.89951818 5.21025633 -10.1875 5.625 C-2.68278302 -0.45990566 -2.68278302 -0.45990566 0 0 Z " fill="#caffff" transform="translate(27.1875,84.375)"/>
<path d="M0 0 C2.8125 -0.1875 2.8125 -0.1875 6 0 C6.99 0.99 7.98 1.98 9 3 C4.545 4.485 4.545 4.485 0 6 C0 5.34 0 4.68 0 4 C0.66 4 1.32 4 2 4 C2 3.34 2 2.68 2 2 C1.34 1.34 0.68 0.68 0 0 Z " fill="#caffff" transform="translate(84,183)"/>
<path d="M0 0 C2.73397536 2.52892721 4.93063422 4.89595133 7 8 C4.83125748 7.49396008 3.00032373 7.00016187 1 6 C1 5.34 1 4.68 1 4 C0.360625 3.87625 -0.27875 3.7525 -0.9375 3.625 C-1.618125 3.41875 -2.29875 3.2125 -3 3 C-3.33 2.34 -3.66 1.68 -4 1 C-2 0 -2 0 0 0 Z " fill="#caffff" transform="translate(23,117)"/>
<path d="M0 0 C-4.17949673 2.78633115 -6.93375326 4 -12 4 C-12.33 4.66 -12.66 5.32 -13 6 C-13 4.68 -13 3.36 -13 2 C-4.57142857 -0.28571429 -4.57142857 -0.28571429 0 0 Z " fill="#caffff" transform="translate(27,115)"/>
<path d="M0 0 C0 0.99 0 1.98 0 3 C-4.455 4.485 -4.455 4.485 -9 6 C-8.67 4.68 -8.34 3.36 -8 2 C-5.25822503 0.83328724 -2.99432393 0 0 0 Z " fill="#caffff" transform="translate(17,94)"/>
<path d="M0 0 C2.64 0 5.28 0 8 0 C7.67 0.66 7.34 1.32 7 2 C6.34 2 5.68 2 5 2 C5 2.66 5 3.32 5 4 C6.32 4.33 7.64 4.66 9 5 C7.68 5.99 6.36 6.98 5 8 C2.525 4.04 2.525 4.04 0 0 Z " fill="#caffff" transform="translate(78,194)"/>
<path d="M0 0 C4.40114397 0.50298788 6.71195019 2.08772731 10 5 C7 6 7 6 4.95703125 5.22265625 C4.24933594 4.83980469 3.54164063 4.45695313 2.8125 4.0625 C2.09707031 3.68222656 1.38164062 3.30195313 0.64453125 2.91015625 C0.10183594 2.60980469 -0.44085938 2.30945313 -1 2 C-0.67 1.34 -0.34 0.68 0 0 Z " fill="#caffff" transform="translate(153,193)"/>
<path d="M0 0 C0.33 0 0.66 0 1 0 C1.33 3.96 1.66 7.92 2 12 C1.34 11.34 0.68 10.68 0 10 C0 9.01 0 8.02 0 7 C-0.99 6.67 -1.98 6.34 -3 6 C-2.01 4.02 -1.02 2.04 0 0 Z " fill="#caffff" transform="translate(50,160)"/>
<path d="M0 0 C0.33 0 0.66 0 1 0 C1.25 5.625 1.25 5.625 -1 9 C-1.66 9 -2.32 9 -3 9 C-3.33 9.66 -3.66 10.32 -4 11 C-4.33 10.34 -4.66 9.68 -5 9 C-4.00390625 6.8359375 -4.00390625 6.8359375 -2.5625 4.375 C-2.08941406 3.55773437 -1.61632812 2.74046875 -1.12890625 1.8984375 C-0.75636719 1.27195313 -0.38382813 0.64546875 0 0 Z " fill="#caffff" transform="translate(137,195)"/>
<path d="M0 0 C0.33 0.66 0.66 1.32 1 2 C2.65 2 4.3 2 6 2 C5.67 3.32 5.34 4.64 5 6 C3.35 6 1.7 6 0 6 C0 4.02 0 2.04 0 0 Z " fill="#caffff" transform="translate(33,72)"/>
<path d="M0 0 C0.33 0 0.66 0 1 0 C1.04241723 2.33294775 1.04092937 4.66702567 1 7 C0 8 0 8 -3.0625 8.0625 C-4.031875 8.041875 -5.00125 8.02125 -6 8 C-6 7.34 -6 6.68 -6 6 C-4.35 5.67 -2.7 5.34 -1 5 C-0.67 3.35 -0.34 1.7 0 0 Z " fill="#caffff" transform="translate(39,49)"/>
<path d="M0 0 C0.33 0.66 0.66 1.32 1 2 C0.0625 4.625 0.0625 4.625 -1 7 C-3.97 6.505 -3.97 6.505 -7 6 C-6 3 -6 3 -2.9375 1.3125 C-1.968125 0.879375 -0.99875 0.44625 0 0 Z " fill="#caffff" transform="translate(49,32)"/>
<path d="M0 0 C0.99 0.33 1.98 0.66 3 1 C3 1.99 3 2.98 3 4 C7.455 3.505 7.455 3.505 12 3 C9.53721199 5.46278801 7.29323018 5.99771255 4 7 C0 1.125 0 1.125 0 0 Z " fill="#caffff" transform="translate(31,177)"/>
<path d="M0 0 C1.32 0.33 2.64 0.66 4 1 C4 1.66 4 2.32 4 3 C-0.455 4.485 -0.455 4.485 -5 6 C-4.34 5.01 -3.68 4.02 -3 3 C-2.34 3 -1.68 3 -1 3 C-0.67 2.01 -0.34 1.02 0 0 Z " fill="#caffff" transform="translate(46,171)"/>
<path d="M0 0 C0.33 0.99 0.66 1.98 1 3 C0.00390625 4.82421875 0.00390625 4.82421875 -1.4375 6.6875 C-1.91058594 7.31011719 -2.38367188 7.93273437 -2.87109375 8.57421875 C-3.24363281 9.04472656 -3.61617187 9.51523438 -4 10 C-5.32 9.34 -6.64 8.68 -8 8 C-6.68 7.67 -5.36 7.34 -4 7 C-3.8453125 6.1028125 -3.8453125 6.1028125 -3.6875 5.1875 C-2.91123545 2.71756736 -1.92911079 1.67748765 0 0 Z " fill="#caffff" transform="translate(153,126)"/>
<path d="M0 0 C-0.98093954 2.45234885 -1.68703828 3.7809268 -3.875 5.3125 C-6.37345514 6.12082372 -7.52928976 5.71847013 -10 5 C-8.71186658 4.16121545 -7.41936744 3.32913217 -6.125 2.5 C-5.40570312 2.0359375 -4.68640625 1.571875 -3.9453125 1.09375 C-2 0 -2 0 0 0 Z " fill="#caffff" transform="translate(21,107)"/>
<path d="M0 0 C0.66 0 1.32 0 2 0 C2.33 2.64 2.66 5.28 3 8 C0.525 7.01 0.525 7.01 -2 6 C-1.34 4.02 -0.68 2.04 0 0 Z " fill="#caffff" transform="translate(25,101)"/>
<path d="M0 0 C0.66 0 1.32 0 2 0 C2 0.66 2 1.32 2 2 C3.32 2.33 4.64 2.66 6 3 C-0.93 4.485 -0.93 4.485 -8 6 C-6.49650603 2.99301207 -3.9581052 2.41742541 -1 1 C-0.67 0.67 -0.34 0.34 0 0 Z " fill="#caffff" transform="translate(129,71)"/>
<path d="M0 0 C0.33 0 0.66 0 1 0 C1.33 2.64 1.66 5.28 2 8 C0.02 7.34 -1.96 6.68 -4 6 C-3.67 4.68 -3.34 3.36 -3 2 C-2.34 2 -1.68 2 -1 2 C-0.67 1.34 -0.34 0.68 0 0 Z " fill="#caffff" transform="translate(43,51)"/>
<path d="M0 0 C-6 3 -6 3 -9.125 2.0625 C-10.07375 1.711875 -11.0225 1.36125 -12 1 C-12 0.67 -12 0.34 -12 0 C-7.74433453 -1.16063604 -4.3164922 -0.76173392 0 0 Z " fill="#caffff" transform="translate(169,37)"/>
<path d="M0 0 C3.94727588 -0.17942163 6.5980513 -0.09350689 10 2 C10 2.99 10 3.98 10 5 C7.69 4.34 5.38 3.68 3 3 C3 2.34 3 1.68 3 1 C2.01 0.67 1.02 0.34 0 0 Z " fill="#caffff" transform="translate(117,3)"/>
<path d="M0 0 C0.33 1.32 0.66 2.64 1 4 C-3.455 4.495 -3.455 4.495 -8 5 C-3.16129032 0 -3.16129032 0 0 0 Z " fill="#caffff" transform="translate(98,189)"/>
<path d="M0 0 C3 1 3 1 4 3 C4.06996014 4.70702735 4.08440154 6.41668003 4.0625 8.125 C4.05347656 9.03507812 4.04445312 9.94515625 4.03515625 10.8828125 C4.02355469 11.58148438 4.01195312 12.28015625 4 13 C3.67 13 3.34 13 3 13 C1.90154282 8.67940177 0.82187261 4.38332057 0 0 Z " fill="#caffff" transform="translate(210,109)"/>
<path d="M0 0 C1.98 0 3.96 0 6 0 C5.79375 0.598125 5.5875 1.19625 5.375 1.8125 C4.69328085 4.28450846 4.69328085 4.28450846 7 7 C5 6 3 5 1 4 C0.375 1.9375 0.375 1.9375 0 0 Z " fill="#caffff" transform="translate(115,76)"/>
<path d="M0 0 C0.8971875 0.309375 0.8971875 0.309375 1.8125 0.625 C0.8225 1.12 0.8225 1.12 -0.1875 1.625 C-0.1875 2.285 -0.1875 2.945 -0.1875 3.625 C-2.4975 4.285 -4.8075 4.945 -7.1875 5.625 C-5.69046729 2.17030914 -4.27938051 -0.73360809 0 0 Z " fill="#caffff" transform="translate(96.1875,10.375)"/>
<path d="M0 0 C0 0.99 0 1.98 0 3 C-4.455 3.495 -4.455 3.495 -9 4 C-6.25137935 -0.12293098 -4.89482776 0 0 0 Z " fill="#caffff" transform="translate(108,207)"/>
<path d="M0 0 C0 1.65 0 3.3 0 5 C-2.375 5.625 -2.375 5.625 -5 6 C-5.66 5.34 -6.32 4.68 -7 4 C-1.125 0 -1.125 0 0 0 Z " fill="#caffff" transform="translate(38,49)"/>
<path d="M0 0 C2.475 0.99 2.475 0.99 5 2 C5 2.99 5 3.98 5 5 C1.7 4.01 -1.6 3.02 -5 2 C-3.68 1.67 -2.36 1.34 -1 1 C-0.67 0.67 -0.34 0.34 0 0 Z " fill="#caffff" transform="translate(147,195)"/>
<path d="M0 0 C0.66 0.66 1.32 1.32 2 2 C0.54550599 3.0055761 -0.91372443 4.00430435 -2.375 5 C-3.59316406 5.8353125 -3.59316406 5.8353125 -4.8359375 6.6875 C-7 8 -7 8 -9 8 C-9 7.34 -9 6.68 -9 6 C-7.03125 4.4921875 -7.03125 4.4921875 -4.5 2.875 C-3.6646875 2.33617187 -2.829375 1.79734375 -1.96875 1.2421875 C-1.3190625 0.83226562 -0.669375 0.42234375 0 0 Z " fill="#caffff" transform="translate(95,187)"/>
<path d="M0 0 C0 0.66 0 1.32 0 2 C-2.25 3.125 -2.25 3.125 -5 4 C-7.3125 3.125 -7.3125 3.125 -9 2 C-5.62902617 0.50178941 -3.79557881 0 0 0 Z " fill="#caffff" transform="translate(49,133)"/>
<path d="M0 0 C0 2 0 2 -1.1875 3.625 C-3.55560662 5.42149467 -5.09897251 5.23521845 -8 5 C-3.375 0 -3.375 0 0 0 Z " fill="#caffff" transform="translate(35,79)"/>
<path d="M0 0 C0.33 0.66 0.66 1.32 1 2 C3.31 1.34 5.62 0.68 8 0 C8 0.66 8 1.32 8 2 C4.49223216 3.60355101 1.85645121 4.22036864 -2 4 C-1.34 2.68 -0.68 1.36 0 0 Z " fill="#caffff" transform="translate(83,25)"/>
<path d="M0 0 C1.258125 -0.020625 2.51625 -0.04125 3.8125 -0.0625 C4.52019531 -0.07410156 5.22789063 -0.08570313 5.95703125 -0.09765625 C8 0 8 0 11 1 C11 1.66 11 2.32 11 3 C9.68 3.33 8.36 3.66 7 4 C6.67 3.01 6.34 2.02 6 1 C4.02 1 2.04 1 0 1 C0 0.67 0 0.34 0 0 Z " fill="#caffff" transform="translate(34,138)"/>
<path d="M0 0 C-0.33 0.66 -0.66 1.32 -1 2 C-3.28515625 2.6328125 -3.28515625 2.6328125 -6.0625 3.125 C-6.98160156 3.29257813 -7.90070313 3.46015625 -8.84765625 3.6328125 C-9.91306641 3.81457031 -9.91306641 3.81457031 -11 4 C-9.71264403 1.42528807 -8.71510189 1.29583343 -6.0625 0.3125 C-5.35222656 0.04050781 -4.64195312 -0.23148438 -3.91015625 -0.51171875 C-2 -1 -2 -1 0 0 Z " fill="#caffff" transform="translate(145,136)"/>
<path d="M0 0 C-2.39509338 2.89932357 -4.31245243 3.50168276 -8 4 C-8 3.01 -8 2.02 -8 1 C-5.29120665 -0.35439668 -2.99066732 -0.06501451 0 0 Z " fill="#caffff" transform="translate(141,135)"/>
<path d="M0 0 C0 0.66 0 1.32 0 2 C-2.31 3.32 -4.62 4.64 -7 6 C-7.33 4.68 -7.66 3.36 -8 2 C-2.25 0 -2.25 0 0 0 Z " fill="#caffff" transform="translate(22,104)"/>
<path d="M0 0 C-4.625 4 -4.625 4 -8 4 C-7.1875 2.0625 -7.1875 2.0625 -6 0 C-3 -1 -3 -1 0 0 Z " fill="#caffff" transform="translate(140,76)"/>
<path d="M0 0 C0 0.99 0 1.98 0 3 C-3.13498292 4.85776765 -5.37471432 5.20140476 -9 5 C-6.47043472 1.9083091 -3.77545388 1.09068668 0 0 Z " fill="#caffff" transform="translate(94,27)"/>
<path d="M0 0 C0 0.99 0 1.98 0 3 C-3.3 3.33 -6.6 3.66 -10 4 C-7.25346796 1.25346796 -3.91404908 0 0 0 Z " fill="#caffff" transform="translate(52,175)"/>
<path d="M0 0 C0.33 0.66 0.66 1.32 1 2 C3.02463255 2.65213292 3.02463255 2.65213292 5 3 C4.01 4.485 4.01 4.485 3 6 C2.34 6 1.68 6 1 6 C0.67 6.66 0.34 7.32 0 8 C0 5.36 0 2.72 0 0 Z " fill="#caffff" transform="translate(30,167)"/>
<path d="M0 0 C1.65 0 3.3 0 5 0 C4.01 1.485 4.01 1.485 3 3 C2.835 4.19625 2.67 5.3925 2.5 6.625 C2.335 7.73875 2.17 8.8525 2 10 C1.01 10.495 1.01 10.495 0 11 C0 7.37 0 3.74 0 0 Z " fill="#caffff" transform="translate(33,144)"/>
<path d="M0 0 C2.31 1.65 4.62 3.3 7 5 C6.67 5.66 6.34 6.32 6 7 C2.63279613 5.60667426 1.0140476 4.0210714 -1 1 C-0.67 0.67 -0.34 0.34 0 0 Z " fill="#caffff" transform="translate(96,133)"/>
<path d="M0 0 C-3.51187196 2.40814077 -5.72656908 3.36629408 -10 3 C-9.34 2.67 -8.68 2.34 -8 2 C-8 1.34 -8 0.68 -8 0 C-2.25 -1.125 -2.25 -1.125 0 0 Z " fill="#caffff" transform="translate(38,128)"/>
<path d="M0 0 C6.625 0.75 6.625 0.75 10 3 C8.72125 3.061875 7.4425 3.12375 6.125 3.1875 C5.40570313 3.22230469 4.68640625 3.25710937 3.9453125 3.29296875 C3.30335938 3.19628906 2.66140625 3.09960938 2 3 C1.34 2.01 0.68 1.02 0 0 Z " fill="#caffff" transform="translate(151,198)"/>
<path d="M0 0 C-2.6855594 2.6855594 -5.37621328 3.06049974 -9 4 C-9 3.01 -9 2.02 -9 1 C-5.8035914 -0.06546953 -3.34252724 -0.07427838 0 0 Z " fill="#caffff" transform="translate(178,196)"/>
<path d="M0 0 C-3.53411321 2.12046792 -6.94393835 2.53199289 -11 3 C-8.21756596 -1.17365106 -4.53441502 -0.22300402 0 0 Z " fill="#caffff" transform="translate(83,182)"/>
<path d="M0 0 C2.31 0 4.62 0 7 0 C7 0.66 7 1.32 7 2 C4.36 2.33 1.72 2.66 -1 3 C-0.67 2.01 -0.34 1.02 0 0 Z " fill="#caffff" transform="translate(48,179)"/>
<path d="M0 0 C-0.33 0.99 -0.66 1.98 -1 3 C-4.0625 4.1875 -4.0625 4.1875 -7 5 C-5.22678182 1.07358831 -4.52021524 0 0 0 Z " fill="#caffff" transform="translate(152,106)"/>
<path d="M0 0 C1.32 0.33 2.64 0.66 4 1 C1.3144406 3.6855594 -1.37621328 4.06049974 -5 5 C-4.67 4.01 -4.34 3.02 -4 2 C-2.68 2 -1.36 2 0 2 C0 1.34 0 0.68 0 0 Z " fill="#caffff" transform="translate(39,57)"/>
<path d="M0 0 C0.33 0 0.66 0 1 0 C1.33 2.64 1.66 5.28 2 8 C3.32 8.33 4.64 8.66 6 9 C4.34385343 9.38218767 2.67542976 9.71395102 1 10 C0 9 0 9 -0.09765625 6.93359375 C-0.08605469 6.10988281 -0.07445312 5.28617188 -0.0625 4.4375 C-0.05347656 3.61121094 -0.04445312 2.78492188 -0.03515625 1.93359375 C-0.02355469 1.29550781 -0.01195312 0.65742187 0 0 Z " fill="#caffff" transform="translate(45,50)"/>
<path d="M0 0 C3.24208567 0.35049575 4.61527704 0.56221181 6.8125 3.0625 C7.204375 3.701875 7.59625 4.34125 8 5 C5.07120629 4.37240135 2.63904371 3.41377341 0 2 C0 1.34 0 0.68 0 0 Z " fill="#caffff" transform="translate(177,36)"/>
<path d="M0 0 C3.3 0.33 6.6 0.66 10 1 C9.67 1.66 9.34 2.32 9 3 C2.25 2.25 2.25 2.25 0 0 Z " fill="#caffff" transform="translate(76,29)"/>
<path d="M0 0 C0.33 0.99 0.66 1.98 1 3 C-2.21451269 4.60725635 -5.43612536 4.05748185 -9 4 C-9 3.67 -9 3.34 -9 3 C-6.03 2.01 -3.06 1.02 0 0 Z " fill="#caffff" transform="translate(109,218)"/>
<path d="M0 0 C2.96865509 2.54456151 4.3619751 5.48994665 6 9 C4.68 8.67 3.36 8.34 2 8 C1.34 5.36 0.68 2.72 0 0 Z " fill="#caffff" transform="translate(109,202)"/>
<path d="M0 0 C4.21912747 0.4794463 6.79663178 1.16625119 10 4 C5.66905042 4 3.72965139 3.03435531 0 1 C0 0.67 0 0.34 0 0 Z " fill="#caffff" transform="translate(161,191)"/>
<path d="M0 0 C2.31 0 4.62 0 7 0 C4.01353231 1.99097846 1.40312738 2.94124926 -2 4 C-1.34 2.68 -0.68 1.36 0 0 Z " fill="#caffff" transform="translate(35,169)"/>
<path d="M0 0 C0 0.66 0 1.32 0 2 C-0.66 2 -1.32 2 -2 2 C-2 2.66 -2 3.32 -2 4 C-3.65 4 -5.3 4 -7 4 C-3.375 0 -3.375 0 0 0 Z " fill="#caffff" transform="translate(40,34)"/>
</svg>