<svg version="1.1" xmlns="http://www.w3.org/2000/svg" width="200px" height="200px" transform="rotate(0) scale(1, 1)">
<path d="M0 0 C1.23943359 0.68255859 1.23943359 0.68255859 2.50390625 1.37890625 C10.26756683 5.98981126 15.09320995 12.30811107 17.5715332 20.98120117 C19.69240602 29.73369719 19.41287009 38.50083167 19.36328125 47.44921875 C19.36276141 49.31622823 19.3632839 51.18323825 19.36479187 53.05024719 C19.36470267 56.94251797 19.35437835 60.83457936 19.33618164 64.72680664 C19.31344896 69.69619053 19.31296474 74.66527054 19.31969929 79.63469219 C19.32305187 83.48245407 19.31638571 87.33014762 19.30657005 91.1778965 C19.30274357 93.00978042 19.30155915 94.84167197 19.3031559 96.67355919 C19.30352986 99.2378407 19.29081614 101.80174275 19.2746582 104.3659668 C19.27713562 105.10956955 19.27961304 105.8531723 19.28216553 106.61930847 C19.18216921 116.64367274 16.87235828 125.76198631 9.91796875 133.23828125 C3.33255619 139.37494338 -2.72729952 142.14427169 -11.75 143.125 C-12.44738281 143.20572754 -13.14476562 143.28645508 -13.86328125 143.36962891 C-17.90555375 143.82652481 -21.93939264 144.12546547 -26 144.375 C-31.05263928 144.84466062 -34.93165381 145.90393652 -39 149 C-44.97901365 156.38542227 -49.03364436 165.35571286 -53.40820312 173.73242188 C-53.95798828 174.76818359 -54.50777344 175.80394531 -55.07421875 176.87109375 C-55.56494873 177.80880615 -56.05567871 178.74651855 -56.5612793 179.71264648 C-58 182 -58 182 -61 184 C-67.47111692 185.04000093 -71.60831947 183.37323115 -76.98828125 179.7265625 C-84.19398326 173.74618952 -89.36706525 164.74336986 -94.33056641 156.89648438 C-96.60242192 153.27252029 -96.60242192 153.27252029 -100.2265625 151.28125 C-101.01804688 151.3534375 -101.80953125 151.425625 -102.625 151.5 C-103.57246094 151.55929688 -104.51992187 151.61859375 -105.49609375 151.6796875 C-106.65238281 151.78539062 -107.80867188 151.89109375 -109 152 C-111.38845626 152.17220681 -113.77711596 152.3273278 -116.16748047 152.47070312 C-117.8120358 152.57139669 -119.45578422 152.68662458 -121.09814453 152.81835938 C-133.80140195 153.673158 -144.35031648 147.75579316 -154.0546875 139.9296875 C-160.08784007 133.94499399 -162.0912487 127.06906056 -162.16885376 118.78607178 C-162.17154266 117.95746643 -162.17423157 117.12886108 -162.17700195 116.27514648 C-162.18357315 115.39490311 -162.19014435 114.51465973 -162.19691467 113.60774231 C-162.21661771 110.69552519 -162.22830593 107.78335967 -162.23828125 104.87109375 C-162.24235678 103.87349596 -162.2464323 102.87589817 -162.25063133 101.84807014 C-162.27148303 96.56399875 -162.28578656 91.27995323 -162.29516602 85.99584961 C-162.30620608 80.5577567 -162.34058096 75.12007571 -162.38033772 69.68212795 C-162.40658194 65.48429138 -162.41486496 61.2865516 -162.41844749 57.08864021 C-162.42329619 55.08533012 -162.43486076 53.08202386 -162.45348549 51.07879448 C-162.58760168 35.69266783 -161.38814965 22.59719751 -150.0703125 11.02734375 C-138.01124952 0.62474546 -121.28741134 0.83608522 -106.21875 -0.39453125 C-103.91426581 -0.59204325 -101.60986424 -0.79052141 -99.30554199 -0.98991394 C-94.49526446 -1.40299313 -89.68429383 -1.80617584 -84.87255859 -2.2019043 C-78.73518257 -2.70720478 -72.59994653 -3.23454755 -66.46504974 -3.76901722 C-61.71280263 -4.18101671 -56.95971949 -4.58260012 -52.20631409 -4.98099327 C-49.94486793 -5.17150448 -47.68365933 -5.36485952 -45.42271423 -5.5612278 C-13.89299652 -8.28123916 -13.89299652 -8.28123916 0 0 Z " fill="#6dbdc1" transform="translate(169,10)"/>
<path d="M0 0 C0.96164063 0.51304687 1.92328125 1.02609375 2.9140625 1.5546875 C5.06556587 2.92755155 6.6848387 4.23065814 8.375 6.125 C5.1059961 7.21466797 4.52347903 6.97331185 1.375 6.125 C-0.21192639 6.04633041 -1.80178249 6.01715886 -3.390625 6.02734375 C-4.28007812 6.03056641 -5.16953125 6.03378906 -6.0859375 6.03710938 C-7.00632813 6.04548828 -7.92671875 6.05386719 -8.875 6.0625 C-10.27878906 6.06926758 -10.27878906 6.06926758 -11.7109375 6.07617188 C-14.01569041 6.08793082 -16.32031227 6.10436574 -18.625 6.125 C-18.625 5.795 -18.625 5.465 -18.625 5.125 C-19.8625 5.08375 -21.1 5.0425 -22.375 5 C-23.07109375 4.97679687 -23.7671875 4.95359375 -24.484375 4.9296875 C-26.63639064 4.97940375 -26.63639064 4.97940375 -28.32739258 6.07910156 C-31.38837917 7.47249935 -34.18256055 7.70036816 -37.52734375 8.0546875 C-38.22116653 8.12979553 -38.91498932 8.20490356 -39.62983704 8.2822876 C-41.93995039 8.52958603 -44.25110905 8.7649663 -46.5625 9 C-48.18916024 9.17140275 -49.81578721 9.3431216 -51.44238281 9.51513672 C-60.87703062 10.49995074 -70.31951706 11.37963951 -79.76953125 12.203125 C-80.7794664 12.291315 -81.78940155 12.379505 -82.8299408 12.47036743 C-87.78803391 12.90127251 -92.74670333 13.3226273 -97.70678711 13.72998047 C-99.53890495 13.88502963 -101.37101782 14.04013752 -103.203125 14.1953125 C-104.02363846 14.25978577 -104.84415192 14.32425903 -105.68952942 14.39068604 C-116.57388285 15.32549463 -125.17247561 17.2977651 -133.25 25.125 C-134.17039063 25.99125 -135.09078125 26.8575 -136.0390625 27.75 C-144.39884498 37.61946118 -143.21409238 50.63552408 -143.15625 62.75390625 C-143.1589496 64.75447274 -143.1628359 66.75503794 -143.16784668 68.75559998 C-143.17371833 72.93216543 -143.16525341 77.10838689 -143.14648438 81.28491211 C-143.12368154 86.61649956 -143.13684144 91.94728199 -143.16077423 97.27884007 C-143.1752828 101.4046171 -143.17060332 105.53020574 -143.16026306 109.65598869 C-143.15761051 111.6210229 -143.16081323 113.58607467 -143.17018127 115.55108833 C-143.68891856 131.26243468 -143.68891856 131.26243468 -137.01358032 144.97131348 C-135.32474166 146.60936762 -133.60460044 147.85662275 -131.625 149.125 C-131.07215332 149.49616943 -130.51930664 149.86733887 -129.94970703 150.24975586 C-121.85581853 154.67521399 -112.61495623 153.51936296 -103.6875 153.3125 C-101.12938784 153.26994894 -98.57130972 153.23314604 -96.01304626 153.20100403 C-94.42924135 153.17934234 -92.84551327 153.15068731 -91.26197815 153.11430359 C-85.84414657 153.01542672 -85.84414657 153.01542672 -83.625 154.125 C-83.191875 154.8675 -82.75875 155.61 -82.3125 156.375 C-80.69705374 159.24699198 -80.69705374 159.24699198 -78.125 161.625 C-75.69257226 164.05742774 -74.36388047 166.18227921 -72.625 169.125 C-70.82519588 171.38713912 -69.00060827 173.62427111 -67.1484375 175.84375 C-65.49738292 178.31609839 -65.00601531 180.20045008 -64.625 183.125 C-61.655 184.115 -58.685 185.105 -55.625 186.125 C-55.625 186.455 -55.625 186.785 -55.625 187.125 C-62.13376247 187.98464787 -66.19925439 186.52132129 -71.61328125 182.8515625 C-78.81898326 176.87118952 -83.99206525 167.86836986 -88.95556641 160.02148438 C-91.22742192 156.39752029 -91.22742192 156.39752029 -94.8515625 154.40625 C-95.64304688 154.4784375 -96.43453125 154.550625 -97.25 154.625 C-98.19746094 154.68429688 -99.14492187 154.74359375 -100.12109375 154.8046875 C-101.27738281 154.91039062 -102.43367188 155.01609375 -103.625 155.125 C-106.01345626 155.29720681 -108.40211596 155.4523278 -110.79248047 155.59570312 C-112.4370358 155.69639669 -114.08078422 155.81162458 -115.72314453 155.94335938 C-128.42640195 156.798158 -138.97531648 150.88079316 -148.6796875 143.0546875 C-154.71284007 137.06999399 -156.7162487 130.19406056 -156.79385376 121.91107178 C-156.79654266 121.08246643 -156.79923157 120.25386108 -156.80200195 119.40014648 C-156.80857315 118.51990311 -156.81514435 117.63965973 -156.82191467 116.73274231 C-156.84161771 113.82052519 -156.85330593 110.90835967 -156.86328125 107.99609375 C-156.86735678 106.99849596 -156.8714323 106.00089817 -156.87563133 104.97307014 C-156.89648303 99.68899875 -156.91078656 94.40495323 -156.92016602 89.12084961 C-156.93120608 83.6827567 -156.96558096 78.24507571 -157.00533772 72.80712795 C-157.03158194 68.60929138 -157.03986496 64.4115516 -157.04344749 60.21364021 C-157.04829619 58.21033012 -157.05986076 56.20702386 -157.07848549 54.20379448 C-157.21260168 38.81766783 -156.01314965 25.72219751 -144.6953125 14.15234375 C-132.63624952 3.74974546 -115.91241134 3.96108522 -100.84375 2.73046875 C-98.53926581 2.53295675 -96.23486424 2.33447859 -93.93054199 2.13508606 C-89.12026446 1.72200687 -84.30929383 1.31882416 -79.49755859 0.9230957 C-73.36018257 0.41779522 -67.22494653 -0.10954755 -61.09004974 -0.64401722 C-56.33780263 -1.05601671 -51.58471949 -1.45760012 -46.83131409 -1.85599327 C-44.56986793 -2.04650448 -42.30865933 -2.23985952 -40.04771423 -2.4362278 C-9.20498304 -5.09697408 -9.20498304 -5.09697408 0 0 Z " fill="#4b9ea3" transform="translate(163.625,6.875)"/>
<path d="M0 0 C0.53109375 0.28875 1.0621875 0.5775 1.609375 0.875 C2.31578125 1.24625 3.0221875 1.6175 3.75 2 C4.44609375 2.37125 5.1421875 2.7425 5.859375 3.125 C8.23167757 4.25224649 8.23167757 4.25224649 12 4 C11.98667633 5.17604797 11.97335266 6.35209595 11.95962524 7.56378174 C11.83762071 18.68532414 11.74787283 29.80672951 11.68912697 40.92879105 C11.65790881 46.64584652 11.61561005 52.36235869 11.54736328 58.07910156 C11.48183131 63.60345496 11.44622251 69.12728812 11.43073654 74.65200043 C11.41971076 76.75222708 11.39818053 78.85242754 11.36561966 80.95243073 C11.09820074 98.52761915 11.09820074 98.52761915 19.40322876 113.67510986 C20.99636816 115.25824196 20.99636816 115.25824196 24 117 C24.53270508 117.35102783 25.06541016 117.70205566 25.61425781 118.0637207 C33.73666233 122.54731303 42.96289201 121.39545554 51.9375 121.1875 C54.49561216 121.14494894 57.05369028 121.10814604 59.61195374 121.07600403 C61.19575865 121.05434234 62.77948673 121.02568731 64.36302185 120.98930359 C69.78085343 120.89042672 69.78085343 120.89042672 72 122 C72.433125 122.7425 72.86625 123.485 73.3125 124.25 C74.92794626 127.12199198 74.92794626 127.12199198 77.5 129.5 C79.93242774 131.93242774 81.26111953 134.05727921 83 137 C84.79980412 139.26213912 86.62439173 141.49927111 88.4765625 143.71875 C90.12761708 146.19109839 90.61898469 148.07545008 91 151 C93.97 151.99 96.94 152.98 100 154 C100 154.33 100 154.66 100 155 C93.49123753 155.85964787 89.42574561 154.39632129 84.01171875 150.7265625 C76.80601674 144.74618952 71.63293475 135.74336986 66.66943359 127.89648438 C64.39757808 124.27252029 64.39757808 124.27252029 60.7734375 122.28125 C59.58621094 122.38953125 59.58621094 122.38953125 58.375 122.5 C57.42753906 122.55929688 56.48007813 122.61859375 55.50390625 122.6796875 C54.34761719 122.78539062 53.19132812 122.89109375 52 123 C49.61154374 123.17220681 47.22288404 123.3273278 44.83251953 123.47070312 C43.1879642 123.57139669 41.54421578 123.68662458 39.90185547 123.81835938 C27.19859805 124.673158 16.64968352 118.75579316 6.9453125 110.9296875 C1.67331769 105.70003803 -0.89113965 99.38348751 -1.12698364 92.05322266 C-1.13292235 90.42351323 -1.13332368 88.79377801 -1.12939453 87.1640625 C-1.13114685 86.27257507 -1.13289917 85.38108765 -1.13470459 84.46258545 C-1.13910464 81.51670381 -1.13619159 78.57088225 -1.1328125 75.625 C-1.13348607 73.5776366 -1.13445654 71.53027328 -1.13571167 69.48291016 C-1.13718614 65.19237507 -1.13504211 60.9018608 -1.13037109 56.61132812 C-1.12467397 51.10993797 -1.12795431 45.60859661 -1.13394356 40.10720825 C-1.13755591 35.87963493 -1.13640747 31.65207318 -1.13381577 27.42449951 C-1.13314837 25.39589431 -1.1339684 23.36728806 -1.13629532 21.33868408 C-1.13883286 18.50440686 -1.13496561 15.67020882 -1.12939453 12.8359375 C-1.13141876 11.99633484 -1.13344299 11.15673218 -1.13552856 10.29168701 C-1.12241005 6.69168439 -0.97219009 3.46411892 0 0 Z " fill="#077178" transform="translate(8,39)"/>
<path d="M0 0 C0 0.66 0 1.32 0 2 C6.72409382 6.06984626 16.11448767 4.10824572 23.625 3.5 C32.41316357 2.79416333 41.19102186 2.91547889 50 3 C50 3.33 50 3.66 50 4 C40.70872924 6.20295512 31.29016377 6.88986925 21.80151367 7.67724609 C2.95056247 9.05657767 2.95056247 9.05657767 -12.625 19 C-13.54539062 19.86625 -14.46578125 20.7325 -15.4140625 21.625 C-23.78816041 31.51235644 -22.60415934 44.61778217 -22.609375 56.76171875 C-22.6243765 58.76383285 -22.64110774 60.76593467 -22.65948486 62.76802063 C-22.70294941 68.00398364 -22.72311095 73.23977976 -22.73822021 78.47589111 C-22.75786699 83.83233422 -22.79982827 89.18859906 -22.83984375 94.54492188 C-22.91491928 105.02989265 -22.96534759 115.51482309 -23 126 C-23.33 126 -23.66 126 -24 126 C-24 94.65 -24 63.3 -24 31 C-25.65 30.67 -27.3 30.34 -29 30 C-31.8125 28.4375 -31.8125 28.4375 -34 27 C-33.61882008 19.75758149 -29.71168016 13.85852205 -24.8359375 8.71875 C-18.65512034 3.32311808 -8.47079344 -3.08958891 0 0 Z " fill="#258086" transform="translate(43,13)"/>
<path d="M0 0 C1.30254455 0.51495947 2.59189391 1.0633557 3.875 1.625 C4.59429688 1.92664062 5.31359375 2.22828125 6.0546875 2.5390625 C8.87926179 4.66032914 9.12195946 6.58897357 10 10 C10.26585358 12.98429234 10.25330896 15.94844628 10.22705078 18.94287109 C10.22734283 19.8215686 10.22763489 20.70026611 10.22793579 21.60559082 C10.22654823 24.49497531 10.21101404 27.38409834 10.1953125 30.2734375 C10.19158033 32.28268289 10.18873432 34.29193011 10.18673706 36.30117798 C10.17911666 41.57835961 10.15948183 46.85543039 10.1373291 52.13256836 C10.11683636 57.52195741 10.10772801 62.91136444 10.09765625 68.30078125 C10.07623445 78.86723608 10.04211772 89.43360881 10 100 C9.34 100 8.68 100 8 100 C8 89.11 8 78.22 8 67 C5.03 66.34 2.06 65.68 -1 65 C-1.0231793 57.11567432 -1.0409436 49.2313629 -1.05181217 41.34701157 C-1.05702876 37.68591864 -1.06410421 34.02484904 -1.07543945 30.36376953 C-1.0863118 26.83004782 -1.09228607 23.29634854 -1.09487724 19.76261139 C-1.09762169 17.75960042 -1.10542683 15.75659846 -1.11329651 13.75360107 C-1.11337204 12.53263733 -1.11344757 11.31167358 -1.11352539 10.05371094 C-1.115746 8.97893494 -1.11796661 7.90415894 -1.12025452 6.79681396 C-1.01524382 4.35453253 -0.70765164 2.32815483 0 0 Z " fill="#398f94" transform="translate(8,39)"/>
<path d="M0 0 C4.455 0.99 4.455 0.99 9 2 C9.02505615 2.96824707 9.0501123 3.93649414 9.07592773 4.93408203 C9.17050706 8.54601985 9.27060183 12.15778785 9.37231445 15.76953125 C9.41547308 17.32906099 9.45716056 18.88863219 9.49731445 20.44824219 C9.55548213 22.69739242 9.61903923 24.94633759 9.68359375 27.1953125 C9.70030624 27.8861795 9.71701874 28.57704651 9.73423767 29.28884888 C9.85461593 33.27363963 10.25154219 37.08458012 11 41 C7.44849408 40.69558521 6.02861198 40.02406007 3.25 37.6875 C-0.46277616 33.25279514 -0.12098236 29.51969577 -0.09765625 23.828125 C-0.0962413 23.1457074 -0.09482635 22.46328979 -0.09336853 21.76019287 C-0.08779084 19.59008316 -0.07524254 17.4200783 -0.0625 15.25 C-0.05748211 13.77474108 -0.05291971 12.29948053 -0.04882812 10.82421875 C-0.03782875 7.21611202 -0.02057953 3.60806625 0 0 Z " fill="#5caeb2" transform="translate(7,104)"/>
<path d="M0 0 C3.47232673 0.61189622 4.00848927 1.0093175 6.5625 3.8125 C13.42552952 14.31430542 12.42983855 27.43884656 12.36328125 39.44921875 C12.36276141 41.31622823 12.3632839 43.18323825 12.36479187 45.05024719 C12.36470267 48.94251797 12.35437835 52.83457936 12.33618164 56.72680664 C12.31344896 61.69619053 12.31296474 66.66527054 12.31969929 71.63469219 C12.32305187 75.48245407 12.31638571 79.33014762 12.30657005 83.1778965 C12.30274357 85.00978042 12.30155915 86.84167197 12.3031559 88.67355919 C12.30352986 91.2378407 12.29081614 93.80174275 12.2746582 96.3659668 C12.27837433 97.48137093 12.27837433 97.48137093 12.28216553 98.61930847 C12.20527308 106.32757178 10.81629236 113.23475445 7 120 C6.34 119.67 5.68 119.34 5 119 C5.21117808 118.45029667 5.42235617 117.90059334 5.63993359 117.33423233 C7.61398906 111.88139024 8.45082153 107.15889761 8.46411133 101.38183594 C8.47751556 100.57235001 8.4909198 99.76286407 8.50473022 98.92884827 C8.54476706 96.28065696 8.56400215 93.63280037 8.58203125 90.984375 C8.60400134 89.12264882 8.62694209 87.26093387 8.65080261 85.39923096 C8.69752541 81.50593144 8.73422237 77.61270766 8.76342773 73.71923828 C8.80116721 68.76227997 8.86120536 63.80590438 8.92854786 58.84926987 C8.97870026 55.00572524 9.0181545 51.16212688 9.05438805 47.31842804 C9.07259863 45.49260548 9.09371705 43.66680925 9.11795998 41.84105682 C9.31337784 26.2661978 9.12431065 13.21451887 0 0 Z " fill="#7eced0" transform="translate(176,18)"/>
<path d="M0 0 C0 0.66 0 1.32 0 2 C6.72409382 6.06984626 16.11448767 4.10824572 23.625 3.5 C32.41316357 2.79416333 41.19102186 2.91547889 50 3 C50 3.33 50 3.66 50 4 C40.70872924 6.20295512 31.29016377 6.88986925 21.80151367 7.67724609 C14.06401693 8.32655896 6.53644609 9.05511069 -1 11 C-2.33306733 11.33439556 -3.66633102 11.66801215 -5 12 C-5 11.34 -5 10.68 -5 10 C-5.5775 10.350625 -6.155 10.70125 -6.75 11.0625 C-9.50737759 12.21140733 -10.26022385 12.12814312 -13 11 C-15.02951535 9.71203834 -17.03501678 8.38442 -19 7 C-18.3984375 5.14453125 -18.3984375 5.14453125 -17 3 C-14.1015625 1.69921875 -14.1015625 1.69921875 -10.625 0.6875 C-9.48289062 0.34074219 -8.34078125 -0.00601562 -7.1640625 -0.36328125 C-4.21160741 -0.95741727 -2.76133681 -1.05420494 0 0 Z " fill="#8fdedf" transform="translate(43,13)"/>
<path d="M0 0 C1.30598663 3.91795988 1.08154754 7.60802994 1.01831055 11.68725586 C0.99863362 13.52864033 0.97899749 15.37002524 0.95939636 17.21141052 C0.94716726 18.18894224 0.93493816 19.16647396 0.92233849 20.17362785 C0.86158168 25.36104849 0.83097732 30.54868768 0.79492188 35.73632812 C0.74711723 42.33303952 0.69063283 48.92932953 0.60229492 55.52563477 C0.53165948 60.85889933 0.49098563 66.19168144 0.46967506 71.52536201 C0.45615835 73.55024917 0.43185863 75.57509627 0.39618492 77.59971428 C0.18659385 89.83992337 0.15994766 99.82095708 8.40336609 109.67808533 C12.19561015 113.23560604 17.23194762 115.10337472 22 117 C22 117.33 22 117.66 22 118 C12.38185025 119.08884714 5.53037308 113.99778457 -2 108.5 C-5.55124598 105.64756808 -7.43988877 103.26430404 -9 99 C-8.401875 99.33 -7.80375 99.66 -7.1875 100 C-4.94613529 101.20787988 -4.94613529 101.20787988 -2 101 C-2 68 -2 35 -2 1 C-1.34 0.67 -0.68 0.34 0 0 Z " fill="#a0eeef" transform="translate(19,43)"/>
<path d="M0 0 C3.95820859 0.56545837 6.6659053 1.80902348 10 4 C9.31113213 7.38891322 8.01283514 10.18011613 6.4375 13.25 C5.98246094 14.14203125 5.52742188 15.0340625 5.05859375 15.953125 C4.70925781 16.62859375 4.35992187 17.3040625 4 18 C0.04991941 17.31620454 -2.63457018 16.21156817 -6 14 C-5.57202798 8.29370646 -3.15654048 4.58921384 0 0 Z " fill="#b1ffff" transform="translate(15,26)"/>
<path d="M0 0 C4.23745774 0.18958396 6.33452851 0.29159487 9.30078125 3.44921875 C9.96464844 4.51785156 10.62851563 5.58648437 11.3125 6.6875 C12.0658459 7.86577618 12.82112982 9.04281501 13.578125 10.21875 C13.96677734 10.83492187 14.35542969 11.45109375 14.75585938 12.0859375 C17.30457374 16.00703652 20.12799311 19.74091207 22.90161133 23.50463867 C26 27.78272019 26 27.78272019 26 30 C18.05577172 27.50324254 13.98552995 20.48421564 9.375 14 C8.80265625 13.2059375 8.2303125 12.411875 7.640625 11.59375 C4.93139314 7.81342648 2.30152142 4.04806605 0 0 Z " fill="#b1ffff" transform="translate(71,161)"/>
<path d="M0 0 C7.80123092 -0.90014203 13.39496739 1.97826904 20 6 C21.85546875 7.69921875 21.85546875 7.69921875 23 9 C19.7309961 10.08966797 19.14847903 9.84831185 16 9 C14.41307361 8.92133041 12.82321751 8.89215886 11.234375 8.90234375 C9.90019531 8.90717773 9.90019531 8.90717773 8.5390625 8.91210938 C7.61867187 8.92048828 6.69828125 8.92886719 5.75 8.9375 C4.34621094 8.94426758 4.34621094 8.94426758 2.9140625 8.95117188 C0.60930959 8.96293082 -1.69531227 8.97936574 -4 9 C-4 8.67 -4 8.34 -4 8 C-6.97 7.505 -6.97 7.505 -10 7 C-10 6.67 -10 6.34 -10 6 C-5.05 5.34 -0.1 4.68 5 4 C3.35 3.01 1.7 2.02 0 1 C0 0.67 0 0.34 0 0 Z " fill="#b1ffff" transform="translate(149,4)"/>
<path d="M0 0 C-3.7890903 2.37369335 -7.82282699 2.62935632 -12.16796875 3.0703125 C-13.35934196 3.19924393 -13.35934196 3.19924393 -14.57478333 3.33078003 C-16.25462187 3.51084767 -17.93487077 3.68712209 -19.61547852 3.85986328 C-22.16207321 4.12237888 -24.70697513 4.39807554 -27.25195312 4.67578125 C-28.89054118 4.84974962 -30.52921091 5.02295082 -32.16796875 5.1953125 C-32.9182988 5.27653351 -33.66862885 5.35775452 -34.44169617 5.44143677 C-48.51921138 6.86680309 -48.51921138 6.86680309 -52.5625 4.5 C-53.036875 4.005 -53.51125 3.51 -54 3 C-44.09815871 1.62746754 -34.51266509 0.84907845 -24.515625 0.99609375 C-21.0103116 0.99998854 -17.7011796 0.70006554 -14.23828125 0.22265625 C-9.51202284 -0.24749511 -4.74399582 -0.07224359 0 0 Z " fill="#b1ffff" transform="translate(137,12)"/>
<path d="M0 0 C0.33 0 0.66 0 1 0 C1.22392192 10.66604561 1.4253221 21.33226017 1.59840012 31.999259 C1.67947605 36.95299834 1.76814948 41.90635308 1.87451172 46.85961914 C1.97697442 51.64455543 2.05905397 56.42945634 2.12732697 61.21499825 C2.15682519 63.03585438 2.19352512 64.85660929 2.2377243 66.67716789 C2.65576 84.25239939 2.65576 84.25239939 -2 92 C-2.66 91.67 -3.32 91.34 -4 91 C-3.5155542 89.90308838 -3.0311084 88.80617676 -2.53198242 87.67602539 C0.06524346 79.82404699 -0.51678221 71.36427884 -0.48828125 63.18359375 C-0.47141576 61.35798448 -0.45326303 59.53238669 -0.43388367 57.70680237 C-0.38658047 52.92788277 -0.3566442 48.14900975 -0.33044434 43.36993408 C-0.30053903 38.48285734 -0.25404316 33.59594073 -0.20898438 28.70898438 C-0.12317543 19.13940702 -0.05573097 9.56979651 0 0 Z " fill="#b1ffff" transform="translate(185,46)"/>
<path d="M0 0 C0 0.33 0 0.66 0 1 C-7.22882773 2.6212148 -14.36995057 3.53652547 -21.75 4.125 C-22.75160156 4.21136719 -23.75320312 4.29773438 -24.78515625 4.38671875 C-29.53582106 4.78313184 -34.22805064 5.11361784 -39 5 C-39 4.67 -39 4.34 -39 4 C-41.31 3.67 -43.62 3.34 -46 3 C-46 2.67 -46 2.34 -46 2 C-30.64035288 0.70467033 -15.41818787 -0.33803579 0 0 Z " fill="#b1ffff" transform="translate(93,16)"/>
<path d="M0 0 C3.96670899 0.44074544 6.68811135 1.82361603 10 4 C9.49396008 6.16874252 9.00016187 7.99967627 8 10 C3.87248551 9.39301257 0.6678852 7.96189209 -3 6 C-1.125 1.125 -1.125 1.125 0 0 Z " fill="#b1ffff" transform="translate(15,26)"/>
<path d="M0 0 C2.80058533 1.14192431 5.4670777 2.33810372 8 4 C9.0625 6.625 9.0625 6.625 9 9 C8.67 9.66 8.34 10.32 8 11 C5 10 2 9 -1 8 C-0.67 5.36 -0.34 2.72 0 0 Z " fill="#b1ffff" transform="translate(8,39)"/>
<path d="M0 0 C5.12061683 2.36336161 10.03541639 5.05902732 13 10 C13 10.66 13 11.32 13 12 C14.65 12.33 16.3 12.66 18 13 C18.33 13.99 18.66 14.98 19 16 C10.69510402 12.88566401 4.62497411 8.60882838 0 1 C0 0.67 0 0.34 0 0 Z " fill="#b1ffff" transform="translate(10,142)"/>
<path d="M0 0 C0.33 0.99 0.66 1.98 1 3 C0.39414062 3.54785156 -0.21171875 4.09570312 -0.8359375 4.66015625 C-3.14818998 7.16022708 -4.28524508 9.32148936 -5.625 12.4375 C-6.02976562 13.36433594 -6.43453125 14.29117188 -6.8515625 15.24609375 C-7.92557885 17.82154112 -8.9734263 20.40531142 -10 23 C-11.40417683 19.09950881 -10.99592248 15.9836899 -10 12 C-7.27762931 7.50472742 -3.85837821 3.56157988 0 0 Z " fill="#b1ffff" transform="translate(30,27)"/>
<path d="M0 0 C0.73605469 0.01353516 1.47210938 0.02707031 2.23046875 0.04101562 C4.02896743 0.07605131 5.82708422 0.12984712 7.625 0.1875 C4.38381732 1.98729135 1.22369046 2.89081265 -2.375 3.75 C-3.40625 3.99878906 -4.4375 4.24757813 -5.5 4.50390625 C-6.923125 4.84228516 -6.923125 4.84228516 -8.375 5.1875 C-9.70884793 5.51876815 -11.04242379 5.85115264 -12.375 6.1875 C-12.375 5.5275 -12.375 4.8675 -12.375 4.1875 C-13.035 3.8575 -13.695 3.5275 -14.375 3.1875 C-9.35513301 0.17082915 -5.66176196 -0.19964622 0 0 Z " fill="#b1ffff" transform="translate(50.375,18.8125)"/>
<path d="M0 0 C0.66 0 1.32 0 2 0 C0.37317535 5.70323584 -2.33197987 10.68013903 -5.125 15.875 C-5.59292969 16.75414062 -6.06085938 17.63328125 -6.54296875 18.5390625 C-7.6912093 20.69494271 -8.84363903 22.84846777 -10 25 C-10.33 25 -10.66 25 -11 25 C-10.59300129 18.54863744 -8.17175469 14.08342169 -4.9375 8.5625 C-4.46505859 7.73556641 -3.99261719 6.90863281 -3.50585938 6.05664062 C-2.34712591 4.03178315 -1.17845586 2.01342134 0 0 Z " fill="#b1ffff" transform="translate(124,162)"/>
<path d="M0 0 C5.98993047 -0.3152595 9.63560356 0.31780178 15 3 C11.61629316 6.38370684 7.7667907 6.05529986 3.1875 6.0625 C1.79160221 6.04655989 0.39572052 6.02736707 -1 6 C-1 5.67 -1 5.34 -1 5 C0.98 4.67 2.96 4.34 5 4 C4.175 3.525625 3.35 3.05125 2.5 2.5625 C1.675 2.046875 0.85 1.53125 0 1 C0 0.67 0 0.34 0 0 Z " fill="#b1ffff" transform="translate(149,4)"/>
<path d="M0 0 C0.66 0.33 1.32 0.66 2 1 C1.67 13.54 1.34 26.08 1 39 C0.67 39 0.34 39 0 39 C-0.02505615 37.95021973 -0.0501123 36.90043945 -0.07592773 35.81884766 C-0.16996267 31.93118676 -0.2701928 28.04370619 -0.37231445 24.15625 C-0.41567817 22.47237358 -0.4573522 20.78845277 -0.49731445 19.10449219 C-0.55498234 16.68671276 -0.6186865 14.26915705 -0.68359375 11.8515625 C-0.70030624 11.0963028 -0.71701874 10.34104309 -0.73423767 9.56289673 C-0.77555107 5.65260201 -0.77555107 5.65260201 -2 2 C-1.34 2 -0.68 2 0 2 C0 1.34 0 0.68 0 0 Z " fill="#b1ffff" transform="translate(16,48)"/>
<path d="M0 0 C0.47308594 0.38671875 0.94617188 0.7734375 1.43359375 1.171875 C6.33904287 5.03503571 11.19610545 7.71606001 17 10 C17 10.33 17 10.66 17 11 C7.93023256 11.30232558 7.93023256 11.30232558 5 9 C2.78271521 6.02250328 1.17504225 3.52512676 0 0 Z " fill="#b1ffff" transform="translate(24,150)"/>
<path d="M0 0 C0.33 1.32 0.66 2.64 1 4 C-7.07744875 11.85193622 -7.07744875 11.85193622 -13 12 C-11.15154145 9.94615717 -9.41849406 8.62882599 -7.0625 7.125 C-4.02803614 5.01945365 -2.14883408 2.97530873 0 0 Z " fill="#b1ffff" transform="translate(179,138)"/>
<path d="M0 0 C4.32542465 1.99634984 8.84037965 4.10243943 11.375 8.25 C11.58125 8.8275 11.7875 9.405 12 10 C7.3861433 8.50728166 4.50540458 6.26639972 1 3 C0.67 2.01 0.34 1.02 0 0 Z " fill="#b1ffff" transform="translate(10,142)"/>
<path d="M0 0 C3.15998545 1.05332848 5.14745336 2.68060155 7.625 4.875 C6.635 5.205 5.645 5.535 4.625 5.875 C3.635 5.215 2.645 4.555 1.625 3.875 C-0.69608669 3.16687186 -3.02877147 2.49475848 -5.375 1.875 C-2.375 -0.125 -2.375 -0.125 0 0 Z " fill="#b1ffff" transform="translate(164.375,8.125)"/>
<path d="M0 0 C1.485 0.99 1.485 0.99 3 2 C3 2.66 3 3.32 3 4 C5.97 4.99 8.94 5.98 12 7 C12 7.33 12 7.66 12 8 C10.741875 8.04125 9.48375 8.0825 8.1875 8.125 C7.47980469 8.14820313 6.77210937 8.17140625 6.04296875 8.1953125 C4 8 4 8 1 6 C0.3125 2.875 0.3125 2.875 0 0 Z " fill="#b1ffff" transform="translate(96,186)"/>
<path d="M0 0 C2.48660455 0.3878678 3.72345219 0.70962479 5.484375 2.55859375 C5.90203125 3.17863281 6.3196875 3.79867188 6.75 4.4375 C7.17796875 5.05496094 7.6059375 5.67242188 8.046875 6.30859375 C9 8 9 8 9 10 C5.33838422 8.77946141 4.83729526 7.63217696 2.8125 4.4375 C2.28269531 3.61121094 1.75289062 2.78492188 1.20703125 1.93359375 C0.80871094 1.29550781 0.41039062 0.65742188 0 0 Z " fill="#b1ffff" transform="translate(176,18)"/>
<path d="M0 0 C0.99 0.33 1.98 0.66 3 1 C3.91297308 5.97063121 3.91297308 10.02936879 3 15 C2.67 15 2.34 15 2 15 C1.34 10.05 0.68 5.1 0 0 Z " fill="#b1ffff" transform="translate(183,28)"/>
<path d="M0 0 C2.97 1.65 5.94 3.3 9 5 C5.06329512 6.31223496 2.87511856 5.24296256 -1 4 C-0.67 2.68 -0.34 1.36 0 0 Z " fill="#b1ffff" transform="translate(13,28)"/>
<path d="M0 0 C4.55737263 0.43820891 7.57653445 0.85041169 11 4 C7.71303767 4.79953138 6.28976808 5.09658936 3 4 C3 3.01 3 2.02 3 1 C2.01 0.67 1.02 0.34 0 0 Z " fill="#b1ffff" transform="translate(153,4)"/>
<path d="M0 0 C2.31 0.33 4.62 0.66 7 1 C7 2.32 7 3.64 7 5 C6.01 5.33 5.02 5.66 4 6 C2.68 4.02 1.36 2.04 0 0 Z " fill="#b1ffff" transform="translate(71,161)"/>
<path d="M0 0 C0.66 0 1.32 0 2 0 C1.5205537 4.21912747 0.83374881 6.79663178 -2 10 C-2 6.09567131 -1.31626692 3.61973402 0 0 Z " fill="#b1ffff" transform="translate(184,128)"/>
<path d="M0 0 C-1.33332095 3.99996286 -3.4957827 4.83782337 -7 7 C-6.61402985 4.20171644 -6.19863427 3.1794116 -4.0625 1.25 C-2 0 -2 0 0 0 Z " fill="#b1ffff" transform="translate(134,154)"/>
<path d="M0 0 C3.40312738 1.05875074 6.01353231 2.00902154 9 4 C9 4.66 9 5.32 9 6 C5.9168649 4.80100302 2.93720508 3.52299523 0 2 C0 1.34 0 0.68 0 0 Z " fill="#b1ffff" transform="translate(16,26)"/>
<path d="M0 0 C4 2 4 2 6 4 C5.67 5.32 5.34 6.64 5 8 C2.525 4.04 2.525 4.04 0 0 Z " fill="#b1ffff" transform="translate(78,163)"/>
</svg>